<!-- Generated by IcoMoon.io -->
<svg version="1.1" xmlns="http://www.w3.org/2000/svg" width="1027" height="1024" viewBox="0 0 1027 1024">
<title></title>
<g id="icomoon-ignore">
</g>
<path fill="#016fd0" d="M0 0.001h1024v552.786l-50.685 79.196 50.685 70.484v321.534h-1024v-521.107l31.678-36.43-31.678-34.846z"></path>
<path fill="#fff" d="M198.781 713.554v-160.767h170.223l18.263 23.808 18.867-23.808h617.866v149.68c0 0-16.158 10.927-34.846 11.087h-342.125l-20.591-25.343v25.343h-67.475v-43.261c0 0-9.217 6.039-29.144 6.039h-22.967v37.222h-102.162l-18.237-24.319-18.517 24.319z"></path>
<path fill="#fff" d="M0 431.617l38.386-89.491h66.384l21.784 50.129v-50.129h82.522l12.968 36.232 12.572-36.232h370.438v18.215c0 0 19.474-18.215 51.477-18.215l120.193 0.42 21.408 49.473v-49.893h69.059l19.007 28.418v-28.418h69.692v160.767h-69.692l-18.215-28.51v28.51h-101.462l-10.203-25.343h-27.277l-10.037 25.343h-68.808c-27.538 0-45.142-17.843-45.142-17.843v17.843h-103.746l-20.591-25.343v25.343h-385.782l-10.196-25.343h-27.19l-10.124 25.343h-47.425z"></path>
<path fill="#016fd0" d="M51.972 361.945l-51.774 120.377h33.708l9.553-24.105h55.536l9.503 24.105h34.45l-51.725-120.377h-39.251zM71.128 389.961l16.928 42.122h-33.906l16.978-42.122z"></path>
<path fill="#016fd0" d="M146.512 482.302v-120.377l47.9 0.178 27.861 77.612 27.193-77.79h47.517v120.377h-30.094v-88.699l-31.901 88.699h-26.393l-31.99-88.699v88.699z"></path>
<path fill="#016fd0" d="M317.575 482.302v-120.377h98.203v26.927h-67.791v20.591h66.208v25.343h-66.208v21.383h67.791v26.135z"></path>
<path fill="#016fd0" d="M433.2 361.945v120.377h30.094v-42.766h12.671l36.084 42.766h36.776l-39.598-44.349c16.251-1.371 33.015-15.319 33.015-36.974 0-25.332-19.882-39.053-42.073-39.053h-66.97zM463.295 388.872h34.401c8.252 0 14.255 6.455 14.255 12.671 0 7.997-7.778 12.671-13.81 12.671h-34.846v-25.343z"></path>
<path fill="#016fd0" d="M585.256 482.302h-30.728v-120.377h30.728z"></path>
<path fill="#016fd0" d="M658.116 482.302h-6.633c-32.092 0-51.576-25.283-51.576-59.694 0-35.261 19.266-60.684 59.793-60.684h33.262v28.51h-34.478c-16.451 0-28.086 12.839-28.086 32.47 0 23.313 13.304 33.104 32.47 33.104h7.92z"></path>
<path fill="#016fd0" d="M723.601 361.945l-51.774 120.377h33.708l9.553-24.105h55.536l9.503 24.105h34.45l-51.725-120.377h-39.251zM742.756 389.961l16.928 42.122h-33.906l16.978-42.122z"></path>
<path fill="#016fd0" d="M818.091 482.302v-120.377h38.261l48.854 75.632v-75.632h30.094v120.377h-37.024l-50.091-77.612v77.612z"></path>
<path fill="#016fd0" d="M219.372 692.963v-120.377h98.203v26.927h-67.791v20.591h66.208v25.343h-66.208v21.383h67.791v26.135z"></path>
<path fill="#016fd0" d="M700.565 692.963v-120.377h98.203v26.927h-67.791v20.591h65.891v25.343h-65.891v21.383h67.791v26.135z"></path>
<path fill="#016fd0" d="M321.386 692.963l47.814-59.446-48.953-60.931h37.915l29.154 37.667 29.253-37.667h36.43l-48.309 60.189 47.902 60.189h-37.909l-28.307-37.074-27.619 37.074z"></path>
<path fill="#016fd0" d="M456.167 572.606v120.377h30.886v-38.014h31.678c26.804 0 47.121-14.22 47.121-41.875 0-22.909-15.935-40.489-43.211-40.489h-66.475zM487.053 599.829h33.361c8.659 0 14.849 5.307 14.849 13.859 0 8.034-6.159 13.859-14.948 13.859h-33.262v-27.718z"></path>
<path fill="#016fd0" d="M578.92 572.585v120.377h30.094v-42.766h12.671l36.084 42.766h36.776l-39.598-44.35c16.251-1.372 33.015-15.319 33.015-36.975 0-25.332-19.882-39.053-42.073-39.053h-66.97zM609.015 599.512h34.401c8.252 0 14.255 6.455 14.255 12.671 0 7.997-7.778 12.671-13.81 12.671h-34.846v-25.343z"></path>
<path fill="#016fd0" d="M812.706 692.963v-26.135h60.228c8.912 0 12.77-4.816 12.77-10.097 0-5.060-3.847-10.177-12.77-10.177h-27.216c-23.658 0-36.833-14.414-36.833-36.054 0-19.301 12.066-37.915 47.22-37.915h58.605l-12.671 27.085h-50.685c-9.689 0-12.671 5.084-12.671 9.939 0 4.99 3.686 10.493 11.087 10.493h28.51c26.372 0 37.816 14.959 37.816 34.549 0 21.061-12.752 38.311-39.252 38.311z"></path>
<path fill="#016fd0" d="M923.159 692.963v-26.135h60.228c8.912 0 12.77-4.816 12.77-10.097 0-5.060-3.847-10.177-12.77-10.177h-27.216c-23.658 0-36.833-14.414-36.833-36.054 0-19.301 12.066-37.915 47.22-37.915h58.605l-12.671 27.085h-50.685c-9.689 0-12.671 5.084-12.671 9.939 0 4.99 3.686 10.493 11.087 10.493h28.51c26.372 0 37.816 14.959 37.816 34.549 0 21.061-12.752 38.311-39.252 38.311z"></path>
</svg>
