<!-- Generated by IcoMoon.io -->
<svg version="1.1" xmlns="http://www.w3.org/2000/svg" width="32" height="32" viewBox="0 0 32 32">
<title>calendar</title>
<path d="M8.192 8.064h0.384c0.64 0 1.152-0.512 1.152-1.152v-4.608c0-0.64-0.512-1.152-1.152-1.152h-0.384c-0.64 0-1.152 0.512-1.152 1.152v4.608c0 0.64 0.512 1.152 1.152 1.152zM23.552 8.064h0.384c0.64 0 1.152-0.512 1.152-1.152v-4.608c0-0.64-0.512-1.152-1.152-1.152h-0.384c-0.64 0-1.152 0.512-1.152 1.152v4.48c0 0.64 0.512 1.28 1.152 1.28zM29.184 3.584h-3.072v3.584c0 1.152-1.024 1.792-2.176 1.792h-0.384c-1.152 0-2.176-1.024-2.176-2.176v-3.2h-10.496v3.328c0 1.152-1.024 2.048-2.176 2.048h-0.512c-1.152 0-2.176-0.896-2.176-2.048v-3.328h-3.2c-1.024 0-1.92 0.896-1.92 1.92v23.424c0 1.024 0.896 1.92 1.92 1.92h26.496c1.024 0 1.92-0.896 1.92-1.92v-23.424c0-1.024-0.896-1.92-2.048-1.92zM29.184 28.928h-26.368v-17.664h26.496l-0.128 17.664c0 0 0 0 0 0zM17.024 17.152h3.456c0.128 0 0.256-0.128 0.256-0.256v-3.072c0-0.128-0.128-0.256-0.256-0.256h-3.456c-0.128 0-0.256 0.128-0.256 0.256v3.072c0 0.128 0.128 0.256 0.256 0.256zM22.656 17.152h3.456c0.128 0 0.256-0.128 0.256-0.256v-3.072c0-0.128-0.128-0.256-0.256-0.256h-3.456c-0.128 0-0.256 0.128-0.256 0.256v3.072c0 0.128 0.128 0.256 0.256 0.256zM5.632 22.144h3.456c0.128 0 0.256-0.128 0.256-0.256v-3.072c0-0.128-0.128-0.256-0.256-0.256h-3.456c-0.128 0-0.256 0.128-0.256 0.256v3.072c0 0.128 0.128 0.256 0.256 0.256zM11.264 22.144h3.456c0.128 0 0.256-0.128 0.256-0.256v-3.072c0-0.128-0.128-0.256-0.256-0.256h-3.456c-0.128 0-0.256 0.128-0.256 0.256v3.072c0 0.128 0.128 0.256 0.256 0.256zM17.024 22.144h3.456c0.128 0 0.256-0.128 0.256-0.256v-3.072c0-0.128-0.128-0.256-0.256-0.256h-3.456c-0.128 0-0.256 0.128-0.256 0.256v3.072c0 0.128 0.128 0.256 0.256 0.256zM22.656 22.144h3.456c0.128 0 0.256-0.128 0.256-0.256v-3.072c0-0.128-0.128-0.256-0.256-0.256h-3.456c-0.128 0-0.256 0.128-0.256 0.256v3.072c0 0.128 0.128 0.256 0.256 0.256zM9.088 23.552h-3.456c-0.128 0-0.256 0.128-0.256 0.256v3.072c0 0.128 0.128 0.256 0.256 0.256h3.456c0.128 0 0.256-0.128 0.256-0.256v-3.072c0-0.128-0.128-0.256-0.256-0.256zM14.848 23.552h-3.584c-0.128 0-0.256 0.128-0.256 0.256v3.072c0 0.128 0.128 0.256 0.256 0.256h3.456c0.128 0 0.256-0.128 0.256-0.256v-3.072c0.128-0.128 0-0.256-0.128-0.256zM20.48 23.552h-3.456c-0.128 0-0.256 0.128-0.256 0.256v3.072c0 0.128 0.128 0.256 0.256 0.256h3.456c0.128 0 0.256-0.128 0.256-0.256v-3.072c0-0.128-0.128-0.256-0.256-0.256zM26.24 23.552h-3.456c-0.128 0-0.256 0.128-0.256 0.256v3.072c0 0.128 0.128 0.256 0.256 0.256h3.456c0.128 0 0.256-0.128 0.256-0.256v-3.072c-0.128-0.128-0.128-0.256-0.256-0.256z"></path>
</svg>
