<?xml version="1.0" encoding="utf-8"?>
<!-- Generator: Adobe Illustrator 25.0.0, SVG Export Plug-In . SVG Version: 6.00 Build 0)  -->
<svg version="1.1" id="_x32_" xmlns="http://www.w3.org/2000/svg" xmlns:xlink="http://www.w3.org/1999/xlink" x="0px" y="0px"
	 viewBox="0 0 22 24" style="enable-background:new 0 0 22 24;" xml:space="preserve">
<style type="text/css">
	.st0{fill:#4B4B4B;}
</style>
<g>
	<path class="st0" d="M3.9,18.4h8c0.1-0.3,0.3-0.7,0.4-1H3.9L3.9,18.4L3.9,18.4z"/>
	<rect x="3.9" y="13.5" class="st0" width="10.1" height="1"/>
	<rect x="3.9" y="9.6" class="st0" width="10.1" height="1"/>
	<rect x="9.2" y="5.7" class="st0" width="4.8" height="1"/>
	<path class="st0" d="M2.1,21.5c-0.5,0-0.9-0.4-0.9-0.9V7.8h5.5c0.6,0,1.1-0.5,1.1-1.1V1.2h8c0.5,0,0.9,0.4,0.9,0.9v12.7
		c0.1,0,0.2,0,0.2,0c0.3,0,0.6,0,0.9,0.1V2.1c0-1.1-0.9-2.1-2.1-2.1H7.5C6.9,0,6.3,0.2,5.9,0.7L0.7,5.9C0.2,6.3,0,6.9,0,7.5v13.1
		c0,1.1,0.9,2.1,2.1,2.1h10.2c-0.2-0.4-0.4-0.7-0.5-1.2L2.1,21.5L2.1,21.5z M6.7,1.4v4.6c0,0.5-0.2,0.7-0.7,0.7H1.4L6.7,1.4z"/>
	<path class="st0" d="M16.9,16.2c-2.2,0-3.9,1.8-3.9,3.9c0,2.2,1.8,3.9,3.9,3.9c2.2,0,3.9-1.8,3.9-3.9
		C20.9,17.9,19.1,16.2,16.9,16.2z M19.5,18.8l-2.1,2.5c-0.1,0.2-0.3,0.3-0.5,0.3c-0.2,0-0.4-0.1-0.6-0.2L15,20.3
		c-0.1-0.1-0.2-0.2-0.2-0.3c0-0.1,0-0.3,0.1-0.3l0.2-0.2c0.1-0.1,0.2-0.2,0.3-0.2c0.1,0,0.3,0,0.3,0.1l1.1,1l2.2-2
		c0.1-0.1,0.3-0.1,0.4,0C19.6,18.5,19.6,18.7,19.5,18.8z"/>
</g>
</svg>
