<?xml version="1.0" encoding="utf-8"?>
<!-- Generator: Adobe Illustrator 25.1.0, SVG Export Plug-In . SVG Version: 6.00 Build 0)  -->
<svg version="1.1" id="レイヤー_1" xmlns="http://www.w3.org/2000/svg" xmlns:xlink="http://www.w3.org/1999/xlink" x="0px"
	 y="0px" viewBox="0 0 16 16" style="enable-background:new 0 0 16 16;" xml:space="preserve">
<style type="text/css">
	.st0{fill-rule:evenodd;clip-rule:evenodd;fill:#4D4D4D;}
</style>
<g>
	<rect x="7.4" class="st0" width="1.3" height="2.4"/>
	<rect x="7.4" y="13.6" class="st0" width="1.3" height="2.4"/>
	<rect x="12.2" y="11.6" transform="matrix(0.7071 -0.7071 0.7071 0.7071 -5.3019 12.8003)" class="st0" width="1.3" height="2.4"/>
	<rect y="7.4" class="st0" width="2.4" height="1.3"/>
	<rect x="13.6" y="7.4" class="st0" width="2.4" height="1.3"/>
	<rect x="2" y="12.2" transform="matrix(0.7071 -0.7071 0.7071 0.7071 -8.1137 6.0118)" class="st0" width="2.4" height="1.3"/>
	<polygon class="st0" points="14.1,2.8 13.2,1.9 11.5,3.6 12.5,4.5 	"/>
	<polygon class="st0" points="4.4,3.6 2.7,1.9 1.7,2.8 3.4,4.5 	"/>
	<ellipse transform="matrix(0.7071 -0.7071 0.7071 0.7071 -3.3195 7.995)" class="st0" cx="8" cy="8" rx="4.6" ry="4.6"/>
</g>
</svg>
