<svg width="24" height="23" viewBox="0 0 24 23" xmlns="http://www.w3.org/2000/svg">
    <path d="M9.028 11.881a2.25 2.25 0 1 1 2.853-2.853l-2.853 2.853zm-3.361 3.362a11.414 11.414 0 0 1-3.086-3.242 11.418 11.418 0 0 1 3.781-3.694 5.989 5.989 0 0 0-.361 2.053c0 1.286.405 2.478 1.094 3.455l-1.428 1.428zM20.58.33l-4.739 4.738a13.22 13.22 0 0 0-3.841-.567C6.766 4.5 2.229 7.549 0 12a13.743 13.743 0 0 0 4.055 4.854L.33 20.58a1.124 1.124 0 1 0 1.591 1.59l20.25-20.25A1.124 1.124 0 1 0 20.582.33zm-2.58 10.03c0-.636-.1-1.25-.284-1.825l-7.542 7.542A6 6 0 0 0 18 10.36m1.452-3.562-1.625 1.625.089.056a11.41 11.41 0 0 1 3.502 3.523 11.418 11.418 0 0 1-3.502 3.522 10.982 10.982 0 0 1-8.588 1.398l-1.803 1.803c1.4.503 2.905.777 4.474.777 5.233 0 9.77-3.048 12-7.5a13.72 13.72 0 0 0-4.547-5.204" fill="#4D4D4D" fill-rule="evenodd"/>
</svg>
