<svg width="24" height="22" xmlns="http://www.w3.org/2000/svg">
    <path d="M17.464 0c3.43 0 6.143 2.692 6.488 6.33.104.632.04 1.475-.2 2.448-.499 2.018-1.648 3.85-3.327 5.307l-8.495 7.248-8.356-7.253C1.9 12.63.75 10.796.253 8.779.013 7.805-.052 6.957.04 6.426.396 2.702 3.1 0 6.54 0c2.225 0 4.228 1.136 5.396 3.047A6.514 6.514 0 0 1 17.465.001zm-5.523 18.85 7.208-6.151c1.387-1.203 2.33-2.706 2.736-4.352.186-.752.231-1.357.171-1.721l-.011-.095c-.262-2.758-2.195-4.675-4.58-4.675a4.58 4.58 0 0 0-3.886 2.15l-1.66 2.66-1.635-2.675C9.457 2.638 8.078 1.855 6.54 1.855c-2.392 0-4.32 1.926-4.598 4.807-.055.325-.009.934.178 1.686.406 1.645 1.348 3.148 2.736 4.351l7.086 6.151z" fill="#4D4D4D" fill-rule="evenodd"/>
</svg>
