<svg width="26" height="23" viewBox="0 0 26 23" xmlns="http://www.w3.org/2000/svg">
    <path d="M17.465 0c.484 0 .953.056 1.404.162A4.002 4.002 0 0 0 20 8a4.002 4.002 0 0 0 3.76-2.634c.094.391.162.798.2 1.218.028.168.14 1.055-.204 2.5-.498 2.087-1.647 3.985-3.323 5.488l-8.505 7.507-8.36-7.508C1.89 13.069.741 11.17.243 9.085-.1 7.639.012 6.75.04 6.583.39 2.768 3.12 0 6.535 0c2.239 0 4.237 1.187 5.399 3.154C13.107 1.212 15.19 0 17.465 0zm7.285 0L26 1.25l-5 5-3-3L19.25 2 21 3.75 24.75 0z" fill="#ff7683" fill-rule="evenodd"/>
</svg>
