<!-- Generated by IcoMoon.io -->
<svg version="1.1" xmlns="http://www.w3.org/2000/svg" width="32" height="32" viewBox="0 0 32 32">
<title>favorite</title>
<path d="M12.43 21.661l8.187-7.226c1.596-1.432 2.686-3.23 3.156-5.203.248-1.037.268-1.786.198-2.214l-.008-.068C23.643 3.468 21.209 1 18.193 1c-2.002 0-3.856 1.063-4.906 2.802l-.865 1.434-.852-1.442C10.53 2.034 8.768 1 6.807 1c-3.016 0-5.45 2.468-5.779 6.02-.069.422-.049 1.175.199 2.212.47 1.973 1.56 3.772 3.157 5.203l8.047 7.226z"></path>
</svg>