<svg xmlns="http://www.w3.org/2000/svg" width="30" height="30" viewBox="0 0 32 32">
<title>filter-check</title>
<path d="M5.5 19v2H0v-2h5.5zm5.5-2c.27 0 .505.099.703.297.198.197.297.432.297.703v4c0 .27-.1.505-.297.703-.198.198-.432.297-.704.297H7c-.27 0-.504-.1-.703-.297C6.098 22.505 6 22.271 6 22v-4c0-.27.099-.505.296-.703.198-.199.433-.298.704-.297h4zm2.5-6v2H0v-2h13.5zm-10-8v2H0V3h3.5zM24 19v2H12.5v-2H24zM9 1c.27 0 .505.099.704.297.198.197.297.432.296.703v4c0 .27-.099.505-.296.703C9.506 6.901 9.27 7 9 7H5c-.27 0-.505-.1-.703-.297C4.1 6.505 4 6.271 4 6V2c0-.27.1-.505.297-.703.198-.199.432-.298.704-.297h4zm10 8c.27 0 .505.099.703.297.198.197.297.432.297.703v4c0 .27-.1.505-.297.703-.198.198-.432.297-.704.297h-4c-.27 0-.504-.1-.703-.297-.198-.198-.297-.432-.296-.703v-4c0-.27.099-.505.296-.703.198-.199.433-.298.704-.297h4zm5 2v2h-3.5v-2H24zm0-8v2H10.5V3H24zM34.75 0L31 3.75 29.25 2 28 3.25 31 6.25 36 1.25z"/>
</svg>
