<?xml version="1.0" encoding="utf-8"?>
<!-- Generator: Adobe Illustrator 24.3.0, SVG Export Plug-In . SVG Version: 6.00 Build 0)  -->
<svg version="1.1" xmlns="http://www.w3.org/2000/svg" xmlns:xlink="http://www.w3.org/1999/xlink" x="0px" y="0px"
	 viewBox="0 0 54 42" style="enable-background:new 0 0 54 42;" xml:space="preserve">
<style type="text/css">
	.st0{display:none;}
	.st1{display:inline;}
	.st2{fill:#1BA1FF;}
	.st3{fill:#E4E4E4;}
</style>
<g id="b1" class="st0">
	<g class="st1">
		<path class="st2" d="M51.7,22.4l-19.4,2.8l-31.8,0c0,0.2,0,0.3,0,0.5c0,4.5,7.2,8.1,16.2,8.1c7,0,13-2.2,15.2-5.4l19.8-2.8
			c0.9,0,1.6-0.7,1.6-1.6S52.5,22.4,51.7,22.4z"/>
	</g>
	<g class="st1">
		<path class="st2" d="M14.3,38.6c0,0.9-0.7,1.7-1.5,1.7c-0.8,0-1.5-0.8-1.5-1.7c0-0.9,2.4-0.8,1.5-1.7C11.9,36,14.3,37.6,14.3,38.6
			z"/>
	</g>
	<g class="st1">
		<path class="st2" d="M24.3,38.6c0,0.9-0.7,1.7-1.5,1.7s-1.5-0.8-1.5-1.7c0-0.9,2.4-0.8,1.5-1.7S24.3,37.6,24.3,38.6z"/>
	</g>
	<g class="st1">
		<path class="st2" d="M20,38.6c0,1.4-1,2.5-2.3,2.5s-2.3-1.1-2.3-2.5s3.6-1.2,2.3-2.5S20,37.2,20,38.6z"/>
	</g>
</g>
<g id="b2" class="st0">
	<g class="st1">
		<path class="st2" d="M52.2,25.5L32.5,26L1,22c0,0.2-0.1,0.3-0.1,0.5C0.4,27,7.1,31.5,16,32.6c7,0.9,13.1-0.6,15.8-3.4l20-0.4
			c0.9,0.1,1.7-0.5,1.8-1.4S53.1,25.6,52.2,25.5z"/>
	</g>
	<g class="st1">
		<path class="st2" d="M14.5,38.8c-0.1,0.7-0.9,1.4-1.7,1.3c-0.8-0.1-1.5-0.9-1.2-1.5s2.3-0.9,1.9-1.4
			C13.1,36.6,14.6,38.1,14.5,38.8z"/>
	</g>
	<g class="st1">
		<path class="st2" d="M24.5,38.8c-0.1,0.7-0.9,1.3-1.7,1.3c-0.8,0-1.5-0.8-1.2-1.5c0.3-0.7,2.3-0.9,2-1.5
			C23.2,36.6,24.6,38,24.5,38.8z"/>
	</g>
	<g class="st1">
		<path class="st2" d="M20.8,39c-0.3,1.3-1.6,2.5-3,2.4c-1.5-0.1-2.8-1.5-2.3-2.8c0.5-1.3,4.3-1.6,3.6-2.7
			C18.3,34.9,21,37.7,20.8,39z"/>
	</g>
</g>
<g id="b3" class="st0">
	<g class="st1">
		<path class="st2" d="M52.1,29.9l-19.4-3.1L2.4,17.5c-0.1,0.2-0.1,0.3-0.2,0.5c-1.3,4.3,4.5,9.9,13.1,12.5c6.7,2.1,13,1.7,16.1-0.6
			L51.2,33c0.9,0.3,1.8-0.2,2-1.1S53,30.2,52.1,29.9z"/>
	</g>
	<g class="st1">
		<path class="st2" d="M15.2,39.1c-0.4,0.7-1.6,1.3-2.5,1.1c-0.9-0.1-1.7-1-1.2-1.7c0.5-0.7,3.6-0.8,3.4-1.5
			C14.7,36.3,15.6,38.4,15.2,39.1z"/>
	</g>
	<g class="st1">
		<path class="st2" d="M25.3,39.1c-0.4,0.7-1.6,1.3-2.5,1.2c-0.9-0.1-1.8-1-1.2-1.7c0.5-0.7,3.6-0.8,3.5-1.6S25.7,38.4,25.3,39.1z"
			/>
	</g>
	<g class="st1">
		<path class="st2" d="M21.1,39.3c-0.4,1.1-2.1,2-3.4,1.9c-1.3-0.1-2.6-1.5-1.9-2.5s4.8-1.3,4.5-2.5C20,35,21.6,38.1,21.1,39.3z"/>
	</g>
	<g class="st1">
		<g>
			<path class="st2" d="M7.1,16.8c-0.2-0.1-0.4,0-0.5,0.2l-0.5,1.4c-0.1,0.2,0,0.4,0.2,0.5l6.4,2.2l-1-2.7L7.1,16.8z"/>
			<path class="st2" d="M20.9,21.5l-4.7-1.6l-2.4,1.6l6.4,2.2c0.2,0.1,0.4,0,0.5-0.2l0.5-1.4C21.2,21.8,21.1,21.6,20.9,21.5z"/>
		</g>
		<g>
			<path class="st2" d="M17.3,26.5c-0.5-0.2-0.9-0.4-1.2-0.8c-0.4,0.1-0.9,0.1-1.4-0.1c-0.5-0.2-0.9-0.4-1.2-0.8
				c-0.4,0.1-0.9,0.1-1.4-0.1c-0.5-0.2-0.9-0.4-1.2-0.8C10.5,24,10,24,9.5,23.9c-0.5-0.2-0.9-0.4-1.2-0.8C7.9,23.2,7.4,23.1,7,23
				c-0.8-0.3-1.4-0.9-1.7-1.7c0,0,0,0,0,0C5.1,21.4,5,21.5,5,21.7l-0.5,1.5c-0.1,0.4,0.1,0.8,0.4,0.9l13.2,4.5
				c0.4,0.1,0.8-0.1,0.9-0.4l0.5-1.5c0-0.1,0-0.3,0-0.4C18.9,26.6,18.1,26.7,17.3,26.5z"/>
			<path class="st2" d="M20.2,24.7c0-0.1,0-0.3-0.2-0.3L6,19.6c-0.1,0-0.3,0-0.3,0.2l-0.2,0.5c0,0.1,0,0.2,0,0.2c0,0,0,0,0,0
				c0.2,0.7,0.8,1.4,1.7,1.7c0.5,0.2,1,0.2,1.4,0.1C9,22.6,9.3,22.9,9.8,23c0.5,0.2,1,0.2,1.4,0.1c0.3,0.3,0.7,0.6,1.2,0.8
				c0.5,0.2,0.9,0.2,1.4,0.1c0.3,0.3,0.7,0.6,1.2,0.8c0.5,0.2,1,0.2,1.4,0.1c0.3,0.3,0.7,0.6,1.2,0.8c0.8,0.3,1.6,0.2,2.2-0.2
				c0,0,0.1,0,0.1-0.1c0,0,0.1,0,0.1-0.1c0,0,0,0,0,0l0,0c0,0,0-0.1,0-0.1L20.2,24.7z"/>
		</g>
		<path class="st2" d="M22,19.8c-0.4-3.1-2.5-5.9-5.7-7c-3.2-1.1-6.6-0.2-8.8,2.1c-0.5,0.5-0.3,1.3,0.4,1.5l12.9,4.4
			C21.4,21,22,20.4,22,19.8z M11.4,14.6c-0.1,0-0.2-0.2-0.2-0.3c0-0.1,0.2-0.2,0.3-0.2c0.1,0,0.2,0.2,0.2,0.3
			C11.7,14.6,11.5,14.7,11.4,14.6z M12.2,16.6c-0.1,0-0.2-0.2-0.2-0.3c0-0.1,0.2-0.2,0.3-0.2c0.1,0,0.2,0.2,0.2,0.3
			C12.5,16.6,12.4,16.6,12.2,16.6z M13.3,13.4c-0.1,0-0.2-0.2-0.2-0.3c0-0.1,0.2-0.2,0.3-0.2c0.1,0,0.2,0.2,0.2,0.3
			C13.6,13.4,13.5,13.5,13.3,13.4z M13.9,15.5c-0.1,0-0.2-0.2-0.2-0.3c0-0.1,0.2-0.2,0.3-0.2c0.1,0,0.2,0.2,0.2,0.3
			C14.2,15.4,14,15.5,13.9,15.5z M14.6,17.3c-0.1,0-0.2-0.2-0.2-0.3c0-0.1,0.2-0.2,0.3-0.2c0.1,0,0.2,0.2,0.2,0.3
			C14.9,17.3,14.8,17.3,14.6,17.3z M15.7,14.1c-0.1,0-0.2-0.2-0.2-0.3c0-0.1,0.2-0.2,0.3-0.2c0.1,0,0.2,0.2,0.2,0.3
			C16,14.1,15.9,14.2,15.7,14.1z M16.3,16.3c-0.1,0-0.2-0.2-0.2-0.3c0-0.1,0.2-0.2,0.3-0.2c0.1,0,0.2,0.2,0.2,0.3
			C16.6,16.3,16.4,16.3,16.3,16.3z M17,18.2c-0.1,0-0.2-0.2-0.2-0.3c0-0.1,0.2-0.2,0.3-0.2c0.1,0,0.2,0.2,0.2,0.3
			C17.3,18.2,17.1,18.2,17,18.2z M18,15c-0.1,0-0.2-0.2-0.2-0.3c0-0.1,0.2-0.2,0.3-0.2c0.1,0,0.2,0.2,0.2,0.3
			C18.3,15,18.2,15.1,18,15z M19.4,17.3c-0.1,0-0.2-0.2-0.2-0.3c0-0.1,0.2-0.2,0.3-0.2c0.1,0,0.2,0.2,0.2,0.3
			C19.7,17.3,19.5,17.4,19.4,17.3z"/>
	</g>
</g>
<g id="b4" class="st0">
	<g class="st1">
		<path class="st2" d="M50.6,35l-18.3-7L4.6,12.4c-0.1,0.1-0.2,0.3-0.3,0.4c-2.2,3.9,2.4,10.6,10.2,15c6.1,3.4,12.4,4.4,15.9,2.8
			L49,37.8c0.8,0.4,1.8,0.2,2.2-0.6C51.7,36.4,51.4,35.4,50.6,35z"/>
	</g>
	<g class="st1">
		<path class="st2" d="M15.6,39.3c-0.5,0.6-2.1,1-2.8,0.8s-1.7-0.9-1-1.5s4-0.4,4.2-1.2C16.3,36.5,16.1,38.7,15.6,39.3z"/>
	</g>
	<g class="st1">
		<path class="st2" d="M25.5,39.4c-0.5,0.5-1.9,0.8-2.7,0.7c-0.7-0.1-1.7-0.9-1-1.5c0.7-0.6,3.7-0.3,4-1.1
			C26.1,36.6,25.9,38.9,25.5,39.4z"/>
	</g>
	<g class="st1">
		<path class="st2" d="M22.3,39.9c-0.8,1.1-3.2,1.8-4.6,1.5s-3.2-1.6-2-2.7c1.3-1.2,6.5-0.8,6.9-2.3S23,38.8,22.3,39.9z"/>
	</g>
	<g class="st1">
		<g>
			<path class="st2" d="M13.9,4.7c-0.1-0.2-0.4-0.2-0.5,0l-1.1,1.1c-0.2,0.1-0.2,0.4,0,0.5l4.7,4.9l0.4-2.9L13.9,4.7z"/>
			<path class="st2" d="M24,15.2l-3.4-3.6L17.6,12l4.7,4.9c0.1,0.2,0.4,0.2,0.5,0l1.1-1.1C24.1,15.6,24.1,15.4,24,15.2z"/>
		</g>
		<g>
			<path class="st2" d="M18.4,18c-0.4-0.4-0.6-0.8-0.7-1.2c-0.4-0.1-0.9-0.4-1.2-0.7c-0.3-0.4-0.6-0.8-0.7-1.2
				c-0.4-0.1-0.8-0.4-1.2-0.7c-0.4-0.4-0.6-0.8-0.7-1.2c-0.4-0.1-0.9-0.4-1.2-0.7s-0.6-0.8-0.7-1.2c-0.4-0.1-0.9-0.4-1.2-0.7
				c-0.6-0.6-0.9-1.5-0.7-2.2c0,0,0,0,0,0C10,7.9,9.8,8,9.7,8.1L8.5,9.2c-0.3,0.3-0.3,0.7,0,1l9.7,10.1c0.3,0.3,0.7,0.3,1,0l1.2-1.1
				c0.1-0.1,0.2-0.2,0.2-0.4C19.8,18.9,19,18.6,18.4,18z"/>
			<path class="st2" d="M21.9,17.8c0.1-0.1,0.1-0.3,0-0.4L11.6,6.7c-0.1-0.1-0.3-0.1-0.4,0l-0.4,0.4c-0.1,0.1-0.1,0.1-0.1,0.2
				c0,0,0,0,0,0c-0.1,0.8,0.1,1.6,0.7,2.2c0.4,0.4,0.8,0.6,1.2,0.7c0.1,0.4,0.3,0.9,0.7,1.2c0.3,0.4,0.8,0.6,1.2,0.7
				c0.1,0.4,0.3,0.9,0.7,1.2c0.3,0.4,0.8,0.6,1.2,0.7c0.1,0.4,0.3,0.8,0.7,1.2c0.3,0.4,0.8,0.6,1.2,0.7c0.1,0.4,0.3,0.9,0.7,1.2
				c0.6,0.6,1.4,0.9,2.1,0.8c0,0,0.1,0,0.1,0c0,0,0.1,0,0.1,0c0,0,0,0,0,0l0,0c0,0,0.1,0,0.1-0.1L21.9,17.8z"/>
		</g>
		<path class="st2" d="M25.7,14.2c1.1-3,0.5-6.4-1.8-8.8c-2.3-2.4-5.8-3.2-8.8-2.2c-0.6,0.2-0.8,1-0.4,1.5l9.5,9.9
			C24.7,15,25.5,14.8,25.7,14.2z M18.6,4.7c-0.1-0.1-0.1-0.3,0-0.4c0.1-0.1,0.3-0.1,0.4,0c0.1,0.1,0.1,0.3,0,0.4
			C18.9,4.9,18.7,4.9,18.6,4.7z M18.5,6.9c-0.1-0.1-0.1-0.3,0-0.4c0.1-0.1,0.3-0.1,0.4,0c0.1,0.1,0.1,0.3,0,0.4
			C18.8,7,18.6,7,18.5,6.9z M20.9,4.6c-0.1-0.1-0.1-0.3,0-0.4c0.1-0.1,0.3-0.1,0.4,0c0.1,0.1,0.1,0.3,0,0.4
			C21.2,4.7,21,4.7,20.9,4.6z M20.5,6.7c-0.1-0.1-0.1-0.3,0-0.4c0.1-0.1,0.3-0.1,0.4,0c0.1,0.1,0.1,0.3,0,0.4
			C20.8,6.8,20.6,6.8,20.5,6.7z M20.3,8.6c-0.1-0.1-0.1-0.3,0-0.4c0.1-0.1,0.3-0.1,0.4,0c0.1,0.1,0.1,0.3,0,0.4
			C20.6,8.8,20.4,8.7,20.3,8.6z M22.7,6.3c-0.1-0.1-0.1-0.3,0-0.4c0.1-0.1,0.3-0.1,0.4,0c0.1,0.1,0.1,0.3,0,0.4
			C23,6.4,22.8,6.4,22.7,6.3z M22.3,8.5c-0.1-0.1-0.1-0.3,0-0.4c0.1-0.1,0.3-0.1,0.4,0c0.1,0.1,0.1,0.3,0,0.4
			C22.5,8.6,22.4,8.6,22.3,8.5z M22,10.5c-0.1-0.1-0.1-0.3,0-0.4c0.1-0.1,0.3-0.1,0.4,0c0.1,0.1,0.1,0.3,0,0.4
			C22.3,10.6,22.1,10.6,22,10.5z M24.4,8.2c-0.1-0.1-0.1-0.3,0-0.4c0.1-0.1,0.3-0.1,0.4,0c0.1,0.1,0.1,0.3,0,0.4
			C24.7,8.3,24.5,8.3,24.4,8.2z M24.5,10.8c-0.1-0.1-0.1-0.3,0-0.4c0.1-0.1,0.3-0.1,0.4,0c0.1,0.1,0.1,0.3,0,0.4
			C24.8,11,24.6,11,24.5,10.8z"/>
	</g>
</g>
<g id="b5" class="st0">
	<g class="st1">
		<path class="st2" d="M52.1,29.9l-19.4-3.1L2.4,17.5c-0.1,0.2-0.1,0.3-0.2,0.5c-1.3,4.3,4.5,9.9,13.1,12.5c6.7,2.1,13,1.7,16.1-0.6
			L51.2,33c0.9,0.3,1.8-0.2,2-1.1S53,30.2,52.1,29.9z"/>
	</g>
	<g class="st1">
		<path class="st2" d="M15.2,39.1c-0.4,0.7-1.6,1.3-2.5,1.1c-0.9-0.1-1.7-1-1.2-1.7c0.5-0.7,3.6-0.8,3.4-1.5
			C14.7,36.3,15.6,38.4,15.2,39.1z"/>
	</g>
	<g class="st1">
		<path class="st2" d="M25.3,39.1c-0.4,0.7-1.6,1.3-2.5,1.2c-0.9-0.1-1.8-1-1.2-1.7c0.5-0.7,3.6-0.8,3.5-1.6S25.7,38.4,25.3,39.1z"
			/>
	</g>
	<g class="st1">
		<path class="st2" d="M21.1,39.3c-0.4,1.1-2.1,2-3.4,1.9c-1.3-0.1-2.6-1.5-1.9-2.5s4.8-1.3,4.5-2.5C20,35,21.6,38.1,21.1,39.3z"/>
	</g>
	<g class="st1">
		<g>
			<path class="st2" d="M27.1,1.4c0-0.2-0.2-0.4-0.4-0.4l-1.5,0c-0.2,0-0.4,0.2-0.4,0.4L25,8.2l2.3-1.8L27.1,1.4z"/>
			<path class="st2" d="M27.4,16L27.3,11L25,9.3l0.1,6.7c0,0.2,0.2,0.4,0.4,0.4l1.5,0C27.3,16.3,27.4,16.2,27.4,16z"/>
		</g>
		<g>
			<path class="st2" d="M21.5,14.3c0-0.5,0.1-1,0.3-1.4c-0.2-0.4-0.4-0.9-0.4-1.4c0-0.5,0.1-1,0.3-1.3c-0.2-0.4-0.4-0.8-0.4-1.3
				c0-0.5,0.1-1,0.3-1.4c-0.2-0.4-0.4-0.9-0.4-1.4c0-0.5,0.1-1,0.3-1.4c-0.2-0.4-0.4-0.9-0.4-1.4c0-0.9,0.4-1.7,1-2.1c0,0,0,0,0,0
				C22.1,1.1,22,1,21.8,1.1l-1.6,0c-0.4,0-0.7,0.3-0.7,0.7l0.3,14c0,0.4,0.3,0.7,0.7,0.7l1.6,0c0.1,0,0.3-0.1,0.4-0.1
				C21.9,15.8,21.5,15.1,21.5,14.3z"/>
			<path class="st2" d="M24.2,16.4c0.1,0,0.3-0.1,0.3-0.3L24.1,1.3c0-0.1-0.1-0.3-0.3-0.3l-0.5,0c-0.1,0-0.2,0-0.2,0.1c0,0,0,0,0,0
				c-0.6,0.5-1,1.3-1,2.1c0,0.5,0.2,1,0.4,1.4c-0.2,0.4-0.3,0.9-0.3,1.4c0,0.5,0.2,1,0.4,1.4c-0.2,0.4-0.3,0.9-0.3,1.4
				c0,0.5,0.1,0.9,0.4,1.3c-0.2,0.4-0.3,0.9-0.3,1.3c0,0.5,0.2,1,0.4,1.4c-0.2,0.4-0.3,0.9-0.3,1.4c0,0.8,0.4,1.6,1,2
				c0,0,0.1,0.1,0.1,0.1c0,0,0.1,0.1,0.1,0.1c0,0,0,0,0,0l0,0c0,0,0.1,0,0.1,0L24.2,16.4z"/>
		</g>
		<path class="st2" d="M29.4,16.4c2.8-1.4,4.7-4.4,4.6-7.7s-2.1-6.2-5-7.5c-0.6-0.3-1.3,0.2-1.3,0.8l0.3,13.7
			C28.1,16.3,28.8,16.7,29.4,16.4z M30.6,4.6c0-0.1,0.1-0.3,0.3-0.3c0.1,0,0.3,0.1,0.3,0.3c0,0.1-0.1,0.3-0.3,0.3
			C30.8,4.9,30.6,4.8,30.6,4.6z M29.1,6.1c0-0.1,0.1-0.3,0.3-0.3c0.1,0,0.3,0.1,0.3,0.3c0,0.1-0.1,0.3-0.3,0.3
			C29.2,6.4,29.1,6.3,29.1,6.1z M32.4,6.1c0-0.1,0.1-0.3,0.3-0.3c0.1,0,0.3,0.1,0.3,0.3c0,0.1-0.1,0.3-0.3,0.3
			C32.5,6.3,32.4,6.2,32.4,6.1z M30.7,7.3c0-0.1,0.1-0.3,0.3-0.3c0.1,0,0.3,0.1,0.3,0.3c0,0.1-0.1,0.3-0.3,0.3
			C30.8,7.6,30.7,7.4,30.7,7.3z M29.2,8.6c0-0.1,0.1-0.3,0.3-0.3c0.1,0,0.3,0.1,0.3,0.3c0,0.1-0.1,0.3-0.3,0.3
			C29.4,8.9,29.2,8.8,29.2,8.6z M32.6,8.6c0-0.1,0.1-0.3,0.3-0.3c0.1,0,0.3,0.1,0.3,0.3c0,0.1-0.1,0.3-0.3,0.3
			C32.7,8.8,32.6,8.7,32.6,8.6z M30.7,9.9c0-0.1,0.1-0.3,0.3-0.3c0.1,0,0.3,0.1,0.3,0.3c0,0.1-0.1,0.3-0.3,0.3
			C30.9,10.1,30.7,10,30.7,9.9z M29.2,11.1c0-0.1,0.1-0.3,0.3-0.3c0.1,0,0.3,0.1,0.3,0.3c0,0.1-0.1,0.3-0.3,0.3
			C29.3,11.4,29.2,11.3,29.2,11.1z M32.5,11.1c0-0.1,0.1-0.3,0.3-0.3c0.1,0,0.3,0.1,0.3,0.3c0,0.1-0.1,0.3-0.3,0.3
			C32.6,11.3,32.5,11.2,32.5,11.1z M30.8,13.1c0-0.1,0.1-0.3,0.3-0.3c0.1,0,0.3,0.1,0.3,0.3c0,0.1-0.1,0.3-0.3,0.3
			C30.9,13.4,30.8,13.2,30.8,13.1z"/>
	</g>
</g>
<g id="b6" class="st0">
	<g class="st1">
		<path class="st2" d="M52.2,25.5L32.5,26L1,22c0,0.2-0.1,0.3-0.1,0.5C0.4,27,7.1,31.5,16,32.6c7,0.9,13.1-0.6,15.8-3.4l20-0.4
			c0.9,0.1,1.7-0.5,1.8-1.4S53.1,25.6,52.2,25.5z"/>
	</g>
	<g class="st1">
		<path class="st2" d="M14.5,38.8c-0.1,0.7-0.9,1.4-1.7,1.3c-0.8-0.1-1.5-0.9-1.2-1.5s2.3-0.9,1.9-1.4
			C13.1,36.6,14.6,38.1,14.5,38.8z"/>
	</g>
	<g class="st1">
		<path class="st2" d="M24.5,38.8c-0.1,0.7-0.9,1.3-1.7,1.3c-0.8,0-1.5-0.8-1.2-1.5c0.3-0.7,2.3-0.9,2-1.5
			C23.2,36.6,24.6,38,24.5,38.8z"/>
	</g>
	<g class="st1">
		<path class="st2" d="M20.8,39c-0.3,1.3-1.6,2.5-3,2.4c-1.5-0.1-2.8-1.5-2.3-2.8c0.5-1.3,4.3-1.6,3.6-2.7
			C18.3,34.9,21,37.7,20.8,39z"/>
	</g>
	<g class="st1">
		<g>
			<path class="st2" d="M35.1,7.4C35.2,7.2,35.1,7,35,6.9l-1.3-0.8c-0.2-0.1-0.4-0.1-0.5,0.1l-3.6,5.7l2.9-0.3L35.1,7.4z"/>
			<path class="st2" d="M27.2,19.7l2.7-4.2l-1-2.8l-3.6,5.7c-0.1,0.2-0.1,0.4,0.1,0.5l1.3,0.8C26.9,19.9,27.1,19.8,27.2,19.7z"/>
		</g>
		<g>
			<path class="st2" d="M23.3,14.9c0.3-0.4,0.6-0.7,1-1c0-0.5,0.2-0.9,0.4-1.3c0.3-0.4,0.6-0.7,1-0.9c0-0.4,0.2-0.9,0.4-1.3
				c0.3-0.4,0.6-0.7,1-1c0-0.5,0.2-0.9,0.4-1.3c0.3-0.4,0.6-0.7,1-1c0-0.5,0.2-0.9,0.4-1.3c0.5-0.8,1.2-1.2,2-1.2c0,0,0,0,0,0
				c0-0.2-0.1-0.3-0.3-0.4l-1.4-0.9c-0.3-0.2-0.8-0.1-1,0.2L21,15.2c-0.2,0.3-0.1,0.8,0.2,1l1.4,0.9c0.1,0.1,0.3,0.1,0.4,0.1
				C22.7,16.5,22.8,15.7,23.3,14.9z"/>
			<path class="st2" d="M24.3,18.2c0.1,0.1,0.3,0,0.4-0.1l8-12.5c0.1-0.1,0-0.3-0.1-0.4L32.1,5c-0.1,0-0.2,0-0.2,0c0,0,0,0,0,0
				c-0.8,0.1-1.5,0.5-2,1.2c-0.3,0.4-0.4,0.9-0.4,1.3c-0.4,0.2-0.8,0.5-1,1C28.1,9,28,9.4,27.9,9.9c-0.4,0.2-0.8,0.5-1,1
				c-0.3,0.4-0.4,0.9-0.4,1.3c-0.4,0.2-0.7,0.5-1,0.9c-0.3,0.4-0.4,0.9-0.4,1.3c-0.4,0.2-0.8,0.5-1,1c-0.5,0.7-0.5,1.5-0.3,2.2
				c0,0,0,0.1,0,0.1c0,0,0,0.1,0,0.1c0,0,0,0,0,0l0,0c0,0,0,0,0.1,0.1L24.3,18.2z"/>
		</g>
		<path class="st2" d="M28.6,21.1c3.1,0.4,6.3-1,8.2-3.9c1.8-2.8,1.7-6.3,0.1-9c-0.3-0.6-1.2-0.6-1.5,0L28,19.7
			C27.6,20.3,28,21,28.6,21.1z M36.2,12.1c0.1-0.1,0.2-0.2,0.4-0.1c0.1,0.1,0.2,0.2,0.1,0.4c-0.1,0.1-0.2,0.2-0.4,0.1
			C36.1,12.3,36.1,12.2,36.2,12.1z M34.1,12.4c0.1-0.1,0.2-0.2,0.4-0.1c0.1,0.1,0.2,0.2,0.1,0.4c-0.1,0.1-0.2,0.2-0.4,0.1
			C34,12.7,34,12.6,34.1,12.4z M36.9,14.2c0.1-0.1,0.2-0.2,0.4-0.1c0.1,0.1,0.2,0.2,0.1,0.4c-0.1,0.1-0.2,0.2-0.4,0.1
			C36.8,14.5,36.8,14.4,36.9,14.2z M34.8,14.3c0.1-0.1,0.2-0.2,0.4-0.1c0.1,0.1,0.2,0.2,0.1,0.4c-0.1,0.1-0.2,0.2-0.4,0.1
			C34.7,14.6,34.7,14.4,34.8,14.3z M32.8,14.6c0.1-0.1,0.2-0.2,0.4-0.1c0.1,0.1,0.2,0.2,0.1,0.4C33.2,15,33,15.1,32.9,15
			C32.8,14.9,32.7,14.7,32.8,14.6z M35.6,16.4c0.1-0.1,0.2-0.2,0.4-0.1c0.1,0.1,0.2,0.2,0.1,0.4c-0.1,0.1-0.2,0.2-0.4,0.1
			C35.6,16.7,35.5,16.5,35.6,16.4z M33.4,16.5c0.1-0.1,0.2-0.2,0.4-0.1c0.1,0.1,0.2,0.2,0.1,0.4c-0.1,0.1-0.2,0.2-0.4,0.1
			C33.3,16.7,33.3,16.6,33.4,16.5z M31.4,16.7c0.1-0.1,0.2-0.2,0.4-0.1c0.1,0.1,0.2,0.2,0.1,0.4c-0.1,0.1-0.2,0.2-0.4,0.1
			C31.3,16.9,31.3,16.8,31.4,16.7z M34.2,18.4c0.1-0.1,0.2-0.2,0.4-0.1c0.1,0.1,0.2,0.2,0.1,0.4c-0.1,0.1-0.2,0.2-0.4,0.1
			C34.1,18.7,34.1,18.6,34.2,18.4z M31.6,19.2c0.1-0.1,0.2-0.2,0.4-0.1c0.1,0.1,0.2,0.2,0.1,0.4c-0.1,0.1-0.2,0.2-0.4,0.1
			C31.6,19.5,31.5,19.3,31.6,19.2z"/>
	</g>
</g>
<g id="b7" class="st0">
	<g class="st1">
		<path class="st2" d="M51.7,22.4l-19.4,2.8l-31.8,0c0,0.2,0,0.3,0,0.5c0,4.5,7.2,8.1,16.2,8.1c7,0,13-2.2,15.2-5.4l19.8-2.8
			c0.9,0,1.6-0.7,1.6-1.6S52.5,22.4,51.7,22.4z"/>
	</g>
	<g class="st1">
		<path class="st2" d="M14.3,38.6c0,0.9-0.7,1.7-1.5,1.7c-0.8,0-1.5-0.8-1.5-1.7c0-0.9,2.4-0.8,1.5-1.7C11.9,36,14.3,37.6,14.3,38.6
			z"/>
	</g>
	<g class="st1">
		<path class="st2" d="M24.3,38.6c0,0.9-0.7,1.7-1.5,1.7s-1.5-0.8-1.5-1.7c0-0.9,2.4-0.8,1.5-1.7S24.3,37.6,24.3,38.6z"/>
	</g>
	<g class="st1">
		<path class="st2" d="M20,38.6c0,1.4-1,2.5-2.3,2.5s-2.3-1.1-2.3-2.5s3.6-1.2,2.3-2.5S20,37.2,20,38.6z"/>
	</g>
	<g class="st1">
		<g>
			<path class="st2" d="M33.2,15.5c0.2-0.1,0.3-0.3,0.3-0.5l-0.4-1.5c-0.1-0.2-0.3-0.3-0.5-0.3l-6.4,2l2.4,1.7L33.2,15.5z"/>
			<path class="st2" d="M19.3,19.8l4.7-1.5l1-2.7l-6.4,2c-0.2,0.1-0.3,0.3-0.3,0.5l0.4,1.5C18.9,19.8,19.1,19.9,19.3,19.8z"/>
		</g>
		<g>
			<path class="st2" d="M19.4,13.7c0.5-0.1,1-0.2,1.4-0.1c0.3-0.3,0.7-0.6,1.2-0.7c0.5-0.1,0.9-0.2,1.4-0.1c0.3-0.3,0.7-0.6,1.2-0.7
				c0.5-0.1,1-0.2,1.4-0.1c0.3-0.3,0.7-0.6,1.2-0.7c0.5-0.1,1-0.2,1.4-0.1c0.3-0.3,0.7-0.6,1.2-0.7c0.9-0.3,1.7-0.1,2.3,0.4
				c0,0,0,0,0,0c0.1-0.2,0.1-0.3,0-0.5l-0.5-1.5c-0.1-0.4-0.5-0.6-0.9-0.5l-13.3,4.1c-0.4,0.1-0.6,0.5-0.5,0.9l0.5,1.5
				c0,0.1,0.1,0.2,0.2,0.3C18,14.5,18.6,13.9,19.4,13.7z"/>
			<path class="st2" d="M18,16.8c0,0.1,0.2,0.2,0.3,0.2l14.2-4.3c0.1,0,0.2-0.2,0.2-0.3l-0.2-0.5c0-0.1-0.1-0.1-0.2-0.2c0,0,0,0,0,0
				c-0.6-0.5-1.5-0.6-2.3-0.4c-0.5,0.1-0.9,0.4-1.2,0.7c-0.4-0.1-0.9-0.1-1.4,0.1c-0.5,0.1-0.9,0.4-1.2,0.7
				c-0.4-0.1-0.9-0.1-1.4,0.1c-0.5,0.1-0.9,0.4-1.2,0.7c-0.4-0.1-0.9-0.1-1.4,0.1c-0.5,0.1-0.9,0.4-1.2,0.7
				c-0.4-0.1-0.9-0.1-1.4,0.1c-0.8,0.2-1.4,0.8-1.7,1.5c0,0,0,0.1-0.1,0.1c0,0,0,0.1,0,0.1c0,0,0,0,0,0l0,0c0,0,0,0.1,0,0.1L18,16.8
				z"/>
		</g>
		<path class="st2" d="M19.5,21.8c2.1,2.3,5.5,3.3,8.7,2.3c3.2-1,5.4-3.7,5.9-6.8c0.1-0.6-0.5-1.2-1.1-1l-13.1,4
			C19.2,20.6,19,21.4,19.5,21.8z M31.1,19.8c0.1,0,0.3,0,0.3,0.2c0,0.1,0,0.3-0.2,0.3c-0.1,0-0.3,0-0.3-0.2
			C30.9,20,30.9,19.9,31.1,19.8z M29.2,18.7c0.1,0,0.3,0,0.3,0.2c0,0.1,0,0.3-0.2,0.3c-0.1,0-0.3,0-0.3-0.2
			C29,18.9,29.1,18.8,29.2,18.7z M30.2,21.9c0.1,0,0.3,0,0.3,0.2c0,0.1,0,0.3-0.2,0.3c-0.1,0-0.3,0-0.3-0.2
			C30,22.1,30.1,22,30.2,21.9z M28.6,20.6c0.1,0,0.3,0,0.3,0.2c0,0.1,0,0.3-0.2,0.3c-0.1,0-0.3,0-0.3-0.2
			C28.3,20.8,28.4,20.6,28.6,20.6z M26.9,19.6c0.1,0,0.3,0,0.3,0.2c0,0.1,0,0.3-0.2,0.3c-0.1,0-0.3,0-0.3-0.2
			C26.6,19.8,26.7,19.6,26.9,19.6z M27.8,22.7c0.1,0,0.3,0,0.3,0.2c0,0.1,0,0.3-0.2,0.3c-0.1,0-0.3,0-0.3-0.2
			C27.6,22.9,27.7,22.8,27.8,22.7z M26.1,21.4c0.1,0,0.3,0,0.3,0.2c0,0.1,0,0.3-0.2,0.3c-0.1,0-0.3,0-0.3-0.2
			C25.9,21.5,26,21.4,26.1,21.4z M24.4,20.2c0.1,0,0.3,0,0.3,0.2c0,0.1,0,0.3-0.2,0.3c-0.1,0-0.3,0-0.3-0.2
			C24.2,20.4,24.3,20.3,24.4,20.2z M25.4,23.4c0.1,0,0.3,0,0.3,0.2c0,0.1,0,0.3-0.2,0.3c-0.1,0-0.3,0-0.3-0.2
			C25.2,23.6,25.3,23.4,25.4,23.4z M23,22.3c0.1,0,0.3,0,0.3,0.2c0,0.1,0,0.3-0.2,0.3c-0.1,0-0.3,0-0.3-0.2
			C22.8,22.5,22.9,22.3,23,22.3z"/>
	</g>
</g>
<g id="b8" class="st0">
	<g class="st1">
		<path class="st2" d="M51.7,22.4l-19.4,2.8l-31.8,0c0,0.2,0,0.3,0,0.5c0,4.5,7.2,8.1,16.2,8.1c7,0,13-2.2,15.2-5.4l19.8-2.8
			c0.9,0,1.6-0.7,1.6-1.6S52.5,22.4,51.7,22.4z"/>
	</g>
	<g class="st1">
		<path class="st2" d="M13.9,38.3c0.2,0.6-0.2,1.8-1.1,1.9c-0.9,0.1-1.5-0.8-1.6-1.5c-0.1-0.8,1.4-1.2,0.8-1.7
			C11.5,36.4,13.7,37.7,13.9,38.3z"/>
	</g>
	<g class="st1">
		<path class="st2" d="M23.9,38.3c0.2,0.6-0.1,1.8-1,1.9c-0.9,0.1-1.5-0.8-1.6-1.6c-0.1-0.7,1.3-1.2,0.7-1.7S23.7,37.7,23.9,38.3z"
			/>
	</g>
	<g class="st1">
		<path class="st2" d="M19.4,38.2c0.3,1-0.3,2.7-1.6,2.9s-2.2-1.3-2.3-2.3c-0.1-1.1,2-1.8,1.2-2.6S19.1,37.3,19.4,38.2z"/>
	</g>
	<g class="st1">
		<g>
			<path class="st2" d="M27.2,30.3c0.2,0.1,0.4,0,0.5-0.2l0.7-1.3c0.1-0.2,0-0.4-0.2-0.5L22.4,25l0.5,2.9L27.2,30.3z"/>
			<path class="st2" d="M14.4,23.3l4.3,2.4l2.7-1.2l-5.9-3.2c-0.2-0.1-0.4,0-0.5,0.2l-0.7,1.3C14.2,23,14.2,23.2,14.4,23.3z"/>
		</g>
		<g>
			<path class="st2" d="M18.8,19c0.4,0.2,0.8,0.6,1,1c0.5,0,0.9,0.1,1.4,0.3c0.4,0.2,0.8,0.6,1,0.9c0.4,0,0.9,0.1,1.3,0.3
				c0.4,0.2,0.8,0.6,1,1c0.5,0,0.9,0.1,1.4,0.3c0.4,0.2,0.8,0.6,1,1c0.5,0,0.9,0.1,1.4,0.3c0.8,0.4,1.3,1.2,1.4,1.9c0,0,0,0,0,0
				c0.2-0.1,0.3-0.2,0.4-0.3l0.8-1.4c0.2-0.3,0.1-0.8-0.3-1l-12.3-6.7c-0.3-0.2-0.8-0.1-1,0.3l-0.8,1.4c-0.1,0.1-0.1,0.3-0.1,0.4
				C17.3,18.6,18.1,18.6,18.8,19z"/>
			<path class="st2" d="M15.6,20.3c-0.1,0.1,0,0.3,0.1,0.4l13,7.1c0.1,0.1,0.3,0,0.4-0.1l0.3-0.5c0-0.1,0-0.2,0-0.2c0,0,0,0,0,0
				c-0.1-0.8-0.6-1.5-1.4-1.9c-0.4-0.2-0.9-0.3-1.4-0.3c-0.2-0.4-0.6-0.7-1-1c-0.4-0.2-0.9-0.3-1.4-0.3c-0.2-0.4-0.6-0.7-1-1
				c-0.4-0.2-0.9-0.3-1.3-0.3c-0.2-0.4-0.6-0.7-1-0.9c-0.4-0.2-0.9-0.3-1.4-0.3c-0.2-0.4-0.6-0.7-1-1c-0.7-0.4-1.6-0.4-2.2-0.1
				c0,0-0.1,0-0.1,0.1c0,0-0.1,0-0.1,0.1c0,0,0,0,0,0l0,0c0,0,0,0-0.1,0.1L15.6,20.3z"/>
		</g>
		<path class="st2" d="M13.1,24.8c-0.1,3.1,1.5,6.3,4.4,7.9s6.4,1.3,9-0.6c0.5-0.4,0.5-1.2-0.1-1.5l-12-6.5
			C13.8,23.8,13.1,24.2,13.1,24.8z M22.7,31.7c0.1,0.1,0.2,0.2,0.1,0.4c-0.1,0.1-0.2,0.2-0.4,0.1c-0.1-0.1-0.2-0.2-0.1-0.4
			C22.4,31.7,22.5,31.6,22.7,31.7z M22.1,29.6c0.1,0.1,0.2,0.2,0.1,0.4c-0.1,0.1-0.2,0.2-0.4,0.1c-0.1-0.1-0.2-0.2-0.1-0.4
			C21.8,29.6,22,29.6,22.1,29.6z M20.5,32.6c0.1,0.1,0.2,0.2,0.1,0.4c-0.1,0.1-0.2,0.2-0.4,0.1c-0.1-0.1-0.2-0.2-0.1-0.4
			C20.2,32.5,20.4,32.5,20.5,32.6z M20.3,30.5c0.1,0.1,0.2,0.2,0.1,0.4c-0.1,0.1-0.2,0.2-0.4,0.1c-0.1-0.1-0.2-0.2-0.1-0.4
			C20,30.4,20.2,30.4,20.3,30.5z M19.9,28.5c0.1,0.1,0.2,0.2,0.1,0.4c-0.1,0.1-0.2,0.2-0.4,0.1c-0.1-0.1-0.2-0.2-0.1-0.4
			C19.6,28.5,19.7,28.5,19.9,28.5z M18.3,31.4c0.1,0.1,0.2,0.2,0.1,0.4c-0.1,0.1-0.2,0.2-0.4,0.1c-0.1-0.1-0.2-0.2-0.1-0.4
			C18,31.4,18.2,31.4,18.3,31.4z M18.1,29.2c0.1,0.1,0.2,0.2,0.1,0.4c-0.1,0.1-0.2,0.2-0.4,0.1c-0.1-0.1-0.2-0.2-0.1-0.4
			C17.8,29.2,17.9,29.2,18.1,29.2z M17.7,27.2c0.1,0.1,0.2,0.2,0.1,0.4c-0.1,0.1-0.2,0.2-0.4,0.1c-0.1-0.1-0.2-0.2-0.1-0.4
			C17.4,27.2,17.6,27.2,17.7,27.2z M16.1,30.2c0.1,0.1,0.2,0.2,0.1,0.4c-0.1,0.1-0.2,0.2-0.4,0.1c-0.1-0.1-0.2-0.2-0.1-0.4
			C15.8,30.1,16,30.1,16.1,30.2z M15.2,27.7c0.1,0.1,0.2,0.2,0.1,0.4c-0.1,0.1-0.2,0.2-0.4,0.1c-0.1-0.1-0.2-0.2-0.1-0.4
			C14.9,27.7,15.1,27.6,15.2,27.7z"/>
	</g>
</g>
<g id="b9" class="st0">
	<g class="st1">
		<path class="st2" d="M51.7,22.4l-19.4,2.8l-31.8,0c0,0.2,0,0.3,0,0.5c0,4.5,7.2,8.1,16.2,8.1c7,0,13-2.2,15.2-5.4l19.8-2.8
			c0.9,0,1.6-0.7,1.6-1.6S52.5,22.4,51.7,22.4z"/>
	</g>
	<g class="st1">
		<path class="st2" d="M13.5,38.1c0.3,0.5,0.3,1.8-0.6,2c-0.8,0.3-1.5-0.8-1.7-1.4c-0.2-0.6,0.4-1.4,0.1-1.7
			C11.1,36.9,13.1,37.5,13.5,38.1z"/>
	</g>
	<g class="st1">
		<path class="st2" d="M23.2,37.9c0.5,0.6,0.5,1.9-0.3,2.2c-0.8,0.3-1.3-0.8-1.7-1.4s0.3-1.2-0.4-1.7S22.6,37.3,23.2,37.9z"/>
	</g>
	<g class="st1">
		<path class="st2" d="M18.6,37.8c0.7,1,0.4,2.9-0.8,3.2c-1.2,0.4-2-1.2-2.4-2.1c-0.4-0.9,0.8-1.8-0.1-2.6
			C14.5,35.6,17.9,36.8,18.6,37.8z"/>
	</g>
	<g class="st1">
		<g>
			<path class="st2" d="M14.1,32.8c0,0.2,0.2,0.3,0.5,0.3l1.5-0.3c0.2,0,0.3-0.2,0.3-0.5l-1.5-6.6L13,28L14.1,32.8z"/>
			<path class="st2" d="M10.9,18.6l1.1,4.8l2.6,1.3l-1.5-6.6c0-0.2-0.2-0.3-0.5-0.3l-1.5,0.3C11,18.2,10.9,18.4,10.9,18.6z"/>
		</g>
		<g>
			<path class="st2" d="M17.1,19.1c0.1,0.5,0.1,1-0.1,1.4c0.3,0.3,0.5,0.8,0.6,1.3c0.1,0.5,0.1,1,0,1.4c0.3,0.3,0.5,0.8,0.6,1.2
				c0.1,0.5,0.1,1-0.1,1.4c0.3,0.3,0.5,0.8,0.6,1.3c0.1,0.5,0.1,1-0.1,1.4c0.3,0.3,0.5,0.8,0.6,1.3c0.2,0.9,0,1.7-0.6,2.3
				c0,0,0,0,0,0c0.1,0.1,0.3,0.1,0.5,0.1l1.6-0.3c0.4-0.1,0.6-0.5,0.5-0.8l-3-13.6c-0.1-0.4-0.5-0.6-0.8-0.5l-1.6,0.3
				c-0.1,0-0.2,0.1-0.3,0.2C16.4,17.7,16.9,18.3,17.1,19.1z"/>
			<path class="st2" d="M14,17.5c-0.1,0-0.2,0.2-0.2,0.3L17,32.3c0,0.1,0.2,0.2,0.3,0.2l0.5-0.1c0.1,0,0.1-0.1,0.2-0.1c0,0,0,0,0,0
				c0.5-0.6,0.7-1.4,0.6-2.3c-0.1-0.5-0.3-0.9-0.6-1.3c0.1-0.4,0.2-0.9,0.1-1.4c-0.1-0.5-0.3-0.9-0.6-1.3c0.1-0.4,0.2-0.9,0.1-1.4
				c-0.1-0.5-0.3-0.9-0.6-1.2c0.1-0.4,0.2-0.9,0-1.4c-0.1-0.5-0.3-0.9-0.6-1.3c0.1-0.4,0.2-0.9,0.1-1.4c-0.2-0.8-0.7-1.5-1.4-1.8
				c0,0-0.1,0-0.1-0.1c0,0-0.1,0-0.1-0.1c0,0,0,0,0,0l0,0c0,0-0.1,0-0.1,0L14,17.5z"/>
		</g>
		<path class="st2" d="M8.9,18.6c-2.5,2-3.8,5.2-3,8.5c0.7,3.3,3.3,5.7,6.3,6.4c0.6,0.2,1.2-0.4,1.1-1.1l-3-13.4
			C10.2,18.5,9.4,18.2,8.9,18.6z M10,30.3c0,0.1-0.1,0.3-0.2,0.3c-0.1,0-0.3-0.1-0.3-0.2c0-0.1,0.1-0.3,0.2-0.3
			C9.8,30.1,10,30.2,10,30.3z M11.2,28.6c0,0.1-0.1,0.3-0.2,0.3c-0.1,0-0.3-0.1-0.3-0.2c0-0.1,0.1-0.3,0.2-0.3
			C11,28.3,11.2,28.4,11.2,28.6z M8,29.3c0,0.1-0.1,0.3-0.2,0.3c-0.1,0-0.3-0.1-0.3-0.2c0-0.1,0.1-0.3,0.2-0.3
			C7.8,29,7.9,29.1,8,29.3z M9.4,27.7c0,0.1-0.1,0.3-0.2,0.3c-0.1,0-0.3-0.1-0.3-0.2c0-0.1,0.1-0.3,0.2-0.3
			C9.2,27.5,9.4,27.6,9.4,27.7z M10.6,26.1c0,0.1-0.1,0.3-0.2,0.3c-0.1,0-0.3-0.1-0.3-0.2c0-0.1,0.1-0.3,0.2-0.3
			C10.4,25.9,10.6,26,10.6,26.1z M7.3,26.9c0,0.1-0.1,0.3-0.2,0.3c-0.1,0-0.3-0.1-0.3-0.2c0-0.1,0.1-0.3,0.2-0.3
			C7.2,26.6,7.3,26.7,7.3,26.9z M8.9,25.2c0,0.1-0.1,0.3-0.2,0.3c-0.1,0-0.3-0.1-0.3-0.2c0-0.1,0.1-0.3,0.2-0.3
			C8.7,25,8.8,25.1,8.9,25.2z M10.1,23.7c0,0.1-0.1,0.3-0.2,0.3c-0.1,0-0.3-0.1-0.3-0.2c0-0.1,0.1-0.3,0.2-0.3
			C10,23.4,10.1,23.5,10.1,23.7z M6.9,24.4c0,0.1-0.1,0.3-0.2,0.3c-0.1,0-0.3-0.1-0.3-0.2c0-0.1,0.1-0.3,0.2-0.3
			C6.7,24.2,6.9,24.3,6.9,24.4z M8.2,22.1c0,0.1-0.1,0.3-0.2,0.3c-0.1,0-0.3-0.1-0.3-0.2c0-0.1,0.1-0.3,0.2-0.3
			C8,21.8,8.1,21.9,8.2,22.1z"/>
	</g>
</g>
<g id="b10" class="st0">
	<g class="st1">
		<path class="st2" d="M51.7,22.4l-19.4,2.8l-31.8,0c0,0.2,0,0.3,0,0.5c0,4.5,7.2,8.1,16.2,8.1c7,0,13-2.2,15.2-5.4l19.8-2.8
			c0.9,0,1.6-0.7,1.6-1.6S52.5,22.4,51.7,22.4z"/>
	</g>
	<g class="st1">
		<path class="st2" d="M13.9,38.3c0.2,0.6-0.2,1.8-1.1,1.9c-0.9,0.1-1.5-0.8-1.6-1.5c-0.1-0.8,1.4-1.2,0.8-1.7
			C11.5,36.4,13.7,37.7,13.9,38.3z"/>
	</g>
	<g class="st1">
		<path class="st2" d="M23.9,38.3c0.2,0.6-0.1,1.8-1,1.9c-0.9,0.1-1.5-0.8-1.6-1.6c-0.1-0.7,1.3-1.2,0.7-1.7S23.7,37.7,23.9,38.3z"
			/>
	</g>
	<g class="st1">
		<path class="st2" d="M19.4,38.2c0.3,1-0.3,2.7-1.6,2.9s-2.2-1.3-2.3-2.3c-0.1-1.1,2-1.8,1.2-2.6S19.1,37.3,19.4,38.2z"/>
	</g>
</g>
<g id="s2" class="st0">
	<g class="st1">
		<path class="st2" d="M52.2,25.5L32.5,26L1,22c0,0.2-0.1,0.3-0.1,0.5C0.4,27,7.1,31.5,16,32.6c7,0.9,13.1-0.6,15.8-3.4l20-0.4
			c0.9,0.1,1.7-0.5,1.8-1.4S53.1,25.6,52.2,25.5z"/>
	</g>
	<g class="st1">
		<path class="st2" d="M14.5,38.8c-0.1,0.7-0.9,1.4-1.7,1.3c-0.8-0.1-1.5-0.9-1.2-1.5s2.3-0.9,1.9-1.4
			C13.1,36.6,14.6,38.1,14.5,38.8z"/>
	</g>
	<g class="st1">
		<path class="st2" d="M24.5,38.8c-0.1,0.7-0.9,1.3-1.7,1.3c-0.8,0-1.5-0.8-1.2-1.5c0.3-0.7,2.3-0.9,2-1.5
			C23.2,36.6,24.6,38,24.5,38.8z"/>
	</g>
	<g class="st1">
		<path class="st2" d="M20.8,39c-0.3,1.3-1.6,2.5-3,2.4c-1.5-0.1-2.8-1.5-2.3-2.8c0.5-1.3,4.3-1.6,3.6-2.7
			C18.3,34.9,21,37.7,20.8,39z"/>
	</g>
</g>
<g id="s3" class="st0">
	<g class="st1">
		<path class="st2" d="M52.1,29.9l-19.4-3.1L2.4,17.5c-0.1,0.2-0.1,0.3-0.2,0.5c-1.3,4.3,4.5,9.9,13.1,12.5c6.7,2.1,13,1.7,16.1-0.6
			L51.2,33c0.9,0.3,1.8-0.2,2-1.1S53,30.2,52.1,29.9z"/>
	</g>
	<g class="st1">
		<path class="st2" d="M15.2,39.1c-0.4,0.7-1.6,1.3-2.5,1.1c-0.9-0.1-1.7-1-1.2-1.7c0.5-0.7,3.6-0.8,3.4-1.5
			C14.7,36.3,15.6,38.4,15.2,39.1z"/>
	</g>
	<g class="st1">
		<path class="st2" d="M25.3,39.1c-0.4,0.7-1.6,1.3-2.5,1.2c-0.9-0.1-1.8-1-1.2-1.7c0.5-0.7,3.6-0.8,3.5-1.6S25.7,38.4,25.3,39.1z"
			/>
	</g>
	<g class="st1">
		<path class="st2" d="M21.1,39.3c-0.4,1.1-2.1,2-3.4,1.9c-1.3-0.1-2.6-1.5-1.9-2.5s4.8-1.3,4.5-2.5C20,35,21.6,38.1,21.1,39.3z"/>
	</g>
	<g class="st1">
		<path class="st2" d="M15.9,29.1l-7.7-2.6c-1.7-0.6-2.7-2.5-2.1-4.2l0.5-1.6l14,4.7L20.2,27C19.6,28.8,17.7,29.7,15.9,29.1z
			 M7.3,21.8L7,22.6c-0.4,1.3,0.3,2.7,1.6,3.1l7.7,2.6c1.3,0.4,2.7-0.3,3.1-1.6l0.3-0.8L7.3,21.8z"/>
		<path class="st2" d="M16.6,18.8c-1.3-0.6-2.7-1-4.1-1.3c0.5,1.2,0.7,3-0.6,5.1c1.2,0.3,2.3,0.7,3.4,1.2
			C17,21.8,16.9,19.9,16.6,18.8z"/>
		<path class="st2" d="M12,17.4c-1.1-0.2-2.2-0.3-3.3-0.3c0.5,1.1,1,2.9-0.2,5.1c1,0,1.9,0.1,2.9,0.3C12.8,20.4,12.5,18.5,12,17.4z"
			/>
		<path class="st2" d="M8.2,17.1c-0.2,0-0.5,0-0.7,0c-1.4,0-2.4,1.1-2.3,2.1c0.1,0.5,0.1,0.9,0.2,1.4c0.2,1,1.2,1.7,2.2,1.7
			c0.1,0,0.3,0,0.4,0C9.4,20,8.8,18.1,8.2,17.1z"/>
		<path class="st2" d="M22,22c-0.3-0.2-0.6-0.5-0.9-0.7c-0.1,1.3-0.6,3-2.6,4.4c0.1,0.1,0.2,0.1,0.3,0.2c0.8,0.7,2,0.7,2.8,0
			c0.3-0.3,0.7-0.7,1-1C23.3,24.3,23.1,22.9,22,22z"/>
		<path class="st2" d="M20.7,21c-1.2-0.8-2.4-1.5-3.6-2.1c0.3,1.3,0.3,3.1-1.4,5c0.9,0.4,1.7,0.9,2.5,1.5C20.3,24,20.7,22.3,20.7,21
			z"/>
	</g>
</g>
<g id="s4" class="st0">
	<g class="st1">
		<path class="st2" d="M50.6,35l-18.3-7L4.6,12.4c-0.1,0.1-0.2,0.3-0.3,0.4c-2.2,3.9,2.4,10.6,10.2,15c6.1,3.4,12.4,4.4,15.9,2.8
			L49,37.8c0.8,0.4,1.8,0.2,2.2-0.6C51.7,36.4,51.4,35.4,50.6,35z"/>
	</g>
	<g class="st1">
		<path class="st2" d="M15.6,39.3c-0.5,0.6-2.1,1-2.8,0.8s-1.7-0.9-1-1.5s4-0.4,4.2-1.2C16.3,36.5,16.1,38.7,15.6,39.3z"/>
	</g>
	<g class="st1">
		<path class="st2" d="M25.5,39.4c-0.5,0.5-1.9,0.8-2.7,0.7c-0.7-0.1-1.7-0.9-1-1.5c0.7-0.6,3.7-0.3,4-1.1
			C26.1,36.6,25.9,38.9,25.5,39.4z"/>
	</g>
	<g class="st1">
		<path class="st2" d="M22.3,39.9c-0.8,1.1-3.2,1.8-4.6,1.5s-3.2-1.6-2-2.7c1.3-1.2,6.5-0.8,6.9-2.3S23,38.8,22.3,39.9z"/>
	</g>
	<g class="st1">
		<path class="st2" d="M23.8,30.1L16,28.2c-1.8-0.4-2.9-2.2-2.5-4l0.3-1.2l0.8,0.2l-0.3,1.2c-0.3,1.3,0.5,2.7,1.8,3l7.9,1.9
			c1.3,0.3,2.7-0.5,3-1.8l0.3-1.2l0.8,0.2l-0.3,1.2C27.4,29.4,25.6,30.5,23.8,30.1z"/>
		<path class="st2" d="M27.8,26.9l-13.9-3.3c-1-0.2-1.6-1.3-1.4-2.3l0.1-0.4c0.2-1,1.3-1.6,2.3-1.4l13.9,3.3c1,0.2,1.6,1.3,1.4,2.3
			l-0.1,0.4C29.8,26.6,28.8,27.2,27.8,26.9z M14.7,20.3c-0.6-0.2-1.3,0.2-1.4,0.9l-0.1,0.4c-0.2,0.6,0.2,1.3,0.9,1.4l13.9,3.3
			c0.6,0.2,1.3-0.2,1.4-0.9l0.1-0.4c0.2-0.6-0.2-1.3-0.9-1.4L14.7,20.3z"/>
		<rect x="19.3" y="21.3" transform="matrix(0.9722 0.2341 -0.2341 0.9722 6.4628 -4.1879)" class="st2" width="3.1" height="7.7"/>
	</g>
	<g class="st1">
		<path class="st2" d="M20.3,22.7l-6.8-4.4c-1.5-1-2-3.1-1-4.6l0.9-1.4l12.4,8.1l-0.9,1.4C23.9,23.2,21.8,23.7,20.3,22.7z
			 M13.7,13.4l-0.5,0.7c-0.7,1.1-0.4,2.7,0.7,3.4l6.8,4.4c1.1,0.7,2.7,0.4,3.4-0.7l0.5-0.7L13.7,13.4z"/>
		<path class="st2" d="M23.5,12.8c-1.1-0.9-2.4-1.6-3.7-2.2c0.1,1.3-0.1,3.1-1.8,4.8c1.1,0.5,2.1,1.2,3,2
			C23.2,15.9,23.6,14,23.5,12.8z"/>
		<path class="st2" d="M19.4,10.4c-1-0.5-2-0.8-3.1-1.1c0.2,1.2,0.2,3.1-1.4,4.9c0.9,0.3,1.8,0.6,2.7,1
			C19.5,13.4,19.6,11.6,19.4,10.4z"/>
		<path class="st2" d="M15.9,9.1C15.6,9,15.4,9,15.2,8.9c-1.4-0.3-2.6,0.4-2.7,1.4c-0.1,0.5-0.1,0.9-0.2,1.4c-0.1,1,0.7,1.9,1.7,2.2
			c0.1,0,0.2,0.1,0.4,0.1C16.2,12.2,16.2,10.2,15.9,9.1z"/>
		<path class="st2" d="M28,17.3c-0.2-0.3-0.4-0.6-0.7-0.9c-0.4,1.3-1.3,2.8-3.6,3.7c0.1,0.1,0.1,0.2,0.2,0.3
			c0.6,0.8,1.8,1.2,2.7,0.7c0.4-0.2,0.8-0.5,1.2-0.7C28.6,19.8,28.8,18.4,28,17.3z"/>
		<path class="st2" d="M26.9,16c-0.9-1.1-1.9-2-3-2.9c0,1.3-0.5,3.1-2.6,4.5c0.7,0.6,1.4,1.3,2,2.1C25.8,18.8,26.7,17.2,26.9,16z"/>
	</g>
</g>
<g id="s5" class="st0">
	<g class="st1">
		<path class="st2" d="M52.1,29.9l-19.4-3.1L2.4,17.5c-0.1,0.2-0.1,0.3-0.2,0.5c-1.3,4.3,4.5,9.9,13.1,12.5c6.7,2.1,13,1.7,16.1-0.6
			L51.2,33c0.9,0.3,1.8-0.2,2-1.1S53,30.2,52.1,29.9z"/>
	</g>
	<g class="st1">
		<path class="st2" d="M15.2,39.1c-0.4,0.7-1.6,1.3-2.5,1.1c-0.9-0.1-1.7-1-1.2-1.7c0.5-0.7,3.6-0.8,3.4-1.5
			C14.7,36.3,15.6,38.4,15.2,39.1z"/>
	</g>
	<g class="st1">
		<path class="st2" d="M25.3,39.1c-0.4,0.7-1.6,1.3-2.5,1.2c-0.9-0.1-1.8-1-1.2-1.7c0.5-0.7,3.6-0.8,3.5-1.6S25.7,38.4,25.3,39.1z"
			/>
	</g>
	<g class="st1">
		<path class="st2" d="M21.1,39.3c-0.4,1.1-2.1,2-3.4,1.9c-1.3-0.1-2.6-1.5-1.9-2.5s4.8-1.3,4.5-2.5C20,35,21.6,38.1,21.1,39.3z"/>
	</g>
	<g class="st1">
		<path class="st2" d="M24.6,29.8L17.1,27c-1.7-0.7-2.6-2.6-1.9-4.3l0.5-1.2l0.8,0.3L16,22.9c-0.5,1.3,0.2,2.7,1.4,3.2l7.5,2.9
			c1.3,0.5,2.7-0.2,3.2-1.4l0.5-1.2l0.8,0.3l-0.5,1.2C28.3,29.6,26.3,30.5,24.6,29.8z"/>
		<path class="st2" d="M28.9,27.2l-13.3-5.1c-1-0.4-1.5-1.5-1.1-2.5l0.1-0.3c0.4-1,1.5-1.5,2.5-1.1l13.3,5.1c1,0.4,1.5,1.5,1.1,2.5
			l-0.1,0.3C31,27.1,29.9,27.6,28.9,27.2z M16.9,18.9c-0.6-0.2-1.3,0.1-1.5,0.7l-0.1,0.3c-0.2,0.6,0.1,1.3,0.7,1.5l13.3,5.1
			c0.6,0.2,1.3-0.1,1.5-0.7l0.1-0.3c0.2-0.6-0.1-1.3-0.7-1.5L16.9,18.9z"/>
		
			<rect x="20.8" y="20.7" transform="matrix(0.9341 0.3571 -0.3571 0.9341 10.2257 -6.3603)" class="st2" width="3.1" height="7.7"/>
	</g>
	<g class="st1">
		<path class="st2" d="M24.7,20.4L19.7,14c-1.1-1.5-0.9-3.6,0.6-4.7l1.4-1l9,11.7l-1.4,1C27.9,22.1,25.8,21.8,24.7,20.4z M21.5,9.5
			L20.8,10c-1.1,0.8-1.3,2.4-0.4,3.5l4.9,6.4c0.8,1.1,2.4,1.3,3.5,0.4l0.7-0.5L21.5,9.5z"/>
		<path class="st2" d="M30.9,12.1c-0.8-1.2-1.7-2.3-2.7-3.3c-0.3,1.3-1.1,2.9-3.3,3.9c0.8,0.9,1.6,1.8,2.2,2.9
			C29.6,14.9,30.6,13.2,30.9,12.1z"/>
		<path class="st2" d="M27.8,8.4c-0.8-0.7-1.6-1.4-2.5-2.1c-0.2,1.2-0.8,3-3,4.2c0.8,0.5,1.5,1.2,2.2,1.8
			C26.9,11.4,27.6,9.6,27.8,8.4z"/>
		<path class="st2" d="M24.9,6.1c-0.2-0.1-0.4-0.3-0.6-0.4c-1.2-0.8-2.6-0.5-3,0.5c-0.2,0.4-0.4,0.8-0.6,1.3c-0.4,0.9,0,2.1,0.9,2.6
			c0.1,0.1,0.2,0.1,0.3,0.2C24.3,9.1,24.8,7.2,24.9,6.1z"/>
		<path class="st2" d="M33.7,17.8c-0.1-0.4-0.2-0.7-0.4-1c-0.8,1.1-2.2,2.2-4.6,2.3c0,0.1,0.1,0.2,0.1,0.3c0.3,1,1.3,1.7,2.3,1.5
			c0.5-0.1,0.9-0.2,1.4-0.3C33.5,20.4,34.1,19.1,33.7,17.8z"/>
		<path class="st2" d="M33.1,16.3c-0.5-1.3-1.2-2.6-1.9-3.7c-0.5,1.2-1.5,2.7-3.9,3.4c0.5,0.8,0.9,1.7,1.2,2.6
			C31.1,18.5,32.5,17.3,33.1,16.3z"/>
	</g>
</g>
<g id="s6" class="st0">
	<g class="st1">
		<path class="st2" d="M52.2,25.5L32.5,26L1,22c0,0.2-0.1,0.3-0.1,0.5C0.4,27,7.1,31.5,16,32.6c7,0.9,13.1-0.6,15.8-3.4l20-0.4
			c0.9,0.1,1.7-0.5,1.8-1.4S53.1,25.6,52.2,25.5z"/>
	</g>
	<g class="st1">
		<path class="st2" d="M14.5,38.8c-0.1,0.7-0.9,1.4-1.7,1.3c-0.8-0.1-1.5-0.9-1.2-1.5s2.3-0.9,1.9-1.4
			C13.1,36.6,14.6,38.1,14.5,38.8z"/>
	</g>
	<g class="st1">
		<path class="st2" d="M24.5,38.8c-0.1,0.7-0.9,1.3-1.7,1.3c-0.8,0-1.5-0.8-1.2-1.5c0.3-0.7,2.3-0.9,2-1.5
			C23.2,36.6,24.6,38,24.5,38.8z"/>
	</g>
	<g class="st1">
		<path class="st2" d="M20.8,39c-0.3,1.3-1.6,2.5-3,2.4c-1.5-0.1-2.8-1.5-2.3-2.8c0.5-1.3,4.3-1.6,3.6-2.7
			C18.3,34.9,21,37.7,20.8,39z"/>
	</g>
	<g class="st1">
		<path class="st2" d="M21.1,23.9l-6-5.4c-1.4-1.2-1.5-3.3-0.3-4.7l0.9-1l0.6,0.6l-0.9,1c-0.9,1-0.8,2.6,0.2,3.5l6,5.4
			c1,0.9,2.6,0.8,3.5-0.2l0.9-1l0.6,0.6l-0.9,1C24.6,25,22.5,25.1,21.1,23.9z"/>
		<path class="st2" d="M26.1,23l-10.6-9.5c-0.8-0.7-0.8-1.9-0.2-2.7l0.2-0.3c0.7-0.8,1.9-0.8,2.7-0.2l10.6,9.5
			c0.8,0.7,0.8,1.9,0.2,2.7l-0.2,0.3C28.1,23.6,26.9,23.7,26.1,23z M17.8,10.9c-0.5-0.4-1.2-0.4-1.6,0.1l-0.2,0.3
			c-0.4,0.5-0.4,1.2,0.1,1.6l10.6,9.5c0.5,0.4,1.2,0.4,1.6-0.1l0.2-0.3c0.4-0.5,0.4-1.2-0.1-1.6L17.8,10.9z"/>
		
			<rect x="19.4" y="14.3" transform="matrix(0.7456 0.6664 -0.6664 0.7456 17.3745 -9.3207)" class="st2" width="3.1" height="7.7"/>
	</g>
	<g class="st1">
		<path class="st2" d="M28.1,13.9l0.8-8c0.2-1.8,1.8-3.2,3.6-3L34.2,3l-1.4,14.7l-1.7-0.2C29.3,17.3,27.9,15.7,28.1,13.9z M33.3,3.8
			l-0.8-0.1c-1.4-0.1-2.6,0.9-2.7,2.2l-0.8,8c-0.1,1.4,0.9,2.6,2.2,2.7l0.8,0.1L33.3,3.8z"/>
		<path class="st2" d="M38.3,12.2c0.2-1.4,0.3-2.9,0.3-4.3c-1.1,0.7-2.8,1.4-5.1,0.6c0,1.2-0.1,2.4-0.4,3.6
			C35.4,13.3,37.3,12.8,38.3,12.2z"/>
		<path class="st2" d="M38.6,7.4c-0.1-1.1-0.2-2.2-0.4-3.2c-0.9,0.8-2.6,1.6-5,1C33.4,6.1,33.5,7,33.5,8C35.9,8.9,37.6,8.1,38.6,7.4
			z"/>
		<path class="st2" d="M38.1,3.7C38,3.5,38,3.2,37.9,3c-0.4-1.4-1.6-2.1-2.5-1.7c-0.4,0.2-0.9,0.3-1.3,0.5c-0.9,0.4-1.4,1.5-1.1,2.5
			C33,4.4,33,4.5,33,4.7C35.5,5.4,37.2,4.4,38.1,3.7z"/>
		<path class="st2" d="M36.4,18.2c0.2-0.3,0.3-0.7,0.5-1c-1.3,0.2-3.1,0.1-4.9-1.5c0,0.1-0.1,0.2-0.1,0.3c-0.5,0.9-0.2,2.1,0.6,2.7
			c0.4,0.3,0.8,0.5,1.2,0.8C34.5,20,35.8,19.4,36.4,18.2z"/>
		<path class="st2" d="M37.1,16.7c0.5-1.3,0.9-2.7,1.2-4c-1.2,0.6-3,1-5.2-0.2c-0.2,0.9-0.5,1.9-0.9,2.8C34,17,35.9,17,37.1,16.7z"
			/>
	</g>
</g>
<g id="s7" class="st0">
	<g class="st1">
		<path class="st2" d="M51.7,22.4l-19.4,2.8l-31.8,0c0,0.2,0,0.3,0,0.5c0,4.5,7.2,8.1,16.2,8.1c7,0,13-2.2,15.2-5.4l19.8-2.8
			c0.9,0,1.6-0.7,1.6-1.6S52.5,22.4,51.7,22.4z"/>
	</g>
	<g class="st1">
		<path class="st2" d="M14.3,38.6c0,0.9-0.7,1.7-1.5,1.7c-0.8,0-1.5-0.8-1.5-1.7c0-0.9,2.4-0.8,1.5-1.7C11.9,36,14.3,37.6,14.3,38.6
			z"/>
	</g>
	<g class="st1">
		<path class="st2" d="M24.3,38.6c0,0.9-0.7,1.7-1.5,1.7s-1.5-0.8-1.5-1.7c0-0.9,2.4-0.8,1.5-1.7S24.3,37.6,24.3,38.6z"/>
	</g>
	<g class="st1">
		<path class="st2" d="M20,38.6c0,1.4-1,2.5-2.3,2.5s-2.3-1.1-2.3-2.5s3.6-1.2,2.3-2.5S20,37.2,20,38.6z"/>
	</g>
	<g class="st1">
		<path class="st2" d="M10.4,10.3l3.7-7.2c0.9-1.6,2.9-2.3,4.5-1.4l1.1,0.6l-0.4,0.8l-1.1-0.6c-1.2-0.6-2.7-0.2-3.3,1l-3.7,7.2
			c-0.6,1.2-0.2,2.7,1,3.3l1.1,0.6L13,15.4l-1.1-0.6C10.2,13.9,9.6,11.9,10.4,10.3z"/>
		<path class="st2" d="M12.6,14.9l6.6-12.6c0.5-0.9,1.6-1.3,2.6-0.8L22,1.6c0.9,0.5,1.3,1.6,0.8,2.6l-6.6,12.6
			c-0.5,0.9-1.6,1.3-2.6,0.8l-0.3-0.2C12.4,17,12.1,15.8,12.6,14.9z M22.2,3.8c0.3-0.6,0.1-1.3-0.5-1.6l-0.3-0.2
			c-0.6-0.3-1.3-0.1-1.6,0.5l-6.6,12.6c-0.3,0.6-0.1,1.3,0.5,1.6L14,17c0.6,0.3,1.3,0.1,1.6-0.5L22.2,3.8z"/>
		
			<rect x="14.5" y="4.8" transform="matrix(-0.4632 0.8863 -0.8863 -0.4632 31.0421 -1.5418)" class="st2" width="3.1" height="7.7"/>
	</g>
	<g class="st1">
		<path class="st2" d="M21.8,15.1l5.6-5.9c1.3-1.3,3.4-1.4,4.7-0.1l1.2,1.2L23.1,21l-1.2-1.2C20.5,18.5,20.5,16.4,21.8,15.1z
			 M32.1,10.3l-0.6-0.6c-1-0.9-2.6-0.9-3.5,0.1l-5.6,5.9c-0.9,1-0.9,2.6,0.1,3.5l0.6,0.6L32.1,10.3z"/>
		<path class="st2" d="M30.9,20c1.1-1,2-2,2.9-3.2c-1.3-0.1-3-0.6-4.4-2.7c-0.7,1-1.6,1.8-2.5,2.6C27.9,19.2,29.7,19.9,30.9,20z"/>
		<path class="st2" d="M34,16.4c0.6-0.9,1.2-1.8,1.7-2.8c-1.2,0-3.1-0.3-4.6-2.3c-0.4,0.9-0.9,1.7-1.5,2.5C31,16,32.8,16.4,34,16.4z
			"/>
		<path class="st2" d="M35.9,13.2c0.1-0.2,0.2-0.4,0.3-0.6c0.6-1.3,0.1-2.7-0.9-2.9c-0.4-0.1-0.9-0.3-1.3-0.4c-1-0.3-2,0.3-2.4,1.3
			c0,0.1-0.1,0.2-0.2,0.3C32.8,13,34.8,13.3,35.9,13.2z"/>
		<path class="st2" d="M25.7,23.6c0.3-0.2,0.7-0.3,1-0.5c-1.2-0.6-2.5-1.8-2.9-4.2c-0.1,0-0.2,0.1-0.3,0.1c-0.9,0.5-1.5,1.5-1.2,2.5
			c0.2,0.4,0.3,0.9,0.5,1.3C23,23.8,24.4,24.2,25.7,23.6z"/>
		<path class="st2" d="M27.1,22.8c1.2-0.7,2.4-1.5,3.4-2.4c-1.3-0.3-2.9-1.1-4-3.3c-0.8,0.6-1.6,1.1-2.4,1.6
			C24.5,21.2,26,22.3,27.1,22.8z"/>
	</g>
</g>
<g id="s8" class="st0">
	<g class="st1">
		<path class="st2" d="M51.7,22.4l-19.4,2.8l-31.8,0c0,0.2,0,0.3,0,0.5c0,4.5,7.2,8.1,16.2,8.1c7,0,13-2.2,15.2-5.4l19.8-2.8
			c0.9,0,1.6-0.7,1.6-1.6S52.5,22.4,51.7,22.4z"/>
	</g>
	<g class="st1">
		<path class="st2" d="M13.9,38.3c0.2,0.6-0.2,1.8-1.1,1.9c-0.9,0.1-1.5-0.8-1.6-1.5c-0.1-0.8,1.4-1.2,0.8-1.7
			C11.5,36.4,13.7,37.7,13.9,38.3z"/>
	</g>
	<g class="st1">
		<path class="st2" d="M23.9,38.3c0.2,0.6-0.1,1.8-1,1.9c-0.9,0.1-1.5-0.8-1.6-1.6c-0.1-0.7,1.3-1.2,0.7-1.7S23.7,37.7,23.9,38.3z"
			/>
	</g>
	<g class="st1">
		<path class="st2" d="M19.4,38.2c0.3,1-0.3,2.7-1.6,2.9s-2.2-1.3-2.3-2.3c-0.1-1.1,2-1.8,1.2-2.6S19.1,37.3,19.4,38.2z"/>
	</g>
	<g class="st1">
		<path class="st2" d="M16.3,5.6L23,1.1c1.5-1,3.6-0.6,4.6,0.9L28.4,3l-0.7,0.5L27,2.5c-0.8-1.1-2.3-1.4-3.4-0.7l-6.7,4.5
			c-1.1,0.8-1.4,2.3-0.7,3.4l0.7,1.1l-0.7,0.5l-0.7-1.1C14.4,8.7,14.8,6.6,16.3,5.6z"/>
		<path class="st2" d="M16,10.6l11.8-8c0.9-0.6,2.1-0.4,2.6,0.5l0.2,0.3c0.6,0.9,0.4,2.1-0.5,2.6l-11.8,8c-0.9,0.6-2.1,0.4-2.6-0.5
			l-0.2-0.3C14.9,12.4,15.2,11.2,16,10.6z M29.8,5.5c0.5-0.4,0.7-1.1,0.3-1.6l-0.2-0.3c-0.4-0.5-1.1-0.7-1.6-0.3l-11.8,8
			c-0.5,0.4-0.7,1.1-0.3,1.6l0.2,0.3c0.4,0.5,1.1,0.7,1.6,0.3L29.8,5.5z"/>
		
			<rect x="20.5" y="2.9" transform="matrix(-0.8291 0.5592 -0.5592 -0.8291 44.0493 8.044223e-02)" class="st2" width="3.1" height="7.7"/>
	</g>
	<g class="st1">
		<path class="st2" d="M15,19.2l7.9-1.6c1.8-0.4,3.6,0.8,3.9,2.6l0.3,1.7l-14.5,2.9l-0.3-1.7C12,21.3,13.2,19.6,15,19.2z M26.1,21.3
			L26,20.4c-0.3-1.3-1.6-2.2-2.9-1.9l-7.9,1.6c-1.3,0.3-2.2,1.6-2,2.9l0.2,0.8L26.1,21.3z"/>
		<path class="st2" d="M19.6,28.5c1.4-0.2,2.8-0.5,4.2-1c-1-0.8-2.1-2.3-2-4.7c-1.2,0.4-2.3,0.6-3.5,0.7
			C17.6,26.1,18.7,27.7,19.6,28.5z"/>
		<path class="st2" d="M24.2,27.4c1-0.4,2-0.8,3-1.3c-1-0.7-2.3-2.1-2.4-4.5c-0.8,0.5-1.7,0.8-2.6,1.2C22,25.3,23.2,26.7,24.2,27.4z
			"/>
		<path class="st2" d="M27.6,25.8c0.2-0.1,0.4-0.2,0.6-0.4c1.2-0.7,1.6-2.1,0.9-2.9c-0.3-0.4-0.6-0.7-0.9-1.1
			c-0.7-0.8-1.9-0.9-2.7-0.3c-0.1,0.1-0.2,0.1-0.3,0.2C25.2,23.9,26.6,25.2,27.6,25.8z"/>
		<path class="st2" d="M13.3,28.4c0.4,0.1,0.7,0.1,1.1,0.1c-0.6-1.2-1-2.9,0-5.1c-0.1,0-0.2,0-0.3,0c-1-0.2-2.1,0.4-2.4,1.4
			c-0.1,0.4-0.3,0.9-0.4,1.3C11,27.1,11.9,28.2,13.3,28.4z"/>
		<path class="st2" d="M14.8,28.6c1.4,0.1,2.8,0.1,4.2,0c-0.9-0.9-1.8-2.6-1.3-5c-1,0.1-1.9,0-2.9-0.1
			C13.7,25.8,14.2,27.5,14.8,28.6z"/>
	</g>
</g>
<g id="s9" class="st0">
	<g class="st1">
		<path class="st2" d="M51.7,22.4l-19.4,2.8l-31.8,0c0,0.2,0,0.3,0,0.5c0,4.5,7.2,8.1,16.2,8.1c7,0,13-2.2,15.2-5.4l19.8-2.8
			c0.9,0,1.6-0.7,1.6-1.6S52.5,22.4,51.7,22.4z"/>
	</g>
	<g class="st1">
		<path class="st2" d="M13.5,38.1c0.3,0.5,0.3,1.8-0.6,2c-0.8,0.3-1.5-0.8-1.7-1.4c-0.2-0.6,0.4-1.4,0.1-1.7
			C11.1,36.9,13.1,37.5,13.5,38.1z"/>
	</g>
	<g class="st1">
		<path class="st2" d="M23.2,37.9c0.5,0.6,0.5,1.9-0.3,2.2c-0.8,0.3-1.3-0.8-1.7-1.4s0.3-1.2-0.4-1.7S22.6,37.3,23.2,37.9z"/>
	</g>
	<g class="st1">
		<path class="st2" d="M18.6,37.8c0.7,1,0.4,2.9-0.8,3.2c-1.2,0.4-2-1.2-2.4-2.1c-0.4-0.9,0.8-1.8-0.1-2.6
			C14.5,35.6,17.9,36.8,18.6,37.8z"/>
	</g>
	<g class="st1">
		<path class="st2" d="M25.7,5.6l5.4,6c1.2,1.4,1.1,3.5-0.2,4.7l-1,0.9l-0.6-0.6l1-0.9c1-0.9,1.1-2.5,0.2-3.5l-5.4-6
			c-0.9-1-2.5-1.1-3.5-0.2l-1,0.9l-0.6-0.6l1-0.9C22.4,4.1,24.5,4.2,25.7,5.6z"/>
		<path class="st2" d="M20.7,6l9.6,10.6c0.7,0.8,0.6,2-0.1,2.7l-0.3,0.2c-0.8,0.7-2,0.6-2.7-0.1L17.6,8.8c-0.7-0.8-0.6-2,0.1-2.7
			L18,5.8C18.8,5.1,20,5.2,20.7,6z M27.7,18.8c0.4,0.5,1.2,0.5,1.6,0.1l0.3-0.2c0.5-0.4,0.5-1.2,0.1-1.6L20.2,6.5
			C19.7,6,19,5.9,18.5,6.4l-0.3,0.2c-0.5,0.4-0.5,1.2-0.1,1.6L27.7,18.8z"/>
		
			<rect x="23.8" y="7.5" transform="matrix(-0.6705 -0.7419 0.7419 -0.6705 33.9558 37.7754)" class="st2" width="3.1" height="7.7"/>
	</g>
	<g class="st1">
		<path class="st2" d="M12.7,23.3l7.9-1.6c1.8-0.4,3.6,0.8,3.9,2.6l0.3,1.7l-14.5,2.9l-0.3-1.7C9.7,25.5,10.9,23.7,12.7,23.3z
			 M23.9,25.4l-0.2-0.8c-0.3-1.3-1.6-2.2-2.9-1.9l-7.9,1.6c-1.3,0.3-2.2,1.6-2,2.9l0.2,0.8L23.9,25.4z"/>
		<path class="st2" d="M17.3,32.7c1.4-0.2,2.8-0.5,4.2-1c-1-0.8-2.1-2.3-2-4.7c-1.2,0.4-2.3,0.6-3.5,0.7
			C15.4,30.2,16.4,31.8,17.3,32.7z"/>
		<path class="st2" d="M22,31.5c1-0.4,2-0.8,3-1.3c-1-0.7-2.3-2.1-2.4-4.5c-0.8,0.5-1.7,0.8-2.6,1.2C19.8,29.4,21,30.8,22,31.5z"/>
		<path class="st2" d="M25.4,30c0.2-0.1,0.4-0.2,0.6-0.4c1.2-0.7,1.6-2.1,0.9-2.9c-0.3-0.4-0.6-0.7-0.9-1.1
			c-0.7-0.8-1.9-0.9-2.7-0.3c-0.1,0.1-0.2,0.1-0.3,0.2C23,28,24.4,29.4,25.4,30z"/>
		<path class="st2" d="M11,32.6c0.4,0.1,0.7,0.1,1.1,0.1c-0.6-1.2-1-2.9,0-5.1c-0.1,0-0.2,0-0.3,0c-1-0.2-2.1,0.4-2.4,1.4
			c-0.1,0.4-0.3,0.9-0.4,1.3C8.7,31.2,9.6,32.3,11,32.6z"/>
		<path class="st2" d="M12.6,32.7c1.4,0.1,2.8,0.1,4.2,0c-0.9-0.9-1.8-2.6-1.3-5c-1,0.1-1.9,0-2.9-0.1C11.5,29.9,12,31.7,12.6,32.7z
			"/>
	</g>
</g>
<g id="s10" class="st0">
	<g class="st1">
		<path class="st2" d="M51.7,22.4l-19.4,2.8l-31.8,0c0,0.2,0,0.3,0,0.5c0,4.5,7.2,8.1,16.2,8.1c7,0,13-2.2,15.2-5.4l19.8-2.8
			c0.9,0,1.6-0.7,1.6-1.6S52.5,22.4,51.7,22.4z"/>
	</g>
	<g class="st1">
		<path class="st2" d="M13.9,38.3c0.2,0.6-0.2,1.8-1.1,1.9c-0.9,0.1-1.5-0.8-1.6-1.5c-0.1-0.8,1.4-1.2,0.8-1.7
			C11.5,36.4,13.7,37.7,13.9,38.3z"/>
	</g>
	<g class="st1">
		<path class="st2" d="M23.9,38.3c0.2,0.6-0.1,1.8-1,1.9c-0.9,0.1-1.5-0.8-1.6-1.6c-0.1-0.7,1.3-1.2,0.7-1.7S23.7,37.7,23.9,38.3z"
			/>
	</g>
	<g class="st1">
		<path class="st2" d="M19.4,38.2c0.3,1-0.3,2.7-1.6,2.9s-2.2-1.3-2.3-2.3c-0.1-1.1,2-1.8,1.2-2.6S19.1,37.3,19.4,38.2z"/>
	</g>
	<g class="st1">
		<path class="st2" d="M19.6,18.9l3.9,7.1c0.9,1.6,0.3,3.7-1.3,4.5L21,31.2l-0.4-0.8l1.1-0.6c1.2-0.7,1.6-2.2,1-3.4l-3.9-7.1
			c-0.7-1.2-2.2-1.6-3.4-1L14.3,19l-0.4-0.8l1.1-0.6C16.7,16.7,18.7,17.3,19.6,18.9z"/>
		<path class="st2" d="M14.6,18.1l6.8,12.5c0.5,0.9,0.2,2.1-0.8,2.6l-0.3,0.2c-0.9,0.5-2.1,0.2-2.6-0.8l-6.8-12.5
			c-0.5-0.9-0.2-2.1,0.8-2.6l0.3-0.2C12.9,16.9,14.1,17.2,14.6,18.1z M18.4,32.3c0.3,0.6,1,0.8,1.6,0.5l0.3-0.2
			c0.6-0.3,0.8-1,0.5-1.6l-6.8-12.5c-0.3-0.6-1-0.8-1.6-0.5L12,18.2c-0.6,0.3-0.8,1-0.5,1.6L18.4,32.3z"/>
		<rect x="16.3" y="20.6" transform="matrix(-0.4767 -0.879 0.879 -0.4767 4.846 51.8218)" class="st2" width="3.1" height="7.7"/>
	</g>
</g>
<g id="c2" class="st0">
	<g class="st1">
		<path class="st2" d="M52.2,25.5L32.5,26L1,22c0,0.2-0.1,0.3-0.1,0.5C0.4,27,7.1,31.5,16,32.6c7,0.9,13.1-0.6,15.8-3.4l20-0.4
			c0.9,0.1,1.7-0.5,1.8-1.4S53.1,25.6,52.2,25.5z"/>
	</g>
	<g class="st1">
		<path class="st2" d="M14.5,38.8c-0.1,0.7-0.9,1.4-1.7,1.3c-0.8-0.1-1.5-0.9-1.2-1.5s2.3-0.9,1.9-1.4
			C13.1,36.6,14.6,38.1,14.5,38.8z"/>
	</g>
	<g class="st1">
		<path class="st2" d="M24.5,38.8c-0.1,0.7-0.9,1.3-1.7,1.3c-0.8,0-1.5-0.8-1.2-1.5c0.3-0.7,2.3-0.9,2-1.5
			C23.2,36.6,24.6,38,24.5,38.8z"/>
	</g>
	<g class="st1">
		<path class="st2" d="M20.8,39c-0.3,1.3-1.6,2.5-3,2.4c-1.5-0.1-2.8-1.5-2.3-2.8c0.5-1.3,4.3-1.6,3.6-2.7
			C18.3,34.9,21,37.7,20.8,39z"/>
	</g>
</g>
<g id="c3" class="st0">
	<g class="st1">
		<path class="st2" d="M52.1,29.9l-19.4-3.1L2.4,17.5c-0.1,0.2-0.1,0.3-0.2,0.5c-1.3,4.3,4.5,9.9,13.1,12.5c6.7,2.1,13,1.7,16.1-0.6
			L51.2,33c0.9,0.3,1.8-0.2,2-1.1S53,30.2,52.1,29.9z"/>
	</g>
	<g class="st1">
		<path class="st2" d="M15.2,39.1c-0.4,0.7-1.6,1.3-2.5,1.1c-0.9-0.1-1.7-1-1.2-1.7c0.5-0.7,3.6-0.8,3.4-1.5
			C14.7,36.3,15.6,38.4,15.2,39.1z"/>
	</g>
	<g class="st1">
		<path class="st2" d="M25.3,39.1c-0.4,0.7-1.6,1.3-2.5,1.2c-0.9-0.1-1.8-1-1.2-1.7c0.5-0.7,3.6-0.8,3.5-1.6S25.7,38.4,25.3,39.1z"
			/>
	</g>
	<g class="st1">
		<path class="st2" d="M21.1,39.3c-0.4,1.1-2.1,2-3.4,1.9c-1.3-0.1-2.6-1.5-1.9-2.5s4.8-1.3,4.5-2.5C20,35,21.6,38.1,21.1,39.3z"/>
	</g>
	<g class="st1">
		<path class="st2" d="M13.8,29.5c-2.9-0.9-5.5-2.2-7.3-3.6c-1.9-1.5-2.7-3-2.3-4.3c0,0,0-0.1,0-0.1l0.1-0.3l22,6.8l-0.1,0.3
			c0,0,0,0,0,0.1c-0.4,1.3-1.9,2.1-4.3,2.2C19.6,30.8,16.7,30.4,13.8,29.5z M4.7,22.1c-0.1,1,0.7,2.2,2.2,3.4
			c1.8,1.4,4.3,2.6,7.1,3.5c2.8,0.9,5.6,1.2,7.9,1.1c1.9-0.2,3.3-0.7,3.7-1.6L4.7,22.1z"/>
		<path class="st2" d="M23.3,27.7C23.3,27.7,23.3,27.7,23.3,27.7C23.3,27.7,23.3,27.7,23.3,27.7c-0.2-0.1-0.2-0.1-0.3-0.2
			c0-0.1,0-0.1,0-0.2c0,0,0,0,0,0c0,0,0,0,0,0c0,0,0,0,0,0c0,0,0,0,0,0c0,0,0,0,0,0c0,0,0,0,0,0c0,0,0,0,0,0c0,0,0,0,0,0
			c0,0,0,0,0,0c0,0,0,0,0,0c0,0,0,0,0,0c0,0,0,0,0,0c0-0.1,0.1-0.2,0.2-0.3c0,0,0,0,0-0.1c0,0,0-0.1,0-0.1c0-0.1,0-0.2,0-0.3
			c0-0.1,0.1-0.2,0.1-0.3c0,0,0,0,0-0.1c0,0,0-0.1,0-0.1c0-0.1-0.1-0.2-0.1-0.3c0-0.1,0.1-0.2,0.1-0.3c0,0,0-0.1,0-0.1
			c0,0,0,0,0-0.1c0-0.1-0.1-0.2-0.1-0.3c0-0.1,0-0.2,0.1-0.3c0,0,0-0.1,0-0.1c0,0,0,0,0-0.1c0-0.1-0.1-0.2-0.1-0.3
			c0-0.1,0-0.2,0-0.3c0,0,0-0.1,0-0.1c0,0,0,0,0-0.1c-0.1-0.1-0.1-0.2-0.2-0.3c0-0.1,0-0.2,0-0.3c0,0,0-0.1,0-0.1c0,0,0,0-0.1-0.1
			c-0.1-0.1-0.1-0.1-0.2-0.3c0-0.1,0-0.2,0-0.3c0,0,0-0.1,0-0.1c0,0,0,0-0.1,0c-0.1-0.1-0.2-0.1-0.2-0.2c-0.1-0.1-0.1-0.2-0.1-0.3
			c0,0,0-0.1,0-0.1c0,0,0,0-0.1,0c-0.1,0-0.2-0.1-0.2-0.2c-0.1-0.1-0.1-0.2-0.1-0.3c0,0,0-0.1,0-0.1c0,0,0,0-0.1,0
			c-0.1,0-0.2-0.1-0.3-0.2c-0.1-0.1-0.1-0.2-0.1-0.3c0,0,0-0.1,0-0.1c0,0,0,0-0.1,0c-0.1,0-0.2-0.1-0.3-0.2
			c-0.1-0.1-0.1-0.2-0.2-0.3c0,0,0-0.1,0-0.1c0,0-0.1,0-0.1,0c-0.1,0-0.2-0.1-0.3-0.1c-0.1-0.1-0.1-0.2-0.2-0.3c0,0,0-0.1,0-0.1
			c0,0-0.1,0-0.1,0c-0.1,0-0.2,0-0.3-0.1c-0.1-0.1-0.2-0.2-0.2-0.3c0,0,0-0.1,0-0.1c0,0-0.1,0-0.1,0c-0.1,0-0.2,0-0.3-0.1
			c-0.1-0.1-0.2-0.2-0.2-0.2c0,0,0,0,0-0.1c0,0-0.1,0-0.1,0c-0.1,0-0.2,0-0.3-0.1c-0.1-0.1-0.2-0.1-0.2-0.2c0,0,0,0-0.1-0.1
			c0,0-0.1,0-0.1,0c-0.1,0-0.2,0-0.3,0c-0.1,0-0.2-0.1-0.3-0.2c0,0,0,0-0.1-0.1c0,0,0,0-0.1,0c0,0-0.1,0-0.1,0
			c-0.1,0.1-0.2,0.2-0.3,0.1c-0.2,0-0.2-0.2-0.2-0.4c0-0.2,0.1-0.2,0.2-0.3c0,0,0,0,0,0c0.1-0.1,0.2-0.1,0.3-0.1c0,0,0,0,0.1,0
			c0.1,0,0.2,0,0.3,0c0.1,0,0.2,0.1,0.3,0.2c0,0,0,0,0.1,0.1c0,0,0.1,0,0.1,0c0.1,0,0.2,0,0.3,0.1c0.1,0.1,0.2,0.2,0.3,0.2
			c0,0,0,0,0.1,0.1c0,0,0.1,0,0.1,0c0.1,0,0.2,0,0.3,0.1c0.1,0.1,0.2,0.2,0.2,0.2c0,0,0,0.1,0,0.1c0,0,0.1,0,0.1,0
			c0.1,0,0.2,0,0.3,0.1c0.1,0.1,0.2,0.2,0.2,0.3c0,0,0,0.1,0,0.1c0,0,0.1,0,0.1,0c0.1,0,0.2,0,0.3,0.1c0.1,0.1,0.2,0.2,0.2,0.3
			c0,0,0,0.1,0,0.1c0,0,0.1,0,0.1,0c0.1,0,0.2,0.1,0.3,0.2c0.1,0.1,0.1,0.2,0.2,0.3c0,0,0,0.1,0,0.1c0,0,0.1,0,0.1,0
			c0.1,0,0.2,0.1,0.3,0.2c0.1,0.1,0.1,0.2,0.1,0.3c0,0,0,0.1,0,0.1c0,0,0,0,0.1,0c0.1,0,0.2,0.1,0.3,0.2c0.1,0.1,0.1,0.2,0.1,0.3
			c0,0,0,0.1,0,0.1c0,0,0,0,0.1,0c0.1,0,0.2,0.1,0.2,0.2c0.1,0.1,0.1,0.2,0.1,0.3c0,0,0,0.1,0,0.1c0,0,0,0,0.1,0.1
			c0.1,0.1,0.2,0.1,0.2,0.3c0.1,0.1,0.1,0.2,0.1,0.3c0,0,0,0.1,0,0.1c0,0,0,0,0.1,0.1c0.1,0.1,0.2,0.1,0.2,0.3c0,0.1,0,0.3,0,0.3
			c0,0,0,0.1,0,0.1c0,0,0,0,0.1,0.1c0.1,0.1,0.1,0.2,0.2,0.3c0,0.1,0,0.3,0,0.3c0,0,0,0.1,0,0.1c0,0,0,0,0,0.1
			c0.1,0.1,0.1,0.2,0.1,0.3c0,0.1,0,0.3-0.1,0.3c0,0,0,0.1,0,0.1c0,0,0,0.1,0,0.1c0,0.1,0.1,0.2,0.1,0.3c0,0.1-0.1,0.2-0.1,0.3
			c0,0,0,0.1,0,0.1c0,0,0,0.1,0,0.1c0,0.1,0.1,0.2,0.1,0.3c0,0.1-0.1,0.2-0.1,0.3c0,0,0,0.1,0,0.1c0,0,0,0.1,0,0.1
			c0,0.1,0.1,0.2,0,0.3c0,0.1-0.1,0.2-0.1,0.2c0,0.1,0,0.1,0,0.2c0,0,0,0,0,0c0,0,0,0,0,0c0,0,0,0,0,0c0,0,0,0,0,0c0,0,0,0,0,0
			c0,0,0,0,0,0c0,0,0,0,0,0c0,0,0,0,0,0c0,0,0,0,0,0c0,0,0,0,0,0c0,0,0,0,0,0c0,0,0,0,0,0c0,0,0,0,0,0c0,0,0,0,0,0
			c0,0.1-0.1,0.2-0.3,0.2C23.4,27.8,23.4,27.8,23.3,27.7z M23.2,27.4c0,0.1,0,0.2,0.1,0.3c0,0,0.1,0,0.1,0l0,0l-0.1-0.2L23.2,27.4z
			 M23.3,26.9C23.3,26.9,23.3,26.9,23.3,26.9S23.3,26.9,23.3,26.9z M23.8,26.7L23.8,26.7C23.8,26.7,23.8,26.7,23.8,26.7z M23.4,26.2
			L23.4,26.2C23.4,26.2,23.4,26.2,23.4,26.2z M23.9,25.9L23.9,25.9L23.9,25.9z M23.9,25.1 M23.4,24.7L23.4,24.7L23.4,24.7z
			 M23.8,24.3L23.8,24.3L23.8,24.3z M23.3,24C23.3,24,23.3,24,23.3,24C23.3,24,23.3,24,23.3,24z M23.3,24C23.3,24,23.3,24,23.3,24
			L23.3,24z M23.6,23.5C23.6,23.5,23.6,23.5,23.6,23.5S23.6,23.5,23.6,23.5z M23.1,23.3L23.1,23.3L23.1,23.3z M23.1,23.2L23.1,23.2
			L23.1,23.2z M22.8,22.6C22.8,22.6,22.8,22.6,22.8,22.6L22.8,22.6z M22.4,21.9 M22,21.2L22,21.2L22,21.2z M22,21.2L22,21.2
			C22,21.2,22,21.2,22,21.2z M22.6,21.3L22.6,21.3L22.6,21.3z M22.6,21.3C22.6,21.3,22.6,21.3,22.6,21.3S22.6,21.3,22.6,21.3z
			 M21.5,20.7L21.5,20.7L21.5,20.7z M22.1,20.7L22.1,20.7L22.1,20.7z M21,20.1L21,20.1L21,20.1z M21,20.1C21,20.1,21,20.1,21,20.1
			L21,20.1z M20.5,19.6L20.5,19.6L20.5,19.6z M21,19.5L21,19.5L21,19.5z M19.8,19.1L19.8,19.1L19.8,19.1z M21,19.5L21,19.5
			C21,19.5,21,19.5,21,19.5z M19.8,19.1L19.8,19.1L19.8,19.1z M19.8,18.6L19.8,18.6L19.8,18.6z M19.8,18.5L19.8,18.5L19.8,18.5z
			 M18.4,17.8L18.4,17.8L18.4,17.8z"/>
		<g>
			<path class="st2" d="M17.5,17.4c-4.6-1.4-9.4,0.8-10.6,4.9c0,0,0,0,0,0.1l8.6,2.6l2.3-7.5C17.6,17.5,17.5,17.5,17.5,17.4z
				 M9.6,22.1l-0.8-0.5c-0.1-0.1-0.2-0.3-0.1-0.4l0.4-0.6c0.1-0.1,0.3-0.2,0.4-0.1l0.8,0.5c0.1,0.1,0.2,0.3,0.1,0.4L10,22
				C9.9,22.2,9.7,22.2,9.6,22.1z M11.2,20c-0.4-0.1-0.6-0.5-0.5-0.9c0.1-0.4,0.5-0.6,0.9-0.5c0.4,0.1,0.6,0.5,0.5,0.9
				C11.9,20,11.5,20.2,11.2,20z M13.3,23c-0.4-0.1-0.6-0.5-0.5-0.9c0.1-0.4,0.5-0.6,0.9-0.5c0.4,0.1,0.6,0.5,0.5,0.9
				C14.1,22.9,13.7,23.1,13.3,23z M15.2,20.1l-0.9,0.1c-0.2,0-0.3-0.1-0.3-0.3l-0.1-0.8c0-0.2,0.1-0.3,0.3-0.3l0.9-0.1
				c0.2,0,0.3,0.1,0.3,0.3l0.1,0.8C15.5,20,15.4,20.1,15.2,20.1z"/>
		</g>
	</g>
</g>
<g id="c4" class="st0">
	<g class="st1">
		<path class="st2" d="M50.6,35l-18.3-7L4.6,12.4c-0.1,0.1-0.2,0.3-0.3,0.4c-2.2,3.9,2.4,10.6,10.2,15c6.1,3.4,12.4,4.4,15.9,2.8
			L49,37.8c0.8,0.4,1.8,0.2,2.2-0.6C51.7,36.4,51.4,35.4,50.6,35z"/>
	</g>
	<g class="st1">
		<path class="st2" d="M15.6,39.3c-0.5,0.6-2.1,1-2.8,0.8s-1.7-0.9-1-1.5s4-0.4,4.2-1.2C16.3,36.5,16.1,38.7,15.6,39.3z"/>
	</g>
	<g class="st1">
		<path class="st2" d="M25.5,39.4c-0.5,0.5-1.9,0.8-2.7,0.7c-0.7-0.1-1.7-0.9-1-1.5c0.7-0.6,3.7-0.3,4-1.1
			C26.1,36.6,25.9,38.9,25.5,39.4z"/>
	</g>
	<g class="st1">
		<path class="st2" d="M22.3,39.9c-0.8,1.1-3.2,1.8-4.6,1.5s-3.2-1.6-2-2.7c1.3-1.2,6.5-0.8,6.9-2.3S23,38.8,22.3,39.9z"/>
	</g>
	<g class="st1">
		<path class="st2" d="M14.1,20.5c-2.1-2.2-3.8-4.5-4.7-6.7c-0.9-2.2-0.9-4,0-4.9c0,0,0,0,0.1,0l0.2-0.2l16.2,16.4l-0.2,0.2
			c0,0,0,0,0,0.1c-0.9,0.9-2.7,0.9-4.9-0.1C18.6,24.3,16.2,22.6,14.1,20.5z M9.6,9.6c-0.6,0.8-0.4,2.2,0.3,4
			c0.9,2.1,2.5,4.4,4.6,6.5c2.1,2.1,4.4,3.8,6.4,4.7c1.8,0.8,3.2,0.9,4,0.4L9.6,9.6z"/>
		<path class="st2" d="M23.3,23.4C23.3,23.4,23.3,23.4,23.3,23.4C23.2,23.4,23.2,23.4,23.3,23.4c-0.1-0.1-0.2-0.2-0.2-0.3
			c0-0.1,0-0.1,0.1-0.2c0,0,0,0,0,0c0,0,0,0,0,0c0,0,0,0,0,0c0,0,0,0,0,0c0,0,0,0,0,0c0,0,0,0,0,0c0,0,0,0,0,0c0,0,0,0,0,0
			c0,0,0,0,0,0c0,0,0,0,0,0c0,0,0,0,0,0c0,0,0,0,0,0c0.1-0.1,0.2-0.1,0.3-0.2c0,0,0.1,0,0.1,0c0,0,0-0.1,0-0.1
			c0-0.1,0.1-0.2,0.1-0.3c0.1-0.1,0.2-0.1,0.3-0.2c0,0,0.1,0,0.1,0c0,0,0-0.1,0-0.1c0-0.1,0-0.2,0.1-0.3c0.1-0.1,0.2-0.2,0.2-0.2
			c0,0,0,0,0.1,0c0,0,0-0.1,0-0.1c0-0.1,0-0.2,0.1-0.3c0.1-0.1,0.1-0.2,0.2-0.2c0,0,0,0,0.1-0.1c0,0,0-0.1,0-0.1c0-0.1,0-0.2,0-0.3
			c0-0.1,0.1-0.2,0.2-0.3c0,0,0,0,0.1-0.1c0,0,0-0.1,0-0.1c0-0.1,0-0.2,0-0.3c0-0.1,0.1-0.2,0.1-0.3c0,0,0,0,0-0.1c0,0,0-0.1,0-0.1
			c0-0.1-0.1-0.2,0-0.3c0-0.1,0.1-0.2,0.1-0.3c0,0,0,0,0-0.1c0,0,0,0,0-0.1c0-0.1-0.1-0.2-0.1-0.3c0-0.1,0-0.2,0.1-0.3
			c0,0,0-0.1,0-0.1c0,0,0,0,0-0.1c0-0.1-0.1-0.2-0.1-0.3c0-0.1,0-0.2,0.1-0.3c0,0,0-0.1,0-0.1c0,0,0,0,0-0.1
			c-0.1-0.1-0.1-0.2-0.1-0.3c0-0.1,0-0.2,0-0.3c0,0,0-0.1,0-0.1c0,0,0,0,0-0.1c-0.1-0.1-0.1-0.2-0.2-0.3c0-0.1,0-0.2,0-0.3
			c0,0,0-0.1,0-0.1c0,0,0,0-0.1-0.1c-0.1-0.1-0.1-0.1-0.2-0.3c0-0.1,0-0.2,0-0.3c0,0,0-0.1,0-0.1c0,0,0,0-0.1-0.1
			c-0.1-0.1-0.2-0.1-0.2-0.2c-0.1-0.1-0.1-0.2-0.1-0.3c0,0,0-0.1,0-0.1c0,0,0,0-0.1,0c-0.1-0.1-0.2-0.1-0.2-0.2
			c-0.1-0.1-0.1-0.2-0.1-0.3c0,0,0-0.1,0-0.1c0,0,0,0-0.1,0c-0.1,0-0.2-0.1-0.2-0.2c-0.1-0.1-0.1-0.2-0.1-0.3c0,0,0-0.1,0-0.1
			c0,0,0,0-0.1,0c-0.1,0-0.2-0.1-0.3-0.2c-0.1-0.1-0.1-0.2-0.1-0.3c0,0,0-0.1,0-0.1c0,0,0,0,0,0c0,0-0.1,0-0.1-0.1
			c-0.1,0.1-0.3,0.1-0.4,0c-0.1-0.1-0.1-0.3,0-0.4c0.1-0.1,0.2-0.1,0.3-0.1c0,0,0,0,0,0c0.1,0,0.2,0,0.3,0.1c0,0,0,0,0.1,0
			c0.1,0,0.2,0.1,0.2,0.2c0.1,0.1,0.1,0.2,0.1,0.3c0,0,0,0.1,0,0.1c0,0,0,0,0.1,0c0.1,0,0.2,0.1,0.3,0.2c0.1,0.1,0.1,0.2,0.1,0.3
			c0,0,0,0.1,0,0.1c0,0,0,0,0.1,0c0.1,0,0.2,0.1,0.3,0.2c0.1,0.1,0.1,0.2,0.1,0.3c0,0,0,0.1,0,0.1c0,0,0,0,0.1,0.1
			c0.1,0.1,0.2,0.1,0.2,0.2c0.1,0.1,0.1,0.2,0.1,0.3c0,0,0,0.1,0,0.1c0,0,0,0,0.1,0.1c0.1,0.1,0.2,0.1,0.2,0.3c0.1,0.1,0,0.2,0,0.3
			c0,0,0,0.1,0,0.1c0,0,0,0,0.1,0.1c0.1,0.1,0.1,0.2,0.2,0.3c0,0.1,0,0.3,0,0.3c0,0,0,0.1,0,0.1c0,0,0,0,0,0.1
			c0.1,0.1,0.1,0.2,0.2,0.3c0,0.1,0,0.3,0,0.3c0,0,0,0.1,0,0.1c0,0,0,0,0,0.1c0.1,0.1,0.1,0.2,0.1,0.3c0,0.1,0,0.3-0.1,0.3
			c0,0,0,0.1,0,0.1c0,0,0,0.1,0,0.1c0,0.1,0.1,0.2,0.1,0.3c0,0.1,0,0.2-0.1,0.3c0,0,0,0.1,0,0.1c0,0,0,0.1,0,0.1
			c0,0.1,0.1,0.2,0.1,0.3c0,0.1-0.1,0.2-0.1,0.3c0,0,0,0.1,0,0.1c0,0,0,0.1,0,0.1c0,0.1,0.1,0.2,0,0.3c0,0.1-0.1,0.2-0.1,0.3
			c0,0,0,0.1,0,0.1c0,0,0,0.1,0,0.1c0,0.1,0,0.2,0,0.3c0,0.1-0.1,0.2-0.2,0.3c0,0,0,0-0.1,0.1c0,0,0,0.1,0,0.1c0,0.1,0,0.2,0,0.3
			c-0.1,0.1-0.1,0.2-0.2,0.3c0,0,0,0-0.1,0.1c0,0,0,0.1,0,0.1c0,0.1,0,0.2-0.1,0.3c-0.1,0.1-0.2,0.2-0.2,0.2c0,0-0.1,0-0.1,0
			c0,0,0,0.1,0,0.1c0,0.1,0,0.2-0.1,0.3c-0.1,0.1-0.2,0.2-0.3,0.2c0,0-0.1,0-0.1,0c0,0,0,0.1,0,0.1c0,0.1-0.1,0.2-0.1,0.3
			c-0.1,0.1-0.1,0.1-0.2,0.1c0,0.1,0,0.1-0.1,0.2c0,0,0,0,0,0c0,0,0,0,0,0c0,0,0,0,0,0c0,0,0,0,0,0c0,0,0,0,0,0c0,0,0,0,0,0
			c0,0,0,0,0,0c0,0,0,0,0,0c0,0,0,0,0,0c0,0,0,0,0,0c0,0,0,0,0,0c0,0,0,0,0,0c0,0,0,0,0,0c0,0,0,0,0,0
			C23.6,23.5,23.5,23.5,23.3,23.4C23.3,23.4,23.3,23.4,23.3,23.4z M23.3,23c-0.1,0.1-0.1,0.2,0,0.3c0,0,0.1,0,0.1,0l0,0l0-0.2
			L23.3,23z M23.6,22.7C23.6,22.7,23.6,22.7,23.6,22.7S23.6,22.7,23.6,22.7z M24.2,22.7L24.2,22.7C24.2,22.7,24.2,22.7,24.2,22.7z
			 M24.1,22.1L24.1,22.1C24.1,22.1,24.1,22.1,24.1,22.1z M24.7,22L24.7,22L24.7,22z M25,21.3 M24.8,20.8L24.8,20.8L24.8,20.8z
			 M25.3,20.6L25.3,20.6L25.3,20.6z M25,20.1C25,20.1,25,20.1,25,20.1C25,20.1,25,20.1,25,20.1z M25,20C25,20,25,20,25,20L25,20z
			 M25.6,19.8C25.6,19.8,25.6,19.8,25.6,19.8S25.6,19.8,25.6,19.8z M25.2,19.3L25.2,19.3L25.2,19.3z M25.2,19.3L25.2,19.3L25.2,19.3
			z M25.3,18.6C25.3,18.6,25.3,18.6,25.3,18.6L25.3,18.6z M25.3,17.8 M25.2,17.1L25.2,17.1L25.2,17.1z M25.2,17L25.2,17
			C25.2,17,25.2,17,25.2,17z M25.7,17.4L25.7,17.4L25.7,17.4z M25.7,17.4C25.7,17.4,25.7,17.4,25.7,17.4S25.7,17.4,25.7,17.4z
			 M25.1,16.3L25.1,16.3L25.1,16.3z M25.6,16.6L25.6,16.6L25.6,16.6z M24.9,15.6L24.9,15.6L24.9,15.6z M24.9,15.6
			C24.9,15.6,24.9,15.6,24.9,15.6L24.9,15.6z M24.6,14.9L24.6,14.9L24.6,14.9z M25.2,15.1L25.2,15.1L25.2,15.1z M24.3,14.2
			L24.3,14.2L24.3,14.2z M25.2,15.1L25.2,15.1C25.2,15.1,25.2,15.1,25.2,15.1z M24.3,14.2L24.3,14.2L24.3,14.2z M24.5,13.6
			L24.5,13.6L24.5,13.6z M24.5,13.6L24.5,13.6L24.5,13.6z M23.6,12.3L23.6,12.3L23.6,12.3z"/>
		<g>
			<path class="st2" d="M23,11.5c-3.4-3.4-8.6-3.8-11.6-0.8c0,0,0,0,0,0.1l6.3,6.4l5.6-5.5C23.1,11.7,23.1,11.6,23,11.5z M13.9,11.9
				l-0.4-0.8c-0.1-0.2,0-0.3,0.1-0.4l0.7-0.3c0.2-0.1,0.3,0,0.4,0.1l0.4,0.8c0.1,0.2,0,0.3-0.1,0.4l-0.7,0.3
				C14.1,12.1,13.9,12.1,13.9,11.9z M16.2,10.9c-0.3-0.3-0.3-0.7,0-1c0.3-0.3,0.7-0.3,1,0s0.3,0.7,0,1
				C16.9,11.1,16.5,11.1,16.2,10.9z M16.7,14.5c-0.3-0.3-0.3-0.7,0-1c0.3-0.3,0.7-0.3,1,0c0.3,0.3,0.3,0.7,0,1
				C17.4,14.7,17,14.7,16.7,14.5z M19.8,12.9l-0.8-0.4c-0.2-0.1-0.2-0.3-0.2-0.4l0.3-0.7c0.1-0.2,0.3-0.2,0.4-0.2l0.8,0.4
				c0.2,0.1,0.2,0.3,0.2,0.4l-0.3,0.7C20.1,12.9,19.9,12.9,19.8,12.9z"/>
		</g>
	</g>
</g>
<g id="c5" class="st0">
	<g class="st1">
		<path class="st2" d="M52.1,29.9l-19.4-3.1L2.4,17.5c-0.1,0.2-0.1,0.3-0.2,0.5c-1.3,4.3,4.5,9.9,13.1,12.5c6.7,2.1,13,1.7,16.1-0.6
			L51.2,33c0.9,0.3,1.8-0.2,2-1.1S53,30.2,52.1,29.9z"/>
	</g>
	<g class="st1">
		<path class="st2" d="M15.2,39.1c-0.4,0.7-1.6,1.3-2.5,1.1c-0.9-0.1-1.7-1-1.2-1.7c0.5-0.7,3.6-0.8,3.4-1.5
			C14.7,36.3,15.6,38.4,15.2,39.1z"/>
	</g>
	<g class="st1">
		<path class="st2" d="M25.3,39.1c-0.4,0.7-1.6,1.3-2.5,1.2c-0.9-0.1-1.8-1-1.2-1.7c0.5-0.7,3.6-0.8,3.5-1.6S25.7,38.4,25.3,39.1z"
			/>
	</g>
	<g class="st1">
		<path class="st2" d="M21.1,39.3c-0.4,1.1-2.1,2-3.4,1.9c-1.3-0.1-2.6-1.5-1.9-2.5s4.8-1.3,4.5-2.5C20,35,21.6,38.1,21.1,39.3z"/>
	</g>
	<g class="st1">
		<path class="st2" d="M18.6,13.2c-0.8-2.9-1.2-5.8-0.9-8.1c0.2-2.4,1.1-3.9,2.3-4.3c0,0,0.1,0,0.1,0l0.3-0.1l6.3,22.2l-0.3,0.1
			c0,0,0,0-0.1,0c-1.3,0.4-2.8-0.5-4.2-2.4C20.6,18.7,19.4,16.1,18.6,13.2z M19.9,1.5c-0.9,0.4-1.5,1.7-1.6,3.7
			c-0.2,2.2,0.1,5,0.9,7.9c0.8,2.8,2,5.4,3.4,7.2c1.2,1.5,2.4,2.3,3.3,2.2L19.9,1.5z"/>
		<path class="st2" d="M25.2,20.2C25.2,20.1,25.2,20.1,25.2,20.2C25.2,20.1,25.2,20.1,25.2,20.2c0-0.2-0.1-0.2,0-0.3
			c0-0.1,0.1-0.1,0.2-0.1c0,0,0,0,0,0c0,0,0,0,0,0c0,0,0,0,0,0c0,0,0,0,0,0c0,0,0,0,0,0c0,0,0,0,0,0c0,0,0,0,0,0c0,0,0,0,0,0
			c0,0,0,0,0,0c0,0,0,0,0,0c0,0,0,0,0,0c0,0,0,0,0,0c0.1,0,0.2,0,0.3,0c0,0,0.1,0,0.1,0c0,0,0,0,0.1-0.1c0.1-0.1,0.1-0.1,0.3-0.2
			c0.1,0,0.2,0,0.3,0c0,0,0.1,0,0.1,0c0,0,0,0,0-0.1c0.1-0.1,0.1-0.2,0.2-0.2C26.9,19,27,19,27.1,19c0,0,0.1,0,0.1,0c0,0,0,0,0-0.1
			c0-0.1,0.1-0.2,0.2-0.2c0.1-0.1,0.2-0.1,0.3-0.1c0,0,0.1,0,0.1,0c0,0,0,0,0-0.1c0-0.1,0.1-0.2,0.2-0.3c0.1-0.1,0.2-0.1,0.3-0.1
			c0,0,0.1,0,0.1,0c0,0,0-0.1,0-0.1c0-0.1,0.1-0.2,0.1-0.3c0.1-0.1,0.2-0.1,0.3-0.2c0,0,0.1,0,0.1,0c0,0,0-0.1,0-0.1
			c0-0.1,0-0.2,0.1-0.3c0.1-0.1,0.2-0.2,0.2-0.2c0,0,0,0,0.1,0c0,0,0-0.1,0-0.1c0-0.1,0-0.2,0.1-0.3c0.1-0.1,0.1-0.2,0.2-0.2
			c0,0,0,0,0.1,0c0,0,0-0.1,0-0.1c0-0.1,0-0.2,0-0.3c0.1-0.1,0.1-0.2,0.2-0.2c0,0,0,0,0.1-0.1c0,0,0-0.1,0-0.1c0-0.1,0-0.2,0-0.3
			c0-0.1,0.1-0.2,0.2-0.3c0,0,0,0,0.1-0.1c0,0,0-0.1,0-0.1c0-0.1,0-0.2,0-0.3c0-0.1,0.1-0.2,0.2-0.3c0,0,0,0,0-0.1c0,0,0-0.1,0-0.1
			c0-0.1-0.1-0.2,0-0.3c0-0.1,0.1-0.2,0.1-0.3c0,0,0,0,0-0.1c0,0,0-0.1,0-0.1c0-0.1-0.1-0.2-0.1-0.3c0-0.1,0.1-0.2,0.1-0.3
			c0,0,0-0.1,0-0.1c0,0,0,0,0-0.1c0-0.1-0.1-0.2-0.1-0.3c0-0.1,0-0.2,0.1-0.3c0,0,0-0.1,0-0.1c0,0,0,0,0-0.1c0-0.1-0.1-0.2-0.1-0.3
			c0-0.1,0-0.2,0.1-0.3c0,0,0-0.1,0-0.1c0,0,0,0,0-0.1c-0.1-0.1-0.1-0.2-0.1-0.3c0-0.1,0-0.2,0-0.3c0,0,0-0.1,0-0.1c0,0,0,0,0,0
			c0,0,0-0.1-0.1-0.1c-0.1,0-0.3-0.1-0.3-0.2c0-0.2,0-0.3,0.2-0.4c0.2,0,0.3,0,0.4,0c0,0,0,0,0,0c0.1,0,0.2,0.1,0.2,0.2
			c0,0,0,0,0,0.1c0,0.1,0.1,0.1,0.1,0.3c0,0.1,0,0.3,0,0.3c0,0,0,0.1,0,0.1c0,0,0,0,0,0.1c0.1,0.1,0.1,0.2,0.1,0.3
			c0,0.1,0,0.3-0.1,0.3c0,0,0,0.1,0,0.1c0,0,0,0.1,0,0.1c0,0.1,0.1,0.2,0.1,0.3c0,0.1,0,0.2-0.1,0.3c0,0,0,0.1,0,0.1
			c0,0,0,0.1,0,0.1c0,0.1,0.1,0.2,0.1,0.3c0,0.1-0.1,0.2-0.1,0.3c0,0,0,0.1,0,0.1c0,0,0,0.1,0,0.1c0,0.1,0.1,0.2,0.1,0.3
			c0,0.1-0.1,0.2-0.1,0.3c0,0,0,0.1,0,0.1c0,0,0,0.1,0,0.1c0,0.1,0.1,0.2,0,0.3c0,0.1-0.1,0.2-0.2,0.3c0,0,0,0,0,0.1
			c0,0,0,0.1,0,0.1c0,0.1,0,0.2,0,0.3c0,0.1-0.1,0.2-0.2,0.3c0,0,0,0-0.1,0.1c0,0,0,0.1,0,0.1c0,0.1,0,0.2,0,0.3
			c0,0.1-0.1,0.2-0.2,0.3c0,0,0,0-0.1,0.1c0,0,0,0.1,0,0.1c0,0.1,0,0.2-0.1,0.3c-0.1,0.1-0.2,0.2-0.2,0.2c0,0,0,0-0.1,0.1
			c0,0,0,0.1,0,0.1c0,0.1,0,0.2-0.1,0.3c-0.1,0.1-0.2,0.2-0.3,0.2c0,0-0.1,0-0.1,0c0,0,0,0.1,0,0.1c0,0.1,0,0.2-0.1,0.3
			C29.2,17.9,29.1,18,29,18c0,0-0.1,0-0.1,0c0,0,0,0.1,0,0.1c0,0.1-0.1,0.2-0.2,0.3c-0.1,0.1-0.2,0.1-0.3,0.2c0,0-0.1,0-0.1,0
			c0,0,0,0.1,0,0.1c0,0.1-0.1,0.2-0.2,0.3c-0.1,0.1-0.2,0.1-0.3,0.1c0,0-0.1,0-0.1,0c0,0,0,0,0,0.1c0,0.1-0.1,0.2-0.2,0.3
			c-0.1,0.1-0.2,0.1-0.3,0.1c0,0-0.1,0-0.1,0c0,0,0,0-0.1,0.1c-0.1,0.1-0.1,0.2-0.3,0.2C26.7,20,26.5,20,26.4,20c0,0-0.1,0-0.1,0
			c0,0,0,0-0.1,0.1c-0.1,0.1-0.2,0.2-0.3,0.2c-0.1,0-0.2,0-0.2,0c0,0.1-0.1,0.1-0.1,0.1c0,0,0,0,0,0c0,0,0,0,0,0c0,0,0,0,0,0
			c0,0,0,0,0,0c0,0,0,0,0,0c0,0,0,0,0,0c0,0,0,0,0,0c0,0,0,0,0,0c0,0,0,0,0,0c0,0,0,0,0,0c0,0,0,0,0,0c0,0,0,0,0,0c0,0,0,0,0,0
			c0,0,0,0,0,0C25.5,20.4,25.3,20.3,25.2,20.2C25.2,20.2,25.2,20.2,25.2,20.2z M25.4,19.8c-0.1,0.1-0.2,0.2-0.1,0.3
			c0,0,0,0.1,0.1,0.1l0,0l0.1-0.2L25.4,19.8z M25.9,19.7C25.9,19.7,25.9,19.7,25.9,19.7S25.9,19.7,25.9,19.7z M26.4,20L26.4,20
			C26.4,20,26.4,20,26.4,20z M26.5,19.4L26.5,19.4C26.5,19.4,26.5,19.4,26.5,19.4z M27.1,19.6L27.1,19.6L27.1,19.6z M27.8,19.2
			 M27.8,18.6L27.8,18.6L27.8,18.6z M28.4,18.7L28.4,18.7L28.4,18.7z M28.3,18.1C28.3,18.1,28.3,18.1,28.3,18.1
			C28.3,18.1,28.3,18.1,28.3,18.1z M28.4,18.1C28.4,18.1,28.4,18.1,28.4,18.1L28.4,18.1z M29,18.1C29,18.1,29,18.1,29,18.1
			S29,18.1,29,18.1z M28.8,17.5L28.8,17.5L28.8,17.5z M28.9,17.5L28.9,17.5L28.9,17.5z M29.3,16.9C29.3,16.9,29.3,16.9,29.3,16.9
			L29.3,16.9z M29.6,16.2 M30,15.5L30,15.5L30,15.5z M30,15.5L30,15.5C30,15.5,30,15.5,30,15.5z M30.2,16.1L30.2,16.1L30.2,16.1z
			 M30.2,16C30.2,16,30.2,16,30.2,16S30.2,16,30.2,16z M30.2,14.8L30.2,14.8L30.2,14.8z M30.5,15.3L30.5,15.3L30.5,15.3z M30.4,14.1
			L30.4,14.1L30.4,14.1z M30.4,14.1C30.4,14.1,30.4,14.1,30.4,14.1L30.4,14.1z M30.5,13.3L30.5,13.3L30.5,13.3z M30.9,13.8
			L30.9,13.8L30.9,13.8z M30.5,12.6L30.5,12.6L30.5,12.6z M30.9,13.7L30.9,13.7C30.9,13.7,30.9,13.7,30.9,13.7z M30.5,12.5
			L30.5,12.5L30.5,12.5z M31,12.2L31,12.2L31,12.2z M31,12.2L31,12.2L31,12.2z M30.8,10.6L30.8,10.6L30.8,10.6z"/>
		<g>
			<path class="st2" d="M30.7,9.6c-1.3-4.6-5.7-7.4-9.9-6.3c0,0,0,0-0.1,0l2.5,8.7l7.5-2.1C30.7,9.8,30.7,9.7,30.7,9.6z M22.5,5.6
				l0-0.9c0-0.2,0.2-0.3,0.3-0.3l0.8,0c0.2,0,0.3,0.2,0.3,0.3l0,0.9c0,0.2-0.2,0.3-0.3,0.3l-0.8,0C22.6,5.9,22.5,5.7,22.5,5.6z
				 M25.1,5.8C25,5.4,25.2,5,25.6,4.9c0.4-0.1,0.7,0.1,0.9,0.5c0.1,0.4-0.1,0.7-0.5,0.9C25.6,6.3,25.2,6.1,25.1,5.8z M23.8,9.2
				c-0.1-0.4,0.1-0.7,0.5-0.9c0.4-0.1,0.7,0.1,0.9,0.5c0.1,0.4-0.1,0.7-0.5,0.9C24.3,9.7,23.9,9.5,23.8,9.2z M27.2,9.2l-0.6-0.7
				c-0.1-0.1-0.1-0.3,0.1-0.4l0.6-0.5c0.1-0.1,0.3-0.1,0.4,0.1l0.6,0.7c0.1,0.1,0.1,0.3-0.1,0.4l-0.6,0.5
				C27.5,9.4,27.3,9.3,27.2,9.2z"/>
		</g>
	</g>
</g>
<g id="c6" class="st0">
	<g class="st1">
		<path class="st2" d="M52.2,25.5L32.5,26L1,22c0,0.2-0.1,0.3-0.1,0.5C0.4,27,7.1,31.5,16,32.6c7,0.9,13.1-0.6,15.8-3.4l20-0.4
			c0.9,0.1,1.7-0.5,1.8-1.4S53.1,25.6,52.2,25.5z"/>
	</g>
	<g class="st1">
		<path class="st2" d="M14.5,38.8c-0.1,0.7-0.9,1.4-1.7,1.3c-0.8-0.1-1.5-0.9-1.2-1.5s2.3-0.9,1.9-1.4
			C13.1,36.6,14.6,38.1,14.5,38.8z"/>
	</g>
	<g class="st1">
		<path class="st2" d="M24.5,38.8c-0.1,0.7-0.9,1.3-1.7,1.3c-0.8,0-1.5-0.8-1.2-1.5c0.3-0.7,2.3-0.9,2-1.5
			C23.2,36.6,24.6,38,24.5,38.8z"/>
	</g>
	<g class="st1">
		<path class="st2" d="M20.8,39c-0.3,1.3-1.6,2.5-3,2.4c-1.5-0.1-2.8-1.5-2.3-2.8c0.5-1.3,4.3-1.6,3.6-2.7
			C18.3,34.9,21,37.7,20.8,39z"/>
	</g>
	<g class="st1">
		<path class="st2" d="M23.8,7.3c1.8-2.5,3.8-4.5,5.8-5.7c2-1.3,3.7-1.6,4.8-0.8c0,0,0,0,0.1,0L34.7,1L21.1,19.7l-0.2-0.2
			c0,0,0,0-0.1,0c-1.1-0.8-1.3-2.5-0.7-4.8C20.7,12.4,22,9.8,23.8,7.3z M33.8,1.2c-0.9-0.4-2.3-0.1-3.9,1C28,3.3,26,5.3,24.3,7.7
			c-1.7,2.4-3,4.9-3.6,7.1c-0.5,1.9-0.4,3.3,0.3,4L33.8,1.2z"/>
		<path class="st2" d="M22.4,16.9C22.4,16.9,22.4,16.9,22.4,16.9C22.4,16.9,22.4,16.9,22.4,16.9c0.1-0.1,0.2-0.2,0.3-0.2
			c0.1,0,0.2,0,0.2,0.1c0,0,0,0,0,0c0,0,0,0,0,0c0,0,0,0,0,0c0,0,0,0,0,0c0,0,0,0,0,0c0,0,0,0,0,0c0,0,0,0,0,0c0,0,0,0,0,0
			c0,0,0,0,0,0c0,0,0,0,0,0c0,0,0,0,0,0c0,0,0,0,0,0c0.1,0.1,0.2,0.2,0.2,0.2c0,0,0,0,0,0.1c0,0,0.1,0,0.1,0c0.1,0,0.2,0,0.3,0.1
			c0.1,0.1,0.2,0.1,0.2,0.2c0,0,0,0,0,0.1c0,0,0.1,0,0.1,0c0.1,0,0.2,0,0.3,0c0.1,0,0.2,0.1,0.3,0.2c0,0,0,0,0.1,0.1
			c0,0,0.1,0,0.1,0c0.1,0,0.2,0,0.3,0c0.1,0,0.2,0.1,0.3,0.2c0,0,0,0,0.1,0c0,0,0.1,0,0.1,0c0.1,0,0.2-0.1,0.3,0
			c0.1,0,0.2,0.1,0.3,0.1c0,0,0,0,0.1,0c0,0,0.1,0,0.1,0c0.1,0,0.2-0.1,0.3-0.1c0.1,0,0.2,0.1,0.3,0.1c0,0,0.1,0,0.1,0
			c0,0,0,0,0.1,0c0.1,0,0.2-0.1,0.3-0.1c0.1,0,0.2,0,0.3,0.1c0,0,0.1,0,0.1,0c0,0,0,0,0.1,0c0.1,0,0.2-0.1,0.3-0.1
			c0.1,0,0.2,0,0.3,0c0,0,0.1,0,0.1,0c0,0,0,0,0.1,0c0.1-0.1,0.2-0.1,0.3-0.2c0.1,0,0.2,0,0.3,0c0,0,0.1,0,0.1,0c0,0,0,0,0.1-0.1
			c0.1-0.1,0.1-0.1,0.3-0.2c0.1,0,0.2,0,0.3,0c0,0,0.1,0,0.1,0c0,0,0,0,0.1-0.1c0.1-0.1,0.1-0.2,0.2-0.2c0.1-0.1,0.2-0.1,0.3-0.1
			c0,0,0.1,0,0.1,0c0,0,0,0,0-0.1c0.1-0.1,0.1-0.2,0.2-0.2c0.1-0.1,0.2-0.1,0.3-0.1c0,0,0.1,0,0.1,0c0,0,0,0,0-0.1
			c0-0.1,0.1-0.2,0.2-0.2c0.1-0.1,0.2-0.1,0.3-0.1c0,0,0.1,0,0.1,0c0,0,0,0,0-0.1c0-0.1,0.1-0.2,0.2-0.3c0.1-0.1,0.2-0.1,0.3-0.1
			c0,0,0.1,0,0.1,0c0,0,0,0,0-0.1c0-0.1,0.1-0.2,0.2-0.3c0.1-0.1,0.2-0.1,0.3-0.2c0,0,0.1,0,0.1,0c0,0,0-0.1,0-0.1
			c0-0.1,0.1-0.2,0.1-0.3c0.1-0.1,0.2-0.1,0.3-0.2c0,0,0.1,0,0.1,0c0,0,0,0,0-0.1c0,0,0-0.1,0-0.1c-0.1-0.1-0.1-0.2,0-0.4
			c0.1-0.1,0.3-0.2,0.4-0.1c0.1,0.1,0.2,0.2,0.2,0.3c0,0,0,0,0,0c0,0.1,0,0.2,0,0.3c0,0,0,0,0,0.1c0,0.1,0,0.2-0.1,0.3
			c-0.1,0.1-0.2,0.2-0.3,0.2c0,0-0.1,0-0.1,0c0,0,0,0.1,0,0.1c0,0.1-0.1,0.2-0.2,0.3c-0.1,0.1-0.2,0.1-0.3,0.2c0,0-0.1,0-0.1,0
			c0,0,0,0.1,0,0.1c0,0.1-0.1,0.2-0.2,0.3c-0.1,0.1-0.2,0.1-0.3,0.1c0,0-0.1,0-0.1,0c0,0,0,0,0,0.1c0,0.1-0.1,0.2-0.2,0.3
			c-0.1,0.1-0.2,0.1-0.3,0.1c0,0-0.1,0-0.1,0c0,0,0,0,0,0.1c0,0.1-0.1,0.2-0.2,0.3c-0.1,0.1-0.2,0.1-0.3,0.1c0,0-0.1,0-0.1,0
			c0,0,0,0-0.1,0.1c-0.1,0.1-0.1,0.2-0.2,0.2c-0.1,0.1-0.2,0.1-0.3,0.1c0,0-0.1,0-0.1,0c0,0,0,0-0.1,0.1C30.1,17.9,30,18,29.9,18
			c-0.1,0.1-0.2,0-0.3,0c0,0-0.1,0-0.1,0c0,0,0,0-0.1,0.1c-0.1,0.1-0.2,0.1-0.3,0.2c-0.1,0-0.3,0-0.3,0c0,0-0.1,0-0.1,0
			c0,0,0,0-0.1,0c-0.1,0.1-0.2,0.1-0.3,0.2c-0.1,0-0.3,0-0.3,0c0,0-0.1,0-0.1,0c0,0,0,0-0.1,0c-0.1,0-0.2,0.1-0.3,0.1
			c-0.1,0-0.3,0-0.3-0.1c0,0-0.1,0-0.1,0c0,0-0.1,0-0.1,0c-0.1,0-0.2,0.1-0.3,0.1c-0.1,0-0.2-0.1-0.3-0.1c0,0-0.1,0-0.1,0
			c0,0-0.1,0-0.1,0c-0.1,0-0.2,0.1-0.3,0.1c-0.1,0-0.2-0.1-0.3-0.1c0,0-0.1,0-0.1,0c0,0-0.1,0-0.1,0c-0.1,0-0.2,0.1-0.3,0
			c-0.1,0-0.2-0.1-0.3-0.2c0,0,0,0-0.1,0c0,0-0.1,0-0.1,0c-0.1,0-0.2,0-0.3,0c-0.1,0-0.2-0.1-0.3-0.2c0,0,0,0-0.1-0.1
			c0,0-0.1,0-0.1,0c-0.1,0-0.2,0-0.3-0.1c-0.1-0.1-0.2-0.2-0.3-0.2c0,0,0-0.1-0.1-0.1c0,0-0.1,0-0.1,0c-0.1,0-0.2,0-0.3-0.1
			c-0.1-0.1-0.1-0.1-0.2-0.2c-0.1,0-0.1,0-0.2-0.1c0,0,0,0,0,0c0,0,0,0,0,0c0,0,0,0,0,0c0,0,0,0,0,0c0,0,0,0,0,0c0,0,0,0,0,0
			c0,0,0,0,0,0c0,0,0,0,0,0c0,0,0,0,0,0c0,0,0,0,0,0c0,0,0,0,0,0c0,0,0,0,0,0c0,0,0,0,0,0c0,0,0,0,0,0
			C22.4,17.2,22.3,17.1,22.4,16.9C22.4,17,22.4,16.9,22.4,16.9z M22.8,16.8c-0.1,0-0.2,0-0.3,0c0,0,0,0.1,0,0.1l0,0l0.2,0L22.8,16.8
			z M23.2,17.1C23.2,17.1,23.2,17.1,23.2,17.1S23.2,17.1,23.2,17.1z M23.3,17.7L23.3,17.7C23.3,17.7,23.3,17.7,23.3,17.7z
			 M23.8,17.5L23.8,17.5C23.8,17.5,23.8,17.5,23.8,17.5z M24,18L24,18L24,18z M24.8,18.3 M25.2,18L25.2,18L25.2,18z M25.5,18.5
			L25.5,18.5L25.5,18.5z M26,18.1C26,18.1,26,18.1,26,18.1C26,18.1,26,18.1,26,18.1z M26,18.1C26,18.1,26,18.1,26,18.1L26,18.1z
			 M26.3,18.5C26.3,18.5,26.3,18.5,26.3,18.5S26.3,18.5,26.3,18.5z M26.7,18.1L26.7,18.1L26.7,18.1z M26.7,18.1L26.7,18.1L26.7,18.1
			z M27.5,18.1C27.5,18.1,27.5,18.1,27.5,18.1L27.5,18.1z M28.2,18 M29,17.8L29,17.8L29,17.8z M29,17.8L29,17.8
			C29,17.8,29,17.8,29,17.8z M28.7,18.3L28.7,18.3L28.7,18.3z M28.7,18.3C28.7,18.3,28.7,18.3,28.7,18.3S28.7,18.3,28.7,18.3z
			 M29.7,17.5L29.7,17.5L29.7,17.5z M29.5,18.1L29.5,18.1L29.5,18.1z M30.4,17.2L30.4,17.2L30.4,17.2z M30.4,17.2
			C30.4,17.2,30.4,17.2,30.4,17.2L30.4,17.2z M31,16.8L31,16.8L31,16.8z M30.9,17.4L30.9,17.4L30.9,17.4z M31.7,16.4L31.7,16.4
			L31.7,16.4z M30.9,17.4L30.9,17.4C30.9,17.4,30.9,17.4,30.9,17.4z M31.7,16.4L31.7,16.4L31.7,16.4z M32.2,16.5L32.2,16.5
			L32.2,16.5z M32.3,16.5L32.3,16.5L32.3,16.5z M33.4,15.4L33.4,15.4L33.4,15.4z"/>
		<g>
			<path class="st2" d="M34,14.7c2.8-3.9,2.3-9.1-1.2-11.6c0,0,0,0-0.1,0l-5.3,7.3l6.3,4.6C33.9,14.8,34,14.8,34,14.7z M32.2,5.7
				l0.8-0.5c0.1-0.1,0.3-0.1,0.4,0.1l0.4,0.6c0.1,0.1,0.1,0.3-0.1,0.4L33,6.9c-0.1,0.1-0.3,0.1-0.4-0.1l-0.4-0.6
				C32,6,32,5.8,32.2,5.7z M33.6,7.9c0.2-0.3,0.7-0.4,1-0.2c0.3,0.2,0.4,0.7,0.2,1c-0.2,0.3-0.7,0.4-1,0.2
				C33.5,8.6,33.4,8.2,33.6,7.9z M30.1,9c0.2-0.3,0.7-0.4,1-0.2c0.3,0.2,0.4,0.7,0.2,1c-0.2,0.3-0.7,0.4-1,0.2
				C30,9.7,29.9,9.3,30.1,9z M32.2,11.7l0.2-0.9c0-0.2,0.2-0.3,0.4-0.2l0.7,0.2c0.2,0,0.3,0.2,0.2,0.4L33.6,12
				c0,0.2-0.2,0.3-0.4,0.2l-0.7-0.2C32.3,12,32.2,11.9,32.2,11.7z"/>
		</g>
	</g>
</g>
<g id="c7" class="st0">
	<g class="st1">
		<path class="st2" d="M51.7,22.4l-19.4,2.8l-31.8,0c0,0.2,0,0.3,0,0.5c0,4.5,7.2,8.1,16.2,8.1c7,0,13-2.2,15.2-5.4l19.8-2.8
			c0.9,0,1.6-0.7,1.6-1.6S52.5,22.4,51.7,22.4z"/>
	</g>
	<g class="st1">
		<path class="st2" d="M14.3,38.6c0,0.9-0.7,1.7-1.5,1.7c-0.8,0-1.5-0.8-1.5-1.7c0-0.9,2.4-0.8,1.5-1.7C11.9,36,14.3,37.6,14.3,38.6
			z"/>
	</g>
	<g class="st1">
		<path class="st2" d="M24.3,38.6c0,0.9-0.7,1.7-1.5,1.7s-1.5-0.8-1.5-1.7c0-0.9,2.4-0.8,1.5-1.7S24.3,37.6,24.3,38.6z"/>
	</g>
	<g class="st1">
		<path class="st2" d="M20,38.6c0,1.4-1,2.5-2.3,2.5s-2.3-1.1-2.3-2.5s3.6-1.2,2.3-2.5S20,37.2,20,38.6z"/>
	</g>
	<g class="st1">
		<path class="st2" d="M31,3c2.8,1.1,5.3,2.6,7,4.2c1.8,1.6,2.5,3.2,2,4.4c0,0,0,0,0,0.1L39.9,12L18.5,3.6l0.1-0.3c0,0,0,0,0-0.1
			c0.5-1.2,2.1-1.9,4.5-1.9C25.4,1.3,28.2,1.9,31,3z M39.6,11.2c0.2-0.9-0.5-2.2-1.9-3.5c-1.6-1.5-4.1-3-6.8-4
			C28.1,2.5,25.3,2,23.1,2c-1.9,0-3.3,0.5-3.8,1.3L39.6,11.2z"/>
		<path class="st2" d="M21.5,4.1C21.5,4.1,21.5,4.1,21.5,4.1C21.5,4.1,21.5,4.2,21.5,4.1c0.2,0.1,0.2,0.1,0.3,0.2c0,0.1,0,0.2,0,0.2
			c0,0,0,0,0,0c0,0,0,0,0,0c0,0,0,0,0,0c0,0,0,0,0,0c0,0,0,0,0,0c0,0,0,0,0,0c0,0,0,0,0,0c0,0,0,0,0,0c0,0,0,0,0,0c0,0,0,0,0,0
			c0,0,0,0,0,0c0,0,0,0,0,0c0,0.1-0.1,0.2-0.2,0.3c0,0,0,0-0.1,0.1c0,0,0,0.1,0,0.1c0,0.1,0,0.2,0,0.3c0,0.1-0.1,0.2-0.2,0.3
			c0,0,0,0,0,0.1c0,0,0,0.1,0,0.1c0,0.1,0.1,0.2,0,0.3c0,0.1-0.1,0.2-0.1,0.3c0,0,0,0,0,0.1c0,0,0,0,0,0.1c0,0.1,0.1,0.2,0.1,0.3
			c0,0.1,0,0.2-0.1,0.3c0,0,0,0.1,0,0.1c0,0,0,0,0,0.1c0,0.1,0.1,0.2,0.1,0.3c0,0.1,0,0.2-0.1,0.3c0,0,0,0.1,0,0.1c0,0,0,0,0,0.1
			c0.1,0.1,0.1,0.2,0.1,0.3c0,0.1,0,0.2,0,0.3c0,0,0,0.1,0,0.1c0,0,0,0,0,0.1c0.1,0.1,0.1,0.1,0.2,0.3c0,0.1,0,0.2,0,0.3
			c0,0,0,0.1,0,0.1c0,0,0,0,0.1,0.1c0.1,0.1,0.1,0.1,0.2,0.2c0,0.1,0,0.2,0,0.3c0,0,0,0.1,0,0.1c0,0,0,0,0.1,0
			c0.1,0.1,0.2,0.1,0.2,0.2c0.1,0.1,0.1,0.2,0.1,0.3c0,0,0,0.1,0,0.1c0,0,0,0,0.1,0c0.1,0,0.2,0.1,0.2,0.2c0.1,0.1,0.1,0.2,0.1,0.3
			c0,0,0,0.1,0,0.1c0,0,0,0,0.1,0c0.1,0,0.2,0.1,0.3,0.2c0.1,0.1,0.1,0.2,0.1,0.3c0,0,0,0.1,0,0.1c0,0,0,0,0.1,0
			c0.1,0,0.2,0.1,0.3,0.2c0.1,0.1,0.1,0.2,0.2,0.3c0,0,0,0.1,0,0.1c0,0,0.1,0,0.1,0c0.1,0,0.2,0.1,0.3,0.1c0.1,0.1,0.1,0.2,0.2,0.3
			c0,0,0,0.1,0,0.1c0,0,0.1,0,0.1,0c0.1,0,0.2,0,0.3,0.1c0.1,0.1,0.2,0.2,0.2,0.2c0,0,0,0.1,0,0.1c0,0,0.1,0,0.1,0
			c0.1,0,0.2,0,0.3,0.1c0.1,0.1,0.2,0.2,0.2,0.2c0,0,0,0,0,0.1c0,0,0.1,0,0.1,0c0.1,0,0.2,0,0.3,0.1c0.1,0.1,0.2,0.1,0.2,0.2
			c0,0,0,0.1,0.1,0.1c0,0,0,0,0.1,0c0,0,0.1,0,0.1,0c0.1-0.1,0.2-0.2,0.3-0.1c0.1,0.1,0.2,0.2,0.2,0.4c-0.1,0.2-0.2,0.2-0.2,0.3
			c0,0,0,0,0,0c-0.1,0.1-0.2,0.1-0.3,0c0,0,0,0-0.1,0c-0.1,0-0.2,0-0.3-0.1c-0.1-0.1-0.2-0.2-0.3-0.2c0,0,0,0-0.1-0.1
			c0,0-0.1,0-0.1,0c-0.1,0-0.2,0-0.3-0.1c-0.1-0.1-0.2-0.2-0.2-0.2c0,0,0-0.1,0-0.1c0,0-0.1,0-0.1,0c-0.1,0-0.2,0-0.3-0.1
			c-0.1-0.1-0.2-0.2-0.2-0.3c0,0,0-0.1,0-0.1c0,0-0.1,0-0.1,0c-0.1,0-0.2,0-0.3-0.1c-0.1-0.1-0.2-0.2-0.2-0.3c0,0,0-0.1,0-0.1
			c0,0-0.1,0-0.1,0c-0.1,0-0.2-0.1-0.3-0.2c-0.1-0.1-0.1-0.2-0.2-0.3c0,0,0-0.1,0-0.1c0,0-0.1,0-0.1,0c-0.1,0-0.2-0.1-0.3-0.2
			c-0.1-0.1-0.1-0.2-0.1-0.3c0,0,0-0.1,0-0.1c0,0,0,0-0.1,0c-0.1,0-0.2-0.1-0.3-0.2c-0.1-0.1-0.1-0.2-0.1-0.3c0,0,0-0.1,0-0.1
			c0,0,0,0-0.1,0c-0.1,0-0.2-0.1-0.3-0.2c-0.1-0.1-0.1-0.2-0.1-0.3c0,0,0-0.1,0-0.1c0,0,0,0-0.1-0.1c-0.1-0.1-0.2-0.1-0.2-0.2
			c-0.1-0.1-0.1-0.2-0.1-0.3c0,0,0-0.1,0-0.1c0,0,0,0-0.1-0.1c-0.1-0.1-0.2-0.1-0.2-0.3c0-0.1,0-0.3,0-0.3c0,0,0-0.1,0-0.1
			c0,0,0,0-0.1-0.1c-0.1-0.1-0.1-0.2-0.2-0.3c0-0.1,0-0.3,0-0.3c0,0,0-0.1,0-0.1c0,0,0,0,0-0.1c-0.1-0.1-0.1-0.2-0.1-0.3
			c0-0.1,0-0.3,0-0.3c0,0,0-0.1,0-0.1c0,0,0-0.1,0-0.1c0-0.1-0.1-0.2-0.1-0.3c0-0.1,0-0.2,0.1-0.3c0,0,0-0.1,0-0.1c0,0,0-0.1,0-0.1
			c0-0.1-0.1-0.2-0.1-0.3c0-0.1,0.1-0.2,0.1-0.3c0,0,0-0.1,0-0.1c0,0,0-0.1,0-0.1c0-0.1-0.1-0.2,0-0.3c0-0.1,0.1-0.2,0.2-0.3
			c0,0,0,0,0-0.1c0,0,0-0.1,0-0.1c0-0.1,0-0.2,0-0.3c0-0.1,0.1-0.2,0.1-0.2c0-0.1,0-0.1,0-0.2c0,0,0,0,0,0c0,0,0,0,0,0c0,0,0,0,0,0
			c0,0,0,0,0,0c0,0,0,0,0,0c0,0,0,0,0,0c0,0,0,0,0,0c0,0,0,0,0,0c0,0,0,0,0,0c0,0,0,0,0,0c0,0,0,0,0,0c0,0,0,0,0,0c0,0,0,0,0,0
			c0,0,0,0,0,0c0-0.1,0.1-0.2,0.3-0.2C21.4,4.1,21.4,4.1,21.5,4.1z M21.6,4.5c0-0.1,0-0.2-0.1-0.3c0,0-0.1,0-0.1,0l0,0l0.1,0.2
			L21.6,4.5z M21.5,4.9C21.5,4.9,21.5,4.9,21.5,4.9S21.5,4.9,21.5,4.9z M20.9,5.2L20.9,5.2C20.9,5.2,20.9,5.2,20.9,5.2z M21.3,5.7
			L21.3,5.7C21.3,5.7,21.3,5.7,21.3,5.7z M20.8,6L20.8,6L20.8,6z M20.7,6.8 M21.2,7.2L21.2,7.2L21.2,7.2z M20.7,7.6L20.7,7.6
			L20.7,7.6z M21.2,7.9C21.2,7.9,21.2,7.9,21.2,7.9C21.2,7.9,21.2,7.9,21.2,7.9z M21.2,7.9C21.2,7.9,21.2,7.9,21.2,7.9L21.2,7.9z
			 M20.9,8.4C20.9,8.4,20.9,8.4,20.9,8.4S20.9,8.4,20.9,8.4z M21.4,8.6L21.4,8.6L21.4,8.6z M21.4,8.6L21.4,8.6L21.4,8.6z M21.6,9.3
			C21.6,9.3,21.6,9.3,21.6,9.3L21.6,9.3z M21.9,10 M22.3,10.7L22.3,10.7L22.3,10.7z M22.3,10.7L22.3,10.7
			C22.3,10.7,22.3,10.7,22.3,10.7z M21.7,10.6L21.7,10.6L21.7,10.6z M21.7,10.6C21.7,10.6,21.7,10.6,21.7,10.6S21.7,10.6,21.7,10.6z
			 M22.7,11.3L22.7,11.3L22.7,11.3z M22.1,11.3L22.1,11.3L22.1,11.3z M23.2,11.9L23.2,11.9L23.2,11.9z M23.2,11.9
			C23.2,11.9,23.2,11.9,23.2,11.9L23.2,11.9z M23.7,12.5L23.7,12.5L23.7,12.5z M23.1,12.5L23.1,12.5L23.1,12.5z M24.3,13L24.3,13
			L24.3,13z M23.1,12.5L23.1,12.5C23.1,12.5,23.1,12.5,23.1,12.5z M24.3,13L24.3,13L24.3,13z M24.3,13.6L24.3,13.6L24.3,13.6z
			 M24.3,13.6L24.3,13.6L24.3,13.6z M25.7,14.4L25.7,14.4L25.7,14.4z"/>
		<g>
			<path class="st2" d="M26.5,14.8c4.5,1.8,9.4-0.1,10.9-4.1c0,0,0,0,0-0.1l-8.4-3.3l-2.8,7.3C26.4,14.8,26.5,14.8,26.5,14.8z
				 M34.7,10.8l0.7,0.6c0.1,0.1,0.1,0.3,0,0.4L35,12.4c-0.1,0.1-0.3,0.1-0.4,0l-0.7-0.6c-0.1-0.1-0.1-0.3,0-0.4l0.5-0.6
				C34.4,10.7,34.6,10.7,34.7,10.8z M33,12.7c0.4,0.1,0.5,0.5,0.4,0.9c-0.1,0.4-0.5,0.5-0.9,0.4c-0.4-0.1-0.5-0.5-0.4-0.9
				C32.2,12.7,32.6,12.6,33,12.7z M31.1,9.6c0.4,0.1,0.5,0.5,0.4,0.9c-0.1,0.4-0.5,0.5-0.9,0.4c-0.4-0.1-0.5-0.5-0.4-0.9
				C30.3,9.7,30.7,9.5,31.1,9.6z M29,12.3l0.9,0c0.2,0,0.3,0.1,0.3,0.3l0,0.8c0,0.2-0.1,0.3-0.3,0.3l-0.9,0c-0.2,0-0.3-0.1-0.3-0.3
				l0-0.8C28.7,12.5,28.8,12.3,29,12.3z"/>
		</g>
	</g>
</g>
<g id="c8" class="st0">
	<g class="st1">
		<path class="st2" d="M51.7,22.4l-19.4,2.8l-31.8,0c0,0.2,0,0.3,0,0.5c0,4.5,7.2,8.1,16.2,8.1c7,0,13-2.2,15.2-5.4l19.8-2.8
			c0.9,0,1.6-0.7,1.6-1.6S52.5,22.4,51.7,22.4z"/>
	</g>
	<g class="st1">
		<path class="st2" d="M13.9,38.3c0.2,0.6-0.2,1.8-1.1,1.9c-0.9,0.1-1.5-0.8-1.6-1.5c-0.1-0.8,1.4-1.2,0.8-1.7
			C11.5,36.4,13.7,37.7,13.9,38.3z"/>
	</g>
	<g class="st1">
		<path class="st2" d="M23.9,38.3c0.2,0.6-0.1,1.8-1,1.9c-0.9,0.1-1.5-0.8-1.6-1.6c-0.1-0.7,1.3-1.2,0.7-1.7S23.7,37.7,23.9,38.3z"
			/>
	</g>
	<g class="st1">
		<path class="st2" d="M19.4,38.2c0.3,1-0.3,2.7-1.6,2.9s-2.2-1.3-2.3-2.3c-0.1-1.1,2-1.8,1.2-2.6S19.1,37.3,19.4,38.2z"/>
	</g>
	<g class="st1">
		<path class="st2" d="M27.5,11.9c1.6,2.6,2.7,5.2,3.2,7.5c0.4,2.4,0.1,4.1-1,4.8c0,0,0,0-0.1,0l-0.2,0.1L17.1,4.8l0.2-0.2
			c0,0,0,0,0.1,0c1.1-0.7,2.8-0.3,4.7,1.1C24,7.1,25.9,9.3,27.5,11.9z M29.5,23.5c0.7-0.6,0.9-2.1,0.6-4c-0.4-2.2-1.5-4.8-3.1-7.3
			c-1.6-2.5-3.4-4.6-5.2-6c-1.6-1.1-2.9-1.6-3.8-1.2L29.5,23.5z"/>
		<path class="st2" d="M19.2,7C19.2,7,19.2,7,19.2,7C19.2,7,19.2,7.1,19.2,7c0.1,0.1,0.1,0.2,0.1,0.3c0,0.1-0.1,0.1-0.1,0.2
			c0,0,0,0,0,0c0,0,0,0,0,0c0,0,0,0,0,0c0,0,0,0,0,0c0,0,0,0,0,0c0,0,0,0,0,0c0,0,0,0,0,0c0,0,0,0,0,0c0,0,0,0,0,0c0,0,0,0,0,0
			c0,0,0,0,0,0c0,0,0,0,0,0c-0.1,0.1-0.2,0.1-0.3,0.1c0,0-0.1,0-0.1,0c0,0,0,0,0,0.1c0,0.1-0.1,0.2-0.2,0.3
			c-0.1,0.1-0.2,0.1-0.3,0.1c0,0-0.1,0-0.1,0c0,0,0,0,0,0.1c0,0.1-0.1,0.2-0.2,0.3c-0.1,0.1-0.2,0.1-0.3,0.2c0,0-0.1,0-0.1,0
			c0,0,0,0.1,0,0.1c0,0.1,0,0.2-0.1,0.3c-0.1,0.1-0.2,0.2-0.2,0.2c0,0,0,0-0.1,0c0,0,0,0.1,0,0.1c0,0.1,0,0.2-0.1,0.3
			c-0.1,0.1-0.2,0.2-0.2,0.2c0,0,0,0-0.1,0c0,0,0,0.1,0,0.1c0,0.1,0,0.2-0.1,0.3c-0.1,0.1-0.1,0.2-0.2,0.2c0,0,0,0-0.1,0.1
			c0,0,0,0.1,0,0.1c0,0.1,0,0.2,0,0.3c0,0.1-0.1,0.2-0.2,0.3c0,0,0,0-0.1,0.1c0,0,0,0.1,0,0.1c0,0.1,0,0.2,0,0.3
			c0,0.1-0.1,0.2-0.1,0.3c0,0,0,0,0,0.1c0,0,0,0.1,0,0.1c0,0.1,0.1,0.2,0,0.3c0,0.1-0.1,0.2-0.1,0.3c0,0,0,0,0,0.1c0,0,0,0.1,0,0.1
			c0,0.1,0.1,0.2,0.1,0.3c0,0.1-0.1,0.2-0.1,0.3c0,0,0,0.1,0,0.1c0,0,0,0,0,0.1c0,0.1,0.1,0.2,0.1,0.3c0,0.1,0,0.2-0.1,0.3
			c0,0,0,0.1,0,0.1c0,0,0,0,0,0.1c0,0.1,0.1,0.2,0.1,0.3c0,0.1,0,0.2,0,0.3c0,0,0,0.1,0,0.1c0,0,0,0,0,0.1c0.1,0.1,0.1,0.2,0.1,0.3
			c0,0.1,0,0.2,0,0.3c0,0,0,0.1,0,0.1c0,0,0,0,0,0.1c0.1,0.1,0.1,0.2,0.2,0.3c0,0.1,0,0.2,0,0.3c0,0,0,0.1,0,0.1c0,0,0,0,0.1,0.1
			c0.1,0.1,0.1,0.1,0.2,0.3c0,0.1,0,0.2,0,0.3c0,0,0,0.1,0,0.1c0,0,0,0,0.1,0.1c0.1,0.1,0.2,0.1,0.2,0.2c0.1,0.1,0.1,0.2,0.1,0.3
			c0,0,0,0.1,0,0.1c0,0,0,0,0,0c0,0,0.1,0,0.1,0.1c0.1,0,0.3,0,0.3,0.1c0.1,0.1,0,0.3-0.1,0.4c-0.1,0.1-0.3,0.1-0.3,0.1c0,0,0,0,0,0
			c-0.1,0-0.2-0.1-0.3-0.1c0,0,0,0,0,0c-0.1,0-0.1-0.1-0.2-0.2c-0.1-0.1-0.1-0.2-0.1-0.3c0,0,0-0.1,0-0.1c0,0,0,0-0.1-0.1
			c-0.1-0.1-0.2-0.1-0.2-0.3c-0.1-0.1,0-0.2,0-0.3c0,0,0-0.1,0-0.1c0,0,0,0-0.1-0.1c-0.1-0.1-0.2-0.1-0.2-0.3c0-0.1,0-0.2,0-0.3
			c0,0,0-0.1,0-0.1c0,0,0,0-0.1-0.1c-0.1-0.1-0.1-0.2-0.2-0.3c0-0.1,0-0.3,0-0.3c0,0,0-0.1,0-0.1c0,0,0,0,0-0.1
			c-0.1-0.1-0.1-0.2-0.2-0.3c0-0.1,0-0.3,0-0.3c0,0,0-0.1,0-0.1c0,0,0,0,0-0.1c0-0.1-0.1-0.2-0.1-0.3c0-0.1,0-0.2,0.1-0.3
			c0,0,0-0.1,0-0.1c0,0,0-0.1,0-0.1c0-0.1-0.1-0.2-0.1-0.3c0-0.1,0.1-0.2,0.1-0.3c0,0,0-0.1,0-0.1c0,0,0-0.1,0-0.1
			c0-0.1-0.1-0.2-0.1-0.3c0-0.1,0.1-0.2,0.1-0.3c0,0,0-0.1,0-0.1c0,0,0-0.1,0-0.1c0-0.1-0.1-0.2,0-0.3c0-0.1,0.1-0.2,0.2-0.3
			c0,0,0,0,0-0.1c0,0,0-0.1,0-0.1c0-0.1,0-0.2,0-0.3c0-0.1,0.1-0.2,0.2-0.3c0,0,0,0,0.1-0.1c0,0,0-0.1,0-0.1c0-0.1,0-0.2,0-0.3
			c0.1-0.1,0.1-0.2,0.2-0.3c0,0,0,0,0.1-0.1c0,0,0-0.1,0-0.1c0-0.1,0-0.2,0.1-0.3c0.1-0.1,0.2-0.2,0.2-0.2c0,0,0.1,0,0.1,0
			c0,0,0-0.1,0-0.1c0-0.1,0-0.2,0.1-0.3c0.1-0.1,0.2-0.2,0.3-0.2c0,0,0.1,0,0.1,0c0,0,0-0.1,0-0.1c0-0.1,0.1-0.2,0.1-0.3
			c0.1-0.1,0.2-0.1,0.3-0.2c0,0,0.1,0,0.1,0c0,0,0-0.1,0-0.1c0-0.1,0.1-0.2,0.2-0.3C17.8,7.6,18,7.6,18,7.5c0,0,0.1,0,0.1,0
			c0,0,0,0,0-0.1c0-0.1,0.1-0.2,0.2-0.3c0.1-0.1,0.2-0.1,0.2-0.1c0-0.1,0.1-0.1,0.1-0.1c0,0,0,0,0,0c0,0,0,0,0,0c0,0,0,0,0,0
			c0,0,0,0,0,0c0,0,0,0,0,0c0,0,0,0,0,0c0,0,0,0,0,0c0,0,0,0,0,0c0,0,0,0,0,0c0,0,0,0,0,0c0,0,0,0,0,0c0,0,0,0,0,0c0,0,0,0,0,0
			c0,0,0,0,0,0C18.9,6.9,19,6.9,19.2,7C19.1,7,19.2,7,19.2,7z M19.1,7.4c0.1-0.1,0.1-0.2,0.1-0.3c0,0,0,0-0.1-0.1l0,0l0,0.2
			L19.1,7.4z M18.7,7.6C18.7,7.6,18.7,7.6,18.7,7.6S18.7,7.6,18.7,7.6z M18.1,7.5L18.1,7.5C18.1,7.5,18.1,7.5,18.1,7.5z M18.1,8.1
			L18.1,8.1C18.1,8.1,18.1,8.1,18.1,8.1z M17.5,8.1L17.5,8.1L17.5,8.1z M17,8.7 M17.1,9.3L17.1,9.3L17.1,9.3z M16.6,9.3L16.6,9.3
			L16.6,9.3z M16.8,9.9C16.8,9.9,16.8,9.9,16.8,9.9C16.8,9.9,16.8,9.9,16.8,9.9z M16.7,9.9C16.7,9.9,16.7,9.9,16.7,9.9L16.7,9.9z
			 M16.2,10.1C16.2,10.1,16.2,10.1,16.2,10.1S16.2,10.1,16.2,10.1z M16.4,10.6L16.4,10.6L16.4,10.6z M16.4,10.6L16.4,10.6L16.4,10.6
			z M16.2,11.3C16.2,11.3,16.2,11.3,16.2,11.3L16.2,11.3z M16,12 M15.9,12.8L15.9,12.8L15.9,12.8z M15.9,12.8L15.9,12.8
			C15.9,12.8,15.9,12.8,15.9,12.8z M15.5,12.3L15.5,12.3L15.5,12.3z M15.5,12.4C15.5,12.4,15.5,12.4,15.5,12.4S15.5,12.4,15.5,12.4z
			 M15.9,13.5L15.9,13.5L15.9,13.5z M15.4,13.2L15.4,13.2L15.4,13.2z M15.9,14.3L15.9,14.3L15.9,14.3z M15.9,14.3
			C15.9,14.3,15.9,14.3,15.9,14.3L15.9,14.3z M16,15L16,15L16,15z M15.5,14.7L15.5,14.7L15.5,14.7z M16.2,15.8L16.2,15.8L16.2,15.8z
			 M15.5,14.7L15.5,14.7C15.5,14.7,15.5,14.7,15.5,14.7z M16.2,15.8L16.2,15.8L16.2,15.8z M15.9,16.3L15.9,16.3L15.9,16.3z
			 M15.9,16.3L15.9,16.3L15.9,16.3z M16.4,17.8L16.4,17.8L16.4,17.8z"/>
		<g>
			<path class="st2" d="M16.9,18.6c2.6,4.1,7.6,5.5,11.2,3.3c0,0,0,0,0.1,0l-4.8-7.6l-6.6,4.2C16.8,18.5,16.8,18.6,16.9,18.6z
				 M25.9,20.3l0.2,0.9c0,0.2-0.1,0.3-0.2,0.4l-0.8,0.2c-0.2,0-0.3-0.1-0.4-0.2l-0.2-0.9c0-0.2,0.1-0.3,0.2-0.4l0.8-0.2
				C25.7,20,25.8,20.1,25.9,20.3z M23.3,20.8c0.2,0.3,0.1,0.7-0.2,1c-0.3,0.2-0.7,0.1-1-0.2s-0.1-0.7,0.2-1
				C22.7,20.4,23.1,20.5,23.3,20.8z M23.6,17.2c0.2,0.3,0.1,0.7-0.2,1c-0.3,0.2-0.7,0.1-1-0.2c-0.2-0.3-0.1-0.7,0.2-1
				C23,16.7,23.4,16.8,23.6,17.2z M20.3,18.1l0.7,0.6c0.1,0.1,0.2,0.3,0.1,0.4l-0.5,0.6c-0.1,0.1-0.3,0.2-0.4,0.1l-0.7-0.6
				c-0.1-0.1-0.2-0.3-0.1-0.4l0.5-0.6C20,18,20.2,18,20.3,18.1z"/>
		</g>
	</g>
</g>
<g id="c9" class="st0">
	<g class="st1">
		<path class="st2" d="M51.7,22.4l-19.4,2.8l-31.8,0c0,0.2,0,0.3,0,0.5c0,4.5,7.2,8.1,16.2,8.1c7,0,13-2.2,15.2-5.4l19.8-2.8
			c0.9,0,1.6-0.7,1.6-1.6S52.5,22.4,51.7,22.4z"/>
	</g>
	<g class="st1">
		<path class="st2" d="M13.5,38.1c0.3,0.5,0.3,1.8-0.6,2c-0.8,0.3-1.5-0.8-1.7-1.4c-0.2-0.6,0.4-1.4,0.1-1.7
			C11.1,36.9,13.1,37.5,13.5,38.1z"/>
	</g>
	<g class="st1">
		<path class="st2" d="M23.2,37.9c0.5,0.6,0.5,1.9-0.3,2.2c-0.8,0.3-1.3-0.8-1.7-1.4s0.3-1.2-0.4-1.7S22.6,37.3,23.2,37.9z"/>
	</g>
	<g class="st1">
		<path class="st2" d="M18.6,37.8c0.7,1,0.4,2.9-0.8,3.2c-1.2,0.4-2-1.2-2.4-2.1c-0.4-0.9,0.8-1.8-0.1-2.6
			C14.5,35.6,17.9,36.8,18.6,37.8z"/>
	</g>
	<g class="st1">
		<path class="st2" d="M26.5,25.9c-1.6,2.6-3.4,4.8-5.3,6.2c-1.9,1.5-3.6,1.9-4.7,1.2c0,0,0,0-0.1,0l-0.2-0.1L28,13.4l0.2,0.1
			c0,0,0,0,0.1,0c1.1,0.7,1.5,2.4,1.2,4.7C29.1,20.6,28.1,23.3,26.5,25.9z M17.1,32.9c0.9,0.3,2.3-0.1,3.8-1.3
			c1.8-1.4,3.6-3.5,5.1-6.1c1.5-2.5,2.5-5.2,2.9-7.4c0.3-1.9,0.1-3.3-0.7-4L17.1,32.9z"/>
		<path class="st2" d="M27,16.2C27,16.3,27,16.3,27,16.2C27,16.3,27,16.3,27,16.2c-0.1,0.1-0.1,0.2-0.3,0.2c-0.1,0-0.2,0-0.2,0
			c0,0,0,0,0,0c0,0,0,0,0,0c0,0,0,0,0,0c0,0,0,0,0,0c0,0,0,0,0,0c0,0,0,0,0,0c0,0,0,0,0,0c0,0,0,0,0,0c0,0,0,0,0,0c0,0,0,0,0,0
			c0,0,0,0,0,0c0,0,0,0,0,0c-0.1-0.1-0.2-0.2-0.2-0.2c0,0,0,0,0-0.1c0,0-0.1,0-0.1,0c-0.1,0-0.2,0-0.3-0.1c-0.1,0-0.2-0.1-0.2-0.2
			c0,0,0,0-0.1-0.1c0,0-0.1,0-0.1,0c-0.1,0-0.2,0-0.3,0c-0.1,0-0.2-0.1-0.3-0.2c0,0,0,0-0.1,0c0,0-0.1,0-0.1,0c-0.1,0-0.2,0-0.3,0
			c-0.1,0-0.2-0.1-0.3-0.1c0,0,0,0-0.1,0c0,0-0.1,0-0.1,0c-0.1,0-0.2,0.1-0.3,0.1c-0.1,0-0.2-0.1-0.3-0.1c0,0-0.1,0-0.1,0
			c0,0,0,0-0.1,0c-0.1,0-0.2,0.1-0.3,0.1c-0.1,0-0.2,0-0.3-0.1c0,0-0.1,0-0.1,0c0,0,0,0-0.1,0c-0.1,0-0.2,0.1-0.3,0.1
			c-0.1,0-0.2,0-0.3,0c0,0-0.1,0-0.1,0c0,0,0,0-0.1,0c-0.1,0.1-0.2,0.1-0.3,0.2c-0.1,0-0.2,0-0.3,0c0,0-0.1,0-0.1,0c0,0,0,0-0.1,0.1
			c-0.1,0.1-0.1,0.1-0.3,0.2c-0.1,0-0.2,0-0.3,0c0,0-0.1,0-0.1,0c0,0,0,0-0.1,0.1c-0.1,0.1-0.1,0.2-0.2,0.2
			c-0.1,0.1-0.2,0.1-0.3,0.1c0,0-0.1,0-0.1,0c0,0,0,0,0,0.1c-0.1,0.1-0.1,0.2-0.2,0.2c-0.1,0.1-0.2,0.1-0.3,0.1c0,0-0.1,0-0.1,0
			c0,0,0,0,0,0.1c0,0.1-0.1,0.2-0.2,0.2c-0.1,0.1-0.2,0.1-0.3,0.1c0,0-0.1,0-0.1,0c0,0,0,0,0,0.1c0,0.1-0.1,0.2-0.2,0.3
			c-0.1,0.1-0.2,0.1-0.3,0.1c0,0-0.1,0-0.1,0c0,0,0,0,0,0.1c0,0.1-0.1,0.2-0.2,0.3c-0.1,0.1-0.2,0.1-0.3,0.2c0,0-0.1,0-0.1,0
			c0,0,0,0.1,0,0.1c0,0.1-0.1,0.2-0.1,0.3c-0.1,0.1-0.2,0.1-0.3,0.2c0,0-0.1,0-0.1,0c0,0,0,0.1,0,0.1c0,0.1,0,0.2-0.1,0.3
			c-0.1,0.1-0.2,0.2-0.3,0.2c0,0-0.1,0-0.1,0c0,0,0,0,0,0.1c0,0,0,0.1,0,0.1c0.1,0.1,0.1,0.2,0,0.4c-0.1,0.1-0.3,0.2-0.4,0.1
			c-0.1-0.1-0.2-0.2-0.2-0.3c0,0,0,0,0,0c-0.1-0.1,0-0.2,0-0.3c0,0,0,0,0-0.1c0-0.1,0-0.2,0.1-0.3c0.1-0.1,0.2-0.2,0.3-0.2
			c0,0,0.1,0,0.1,0c0,0,0-0.1,0-0.1c0-0.1,0-0.2,0.1-0.3c0.1-0.1,0.2-0.2,0.3-0.2c0,0,0.1,0,0.1,0c0,0,0-0.1,0-0.1
			c0-0.1,0.1-0.2,0.2-0.3c0.1-0.1,0.2-0.1,0.3-0.2c0,0,0.1,0,0.1,0c0,0,0-0.1,0-0.1c0-0.1,0.1-0.2,0.2-0.3c0.1-0.1,0.2-0.1,0.3-0.1
			c0,0,0.1,0,0.1,0c0,0,0,0,0-0.1c0-0.1,0.1-0.2,0.2-0.3c0.1-0.1,0.2-0.1,0.3-0.1c0,0,0.1,0,0.1,0c0,0,0,0,0-0.1
			c0-0.1,0.1-0.2,0.2-0.3c0.1-0.1,0.2-0.1,0.3-0.1c0,0,0.1,0,0.1,0c0,0,0,0,0-0.1c0.1-0.1,0.1-0.2,0.2-0.2c0.1-0.1,0.2-0.1,0.3-0.1
			c0,0,0.1,0,0.1,0c0,0,0,0,0.1-0.1c0.1-0.1,0.1-0.2,0.3-0.2c0.1-0.1,0.2,0,0.3,0c0,0,0.1,0,0.1,0c0,0,0,0,0.1-0.1
			c0.1-0.1,0.2-0.1,0.3-0.2c0.1,0,0.3,0,0.3,0c0,0,0.1,0,0.1,0c0,0,0,0,0.1,0c0.1-0.1,0.2-0.1,0.3-0.2c0.1,0,0.3,0,0.3,0
			c0,0,0.1,0,0.1,0c0,0,0,0,0.1,0c0.1,0,0.2-0.1,0.3-0.1c0.1,0,0.3,0,0.3,0.1c0,0,0.1,0,0.1,0c0,0,0.1,0,0.1,0
			c0.1,0,0.2-0.1,0.3-0.1c0.1,0,0.2,0.1,0.3,0.1c0,0,0.1,0,0.1,0c0,0,0.1,0,0.1,0c0.1,0,0.2-0.1,0.3-0.1c0.1,0,0.2,0.1,0.3,0.1
			c0,0,0.1,0,0.1,0c0,0,0.1,0,0.1,0c0.1,0,0.2,0,0.3,0c0.1,0,0.2,0.1,0.3,0.2c0,0,0,0,0.1,0.1c0,0,0.1,0,0.1,0c0.1,0,0.2,0,0.3,0
			c0.1,0,0.2,0.1,0.3,0.2c0,0,0,0,0.1,0.1c0,0,0.1,0,0.1,0c0.1,0,0.2,0,0.3,0.1c0.1,0,0.1,0.1,0.2,0.2c0.1,0,0.1,0,0.2,0
			c0,0,0,0,0,0c0,0,0,0,0,0c0,0,0,0,0,0c0,0,0,0,0,0c0,0,0,0,0,0c0,0,0,0,0,0c0,0,0,0,0,0c0,0,0,0,0,0c0,0,0,0,0,0c0,0,0,0,0,0
			c0,0,0,0,0,0c0,0,0,0,0,0c0,0,0,0,0,0c0,0,0,0,0,0c0.1,0.1,0.1,0.2,0.1,0.3C27,16.2,27,16.2,27,16.2z M26.6,16.3
			c0.1,0,0.2,0,0.3-0.1c0,0,0-0.1,0-0.1l0,0l-0.2,0L26.6,16.3z M26.2,16.1C26.2,16.1,26.2,16.1,26.2,16.1S26.2,16.1,26.2,16.1z
			 M26.1,15.5L26.1,15.5C26.1,15.5,26.1,15.5,26.1,15.5z M25.5,15.8L25.5,15.8C25.5,15.8,25.5,15.8,25.5,15.8z M25.3,15.3L25.3,15.3
			L25.3,15.3z M24.5,15.1 M24.1,15.4L24.1,15.4L24.1,15.4z M23.8,15L23.8,15L23.8,15z M23.4,15.4C23.4,15.4,23.4,15.4,23.4,15.4
			C23.4,15.4,23.4,15.4,23.4,15.4z M23.3,15.4C23.3,15.4,23.3,15.4,23.3,15.4L23.3,15.4z M22.9,15C22.9,15,22.9,15,22.9,15
			S22.9,15,22.9,15z M22.6,15.4L22.6,15.4L22.6,15.4z M22.6,15.4L22.6,15.4L22.6,15.4z M21.9,15.5C21.9,15.5,21.9,15.5,21.9,15.5
			L21.9,15.5z M21.1,15.7 M20.4,16L20.4,16L20.4,16z M20.4,16L20.4,16C20.4,16,20.4,16,20.4,16z M20.6,15.4L20.6,15.4L20.6,15.4z
			 M20.6,15.4C20.6,15.4,20.6,15.4,20.6,15.4S20.6,15.4,20.6,15.4z M19.7,16.3L19.7,16.3L19.7,16.3z M19.8,15.7L19.8,15.7L19.8,15.7
			z M19.1,16.7L19.1,16.7L19.1,16.7z M19,16.7C19,16.7,19,16.7,19,16.7L19,16.7z M18.4,17.1L18.4,17.1L18.4,17.1z M18.5,16.5
			L18.5,16.5L18.5,16.5z M17.8,17.6L17.8,17.6L17.8,17.6z M18.5,16.5L18.5,16.5C18.5,16.5,18.5,16.5,18.5,16.5z M17.8,17.6
			L17.8,17.6L17.8,17.6z M17.2,17.5L17.2,17.5L17.2,17.5z M17.2,17.5L17.2,17.5L17.2,17.5z M16.2,18.7L16.2,18.7L16.2,18.7z"/>
		<g>
			<path class="st2" d="M15.6,19.5c-2.5,4.1-1.5,9.3,2.2,11.5c0,0,0,0,0.1,0l4.6-7.7l-6.7-4C15.7,19.3,15.7,19.4,15.6,19.5z
				 M18.3,28.3l-0.7,0.6c-0.1,0.1-0.3,0.1-0.4,0l-0.5-0.6c-0.1-0.1-0.1-0.3,0-0.4l0.7-0.6c0.1-0.1,0.3-0.1,0.4,0l0.5,0.6
				C18.4,27.9,18.4,28.1,18.3,28.3z M16.7,26.2c-0.2,0.3-0.6,0.4-0.9,0.2c-0.3-0.2-0.4-0.6-0.2-0.9c0.2-0.3,0.6-0.4,0.9-0.2
				C16.7,25.5,16.9,25.9,16.7,26.2z M20,24.8c-0.2,0.3-0.6,0.4-0.9,0.2c-0.3-0.2-0.4-0.6-0.2-0.9c0.2-0.3,0.6-0.4,0.9-0.2
				C20.1,24.1,20.2,24.5,20,24.8z M17.7,22.3l-0.1,0.9c0,0.2-0.2,0.3-0.4,0.3l-0.8-0.1c-0.2,0-0.3-0.2-0.3-0.4l0.1-0.9
				c0-0.2,0.2-0.3,0.4-0.3l0.8,0.1C17.6,22,17.7,22.1,17.7,22.3z"/>
		</g>
	</g>
</g>
<g id="c10" class="st0">
	<g class="st1">
		<path class="st2" d="M51.7,22.4l-19.4,2.8l-31.8,0c0,0.2,0,0.3,0,0.5c0,4.5,7.2,8.1,16.2,8.1c7,0,13-2.2,15.2-5.4l19.8-2.8
			c0.9,0,1.6-0.7,1.6-1.6S52.5,22.4,51.7,22.4z"/>
	</g>
	<g class="st1">
		<path class="st2" d="M13.9,38.3c0.2,0.6-0.2,1.8-1.1,1.9c-0.9,0.1-1.5-0.8-1.6-1.5c-0.1-0.8,1.4-1.2,0.8-1.7
			C11.5,36.4,13.7,37.7,13.9,38.3z"/>
	</g>
	<g class="st1">
		<path class="st2" d="M23.9,38.3c0.2,0.6-0.1,1.8-1,1.9c-0.9,0.1-1.5-0.8-1.6-1.6c-0.1-0.7,1.3-1.2,0.7-1.7S23.7,37.7,23.9,38.3z"
			/>
	</g>
	<g class="st1">
		<path class="st2" d="M19.4,38.2c0.3,1-0.3,2.7-1.6,2.9s-2.2-1.3-2.3-2.3c-0.1-1.1,2-1.8,1.2-2.6S19.1,37.3,19.4,38.2z"/>
	</g>
</g>
<g id="gray">
	<g>
		<path class="st3" d="M51.7,22.4l-19.4,2.8l-31.8,0c0,0.2,0,0.3,0,0.5c0,4.5,7.2,8.1,16.2,8.1c7,0,13-2.2,15.2-5.4l19.8-2.8
			c0.9,0,1.6-0.7,1.6-1.6S52.5,22.4,51.7,22.4z"/>
	</g>
	<g>
		<path class="st3" d="M13.9,38.3c0.2,0.6-0.2,1.8-1.1,1.9c-0.9,0.1-1.5-0.8-1.6-1.5c-0.1-0.8,1.4-1.2,0.8-1.7
			C11.5,36.4,13.7,37.7,13.9,38.3z"/>
	</g>
	<g>
		<path class="st3" d="M23.9,38.3c0.2,0.6-0.1,1.8-1,1.9c-0.9,0.1-1.5-0.8-1.6-1.6c-0.1-0.7,1.3-1.2,0.7-1.7S23.7,37.7,23.9,38.3z"
			/>
	</g>
	<g>
		<path class="st3" d="M19.4,38.2c0.3,1-0.3,2.7-1.6,2.9s-2.2-1.3-2.3-2.3c-0.1-1.1,2-1.8,1.2-2.6S19.1,37.3,19.4,38.2z"/>
	</g>
</g>
</svg>
