<?xml version="1.0" encoding="utf-8"?>
<!-- Generator: Adobe Illustrator 24.3.0, SVG Export Plug-In . SVG Version: 6.00 Build 0)  -->
<svg version="1.1" id="レイヤー_1" xmlns="http://www.w3.org/2000/svg" xmlns:xlink="http://www.w3.org/1999/xlink" x="0px"
	 y="0px" viewBox="0 0 22.7 25.5" style="enable-background:new 0 0 22.7 25.5;" xml:space="preserve">
<g>
	<g>
		<defs>
			<rect id="SVGID_1_" x="-278.4" y="-514.6" width="348.1" height="746.2"/>
		</defs>
		<clipPath id="SVGID_2_">
			<use xlink:href="#SVGID_1_"  style="overflow:visible;"/>
		</clipPath>
	</g>
</g>
<path class="st0" d="M8.4,3.8C8.4,5.1,7.5,6,6.3,6s-2.1-1-2.1-2.2s0.9-2.2,2.1-2.2S8.4,2.6,8.4,3.8z M4.5,6.9c-0.9,0-1.8,0.8-2,1.8
	l-0.3,3h8.1l-0.3-3c-0.1-1-0.9-1.8-2-1.8H4.5z M20.4,2.3c0,1.2-0.9,2.2-2.1,2.2c-1.2,0-2.1-1-2.1-2.2c0-1.2,0.9-2.2,2.1-2.2
	C19.4,0.1,20.4,1.1,20.4,2.3z M15.2,16.1c0,0.1,0,0.2,0.1,0.3c0.1,0.1,0.2,0.1,0.3,0.1h0.1v7.8c0,0.7,0.5,1.2,1.2,1.2
	c0.6,0,1.2-0.5,1.2-1.2v-7.8h0.5v7.8c0,0.7,0.5,1.2,1.2,1.2s1.2-0.5,1.2-1.2v-7.8H21c0.1,0,0.2,0,0.3-0.1c0.1-0.1,0.1-0.2,0.1-0.3
	l-0.1-2.5c0.8-0.2,1.4-1,1.3-1.9l-0.6-4.5c-0.1-1-0.9-1.8-2-1.8h-3.4c-0.9,0-1.8,0.8-2,1.8l-0.6,5.2H1.3c-0.6,0-1.2,0.5-1.2,1.2
	c0,0.7,0.5,1.2,1.2,1.2h14L15.2,16.1z"/>
</svg>
