<svg xmlns="http://www.w3.org/2000/svg" xmlns:xlink="http://www.w3.org/1999/xlink" width="24" height="24" viewBox="0 0 24 24" fill="#fff">
    <defs>
        <path id="nnkt6ka53a" d="M0 0L21.3 0 21.3 18.6 0 18.6z"/>
    </defs>
    <g fill="none" fill-rule="evenodd">
        <g transform="translate(1 3)">
            <mask id="qje8xdbipb" fill="#fff">
                <use xlink:href="#nnkt6ka53a"/>
            </mask>
            <path fill="#FFF" d="M18.6 16h-16v-2.7l4.7-8 5.3 6.7h1.3l4.7-4v8zM17.3 4.6c0 1.1-.9 2-2 2s-2-.9-2-2 .9-2 2-2 2 .9 2 2zM20 17.3H1.3v-16H20v16zM0 16v1.3c0 .7.6 1.3 1.3 1.3H20c.7 0 1.3-.6 1.3-1.3v-16C21.3.6 20.7 0 20 0H1.3C.6 0 0 .6 0 1.3V16z" mask="url(#qje8xdbipb)"/>
        </g>
    </g>
</svg>
