<svg width="16" height="16" class="HotelImage__ImageGalleryOpenButtonIcon-sc-1adw56x-4 iIsNUw" xmlns="http://www.w3.org/2000/svg" viewBox="0 0 28.907 28.907" style="fill: rgb(255, 255, 255);"><path d="M2.625 24.215V5.291H.509A.51.51 0 0 0 0 5.8v20.899a.51.51 0 0 0 .509.511h24.155c.281 0 .51-.229.51-.511v-1.974H3.136a.51.51 0 0 1-.511-.51z"></path><path d="M28.396 1.698H4.244a.51.51 0 0 0-.509.509v20.898c0 .282.228.513.509.513h24.153c.281 0 .51-.23.51-.513V2.207a.512.512 0 0 0-.511-.509zm-17.895 1.9a2.71 2.71 0 0 1 2.708 2.71 2.706 2.706 0 0 1-2.708 2.707 2.71 2.71 0 0 1 0-5.417zM27.25 17.306H5.671v-.208l4.258-4.865 2.396 1.616 2.792-4.785 3.244 2.3 2.932-6.077L27.25 17.08v.226z"></path></svg>