<!-- Generated by IcoMoon.io -->
<svg version="1.1" xmlns="http://www.w3.org/2000/svg" width="32" height="32" viewBox="0 0 32 32">
<title>info-button-fill</title>
<path d="M27.315 4.686c-6.248-6.248-16.38-6.248-22.629 0s-6.248 16.38 0 22.629c6.248 6.247 16.38 6.248 22.629 0 6.248-6.249 6.247-16.38 0-22.629zM18.087 22.957c0 1.153-0.934 2.087-2.087 2.087s-2.087-0.934-2.087-2.087v-8.348c0-1.153 0.934-2.087 2.087-2.087s2.087 0.934 2.087 2.087v8.348zM15.963 11.042c-1.202 0-2.004-0.851-1.978-1.903-0.025-1.102 0.776-1.928 2.003-1.928s2.004 0.826 2.029 1.928c-0.001 1.051-0.801 1.903-2.054 1.903z"></path>
</svg>
