<?xml version="1.0" encoding="UTF-8"?>
<svg width="16px" height="13px" viewBox="0 0 16 13" version="1.1" xmlns="http://www.w3.org/2000/svg" xmlns:xlink="http://www.w3.org/1999/xlink">
    <title>list</title>
    <g id="Page-1" stroke="none" stroke-width="1">
        <g id="list">
            <path d="M0.5,-0.0001 L5.5,-0.0001 C5.8,-0.0001 6,0.1999 6,0.4999 L6,5.4999 C6,5.7999 5.8,5.9999 5.5,5.9999 L0.5,5.9999 C0.2,5.9999 0,5.7999 0,5.4999 L0,0.4999 C0,0.1999 0.2,-0.0001 0.5,-0.0001" id="Fill-1"></path>
            <path d="M0.5,6.9999 L5.5,6.9999 C5.8,6.9999 6,7.1999 6,7.4999 L6,12.4999 C6,12.7999 5.8,12.9999 5.5,12.9999 L0.5,12.9999 C0.2,12.9999 0,12.7999 0,12.4999 L0,7.4999 C0,7.1999 0.2,6.9999 0.5,6.9999" id="Fill-7"></path>
            <path d="M15,2.1 L8,2.1 C7.5,2.1 7,1.7 7,1.1 C7,0.6 7.4,0.1 8,0.1 L15,0.1 C15.5,0.1 16,0.5 16,1.1 C16,1.7 15.5,2.1 15,2.1" id="Fill-13"></path>
            <path d="M15,5.9999 L8,5.9999 C7.4,5.9999 7,5.4999 7,4.9999 C7,4.4999 7.4,3.9999 8,3.9999 L15,3.9999 C15.5,3.9999 16,4.3999 16,4.9999 C16,5.4999 15.5,5.9999 15,5.9999" id="Fill-15"></path>
            <path d="M15,9.1 L8,9.1 C7.5,9.1 7,8.7 7,8.1 C7,7.6 7.4,7.1 8,7.1 L15,7.1 C15.5,7.1 16,7.5 16,8.1 C16,8.6 15.5,9.1 15,9.1" id="Fill-17"></path>
            <path d="M15,12.8998 L8,12.8998 C7.5,12.8998 7,12.5008 7,11.8998 C7,11.3998 7.4,10.8998 8,10.8998 L15,10.8998 C15.5,10.8998 16,11.2998 16,11.8998 C16,12.3998 15.5,12.8998 15,12.8998" id="Fill-19"></path>
        </g>
    </g>
</svg>