<svg xmlns="http://www.w3.org/2000/svg" width="24" height="24" viewBox="0 0 24 24">
    <g fill="none" fill-rule="evenodd">
        <g fill="#a6a6a6" fill-rule="nonzero">
            <path d="M16.846 17.203c-.22-.027-.418.13-.444.35-.025.22.132.418.35.444 4.207.495 6.448 1.83 6.448 2.602 0 1.086-4.261 2.6-11.2 2.6C5.061 23.2.8 21.686.8 20.6c0-.773 2.24-2.107 6.447-2.602.22-.026.376-.225.35-.444-.025-.219-.224-.378-.444-.35C2.944 17.698 0 19.096 0 20.6 0 22.29 4.122 24 12 24s12-1.71 12-3.4c0-1.504-2.942-2.9-7.154-3.397z"/>
            <path d="M11.93 21.903l6.136-8.863c2.302-3.068 1.969-8.112-.712-10.792C15.904.798 13.979 0 11.93 0 9.88 0 7.955.799 6.505 2.248c-2.68 2.68-3.014 7.724-.721 10.78l6.146 8.876v-.001zM12 4.8c1.544 0 2.8 1.256 2.8 2.8 0 1.543-1.257 2.8-2.8 2.8S9.2 9.143 9.2 7.6c0-1.544 1.257-2.8 2.8-2.8z"/>
        </g>
    </g>
</svg>
