<?xml version="1.0" encoding="UTF-8"?>
<svg width="24px" height="24px" viewBox="0 0 24 24" version="1.1" xmlns="http://www.w3.org/2000/svg" xmlns:xlink="http://www.w3.org/1999/xlink">
    <title>location-mark</title>
    <defs>
        <polygon id="path-1" points="0.0003 0.004 23.996 0.004 23.996 23.9994 0.0003 23.9994"></polygon>
    </defs>
    <g id="Page-1" stroke="none" stroke-width="1">
        <g id="location-mark">
            <path d="M11.9996,9.0305 C10.3596,9.0305 9.0296,10.3595 9.0296,12.0005 C9.0296,13.6395 10.3596,14.9695 11.9996,14.9695 C13.6396,14.9695 14.9696,13.6395 14.9696,12.0005 C14.9696,10.3595 13.6396,9.0305 11.9996,9.0305" id="Fill-1"></path>
            <g id="Group-5" transform="translate(0.000000, -0.003500)">
                <mask id="mask-2" fill="white">
                    <use xlink:href="#path-1"></use>
                </mask>
                <g id="Clip-4"></g>
                <path d="M13.3883,20.6834 L13.3883,17.0664 L10.6083,17.0664 L10.6083,20.6834 C6.8643,20.0864 3.9143,17.1364 3.3193,13.3924 L6.9333,13.3924 L6.9333,10.6114 L3.3203,10.6114 C3.9163,6.8694 6.8653,3.9194 10.6083,3.3244 L10.6083,6.9374 L13.3883,6.9374 L13.3883,3.3244 C17.1323,3.9184 20.0823,6.8684 20.6793,10.6114 L17.0633,10.6114 L17.0633,13.3924 L20.6803,13.3924 C20.0843,17.1374 17.1333,20.0874 13.3883,20.6834 L13.3883,20.6834 Z M23.9963,10.6114 L22.9023,10.6114 C22.2743,5.6514 18.3493,1.7274 13.3883,1.1004 L13.3883,0.0034 L10.6083,0.0034 L10.6083,1.1014 C5.6483,1.7284 1.7253,5.6524 1.0973,10.6114 L0.0003,10.6114 L0.0003,13.3924 L1.0963,13.3924 C1.7223,18.3534 5.6473,22.2784 10.6083,22.9064 L10.6083,23.9994 L13.3883,23.9994 L13.3883,22.9064 C18.3503,22.2804 22.2763,18.3544 22.9023,13.3924 L23.9963,13.3924 L23.9963,10.6114 Z" id="Fill-3" mask="url(#mask-2)"></path>
            </g>
        </g>
    </g>
</svg>