<?xml version="1.0" encoding="utf-8"?>
<!-- Generator: Adobe Illustrator 25.0.0, SVG Export Plug-In . SVG Version: 6.00 Build 0)  -->
<svg version="1.1" id="_x32_" xmlns="http://www.w3.org/2000/svg" xmlns:xlink="http://www.w3.org/1999/xlink" x="0px" y="0px"
	 viewBox="0 0 36 36" style="enable-background:new 0 0 36 36;" xml:space="preserve">
<style type="text/css">
	.st0{fill:#1BA1FF}
</style>
<g>
	<path class="st0" d="M18.2,32.3c0,0.9-0.8,1.7-1.8,1.7h-3.7c-1,0-1.8-0.8-1.8-1.7v-0.8c0-0.9,0.8-1.7,1.8-1.7h3.7
		c1,0,1.8,0.8,1.8,1.7V32.3z"/>
	<path class="st0" d="M2.1,25.7H1.8c-1,0-1.8,0.8-1.8,1.7v2.4c0,0.9,0.5,1.7,1.2,1.7h0.2c0.8,0,0.6,0.8,0.6,1.7v1.1
		c0,0.9,0.8,1.7,1.8,1.7h2.7c1,0,1.8-0.8,1.8-1.7v-2.8v-4.1c0-0.9-0.8-1.7-1.8-1.7L2.1,25.7L2.1,25.7z"/>
	<path class="st0" d="M24,11.4c-0.8,0-1.5,0.6-1.7,1.3l-1,4.4c-0.2,0.8-0.9,1.3-1.7,1.3h-11c-1,0-1.8,0.8-1.8,1.7v1.3
		c0,0.9,0.8,1.7,1.8,1.7h0.4c1,0,1.8,0.8,1.8,1.7v0.8c0,0.9,0.8,1.7,1.8,1.7h13.7c0.8,0,1.5-0.6,1.7-1.3l2.9-12.6
		c0.1-0.5,0-1-0.3-1.4c-0.3-0.4-0.8-0.6-1.4-0.6L24,11.4L24,11.4z"/>
	<path class="st0" d="M34.9,7.6C34.7,8.4,34,9,33.1,9h-7.7c-0.5,0-1-0.2-1.4-0.6C23.8,8,23.6,7.5,23.7,7l1.1-5.6
		C25,0.6,25.7,0,26.6,0h7.7c0.5,0,1,0.2,1.4,0.6C35.9,1,36.1,1.5,36,2L34.9,7.6z"/>
</g>
</svg>
