<?xml version="1.0" encoding="utf-8"?>
<!-- Generator: Adobe Illustrator 25.1.0, SVG Export Plug-In . SVG Version: 6.00 Build 0)  -->
<svg version="1.1" id="レイヤー_2" xmlns="http://www.w3.org/2000/svg" xmlns:xlink="http://www.w3.org/1999/xlink" x="0px"
	 y="0px" viewBox="0 0 31 41" style="enable-background:new 0 0 31 41;" xml:space="preserve">
<style type="text/css">
	.st0{fill-rule:evenodd;clip-rule:evenodd;fill:#1BA1FF;}
</style>
<path class="st0" d="M28.1,0.6L3.2,4.8C2.2,5,1.4,5.6,1,6.5C0.8,6.9,0.7,7.3,0.7,7.8v27.3c0,0.2,0,0.3,0,0.5
	c0.1,0.7,0.4,1.3,0.8,1.6c0.5,0.5,1.2,0.9,2,1l19,1.5c1.6,0.1,2.8-1.1,2.8-2.6v-3.1l2.7-0.5c1.5-0.3,2.5-1.5,2.5-3.1V2.8
	C30.6,1.1,29.6,0.2,28.1,0.6z M29.1,29.1c0,1.5-0.8,2.6-2.3,2.7L25.4,32V9.7c0-1.6-1.3-2.9-2.8-3.1l-13.4-1l17.6-3.1
	c1.3-0.2,2.3,0.7,2.3,2.1V29.1z"/>
</svg>
