<?xml version="1.0" encoding="utf-8"?>
<!-- Generator: Adobe Illustrator 25.1.0, SVG Export Plug-In . SVG Version: 6.00 Build 0)  -->
<svg version="1.1" id="レイヤー_3" xmlns="http://www.w3.org/2000/svg" xmlns:xlink="http://www.w3.org/1999/xlink" x="0px"
	 y="0px" viewBox="0 0 16 16" style="enable-background:new 0 0 16 16;" xml:space="preserve">
<style type="text/css">
	.st0{fill:#4D4D4D;}
</style>
<path class="st0" d="M8,0C3.6,0,0,3.6,0,8s3.6,8,8,8s8-3.6,8-8S12.4,0,8,0z M8,14.3c-3.5,0-6.3-2.8-6.3-6.3c0-3.2,2.4-5.8,5.4-6.3
	c-1,1-1.6,2.4-1.6,4c0,3.2,2.6,5.8,5.8,5.8c0.8,0,1.6-0.2,2.3-0.5C12.5,12.9,10.4,14.3,8,14.3z"/>
</svg>
