<!-- Generated by IcoMoon.io -->
<svg version="1.1" xmlns="http://www.w3.org/2000/svg" width="32" height="32" viewBox="0 0 32 32">
<title>question</title>
<path d="M14.4 22.4h3.2v3.2h-3.2v-3.2zM16 6.4c-3.536 0-6.4 2.864-6.4 6.4h3.2c0-1.76 1.44-3.2 3.2-3.2s3.2 1.44 3.2 3.2c0 3.2-4.8 2.8-4.8 8h3.2c0-3.6 4.8-4 4.8-8 0-3.536-2.864-6.4-6.4-6.4zM16 0c-8.832 0-16 7.168-16 16s7.168 16 16 16 16-7.168 16-16-7.168-16-16-16zM16 28.8c-7.056 0-12.8-5.744-12.8-12.8s5.744-12.8 12.8-12.8 12.8 5.744 12.8 12.8-5.744 12.8-12.8 12.8z"></path>
</svg>
