<!-- Generated by IcoMoon.io -->
<svg version="1.1" xmlns="http://www.w3.org/2000/svg" width="32" height="32" viewBox="0 0 32 32">
<title>question-fill</title>
<path d="M16 0c-8.873 0-16 7.127-16 16s7.127 16 16 16 16-7.127 16-16-7.127-16-16-16zM17.455 24.727c0 0.436-0.291 0.727-0.727 0.727h-1.455c-0.436 0-0.727-0.291-0.727-0.727v-1.455c0-0.436 0.291-0.727 0.727-0.727h1.455c0.436 0 0.727 0.291 0.727 0.727v1.455zM19.418 18.255c-1.018 0.873-1.745 1.455-1.964 2.255-0.073 0.364-0.364 0.582-0.727 0.582h-1.455c-0.436 0-0.8-0.364-0.727-0.8 0.291-2.109 1.818-3.273 3.055-4.291 1.309-1.018 2.036-1.673 2.036-2.909 0-2.036-1.6-3.636-3.636-3.636s-3.636 1.6-3.636 3.636c0 0.145 0 0.291 0 0.436 0.073 0.364-0.145 0.727-0.509 0.8l-1.382 0.436c-0.436 0.145-0.873-0.145-0.945-0.582-0.073-0.364-0.073-0.727-0.073-1.091 0-3.636 2.909-6.545 6.545-6.545s6.545 2.909 6.545 6.545c0 2.691-1.745 4.073-3.127 5.164z"></path>
</svg>
