<svg xmlns="http://www.w3.org/2000/svg" width="24" height="24" viewBox="0 0 24 24">
    <g fill="none" fill-rule="evenodd">
        <g>
            <path fill="#4D4D4D" d="M10.162 0c2.714 0 5.266 1.057 7.185 2.976 1.92 1.92 2.976 4.471 2.976 7.186 0 2.388-.818 4.65-2.322 6.467l5.715 5.716c.379.379.379.992 0 1.371-.19.19-.437.284-.685.284-.249 0-.497-.095-.686-.284l-5.716-5.715c-1.817 1.504-4.08 2.322-6.467 2.322-2.715 0-5.266-1.057-7.186-2.976C1.057 15.427 0 12.876 0 10.162c0-2.715 1.057-5.266 2.976-7.186C4.896 1.057 7.447 0 10.162 0zm0 1.939c-4.534 0-8.223 3.689-8.223 8.223 0 4.534 3.689 8.222 8.223 8.222 2.255 0 4.3-.912 5.787-2.387l.023-.025.024-.023c1.476-1.487 2.388-3.532 2.388-5.787 0-4.534-3.688-8.223-8.222-8.223z"/>
        </g>
    </g>
</svg>
