<!-- Generated by IcoMoon.io -->
<svg version="1.1" xmlns="http://www.w3.org/2000/svg" width="32" height="32" viewBox="0 0 32 32">
<title>service-ferry</title>
<path d="M28.903 19.809v-3.666c0-0.001 0-0.002 0-0.003 0-0.503-0.346-0.925-0.814-1.041l-0.007-0.002-0.211-0.052v-2.515c0-0.001 0-0.002 0-0.002 0-0.505-0.348-0.928-0.817-1.043l-0.007-0.002-1.24-0.298v-3.746l-5.284-0.95c-0.040-0.004-0.086-0.006-0.133-0.006-0.528 0-0.991 0.279-1.25 0.697l-0.004 0.006-1.274 2.090-3.017-0.724c-0.075-0.019-0.161-0.029-0.25-0.029-0.263 0-0.504 0.094-0.692 0.249l0.002-0.001-2.669 2.225-1.52-0.37c-0.076-0.019-0.163-0.030-0.252-0.030-0.297 0-0.567 0.12-0.762 0.315l-1.19 1.191c-3.294-0.85-7.513-1.878-7.513-1.564 0 3.615 0.516 9.296 7.226 14.977h23.226c1.548-1.549 1.548-5.164 1.548-5.164zM5.678 17.511c0 0-0.001 0-0.002 0-0.57 0-1.033-0.462-1.033-1.033s0.462-1.033 1.033-1.033c0.57 0 1.033 0.462 1.033 1.033v0c0 0 0 0.001 0 0.002 0 0.57-0.462 1.031-1.031 1.031 0 0 0 0 0 0v0zM14.604 9.558l12.201 2.93c0.019 0.004 0.033 0.021 0.033 0.042 0 0 0 0 0 0v0 2.265l-14.348-3.492zM27.871 19.628l-14.887-2.607c-0.932-0.167-1.63-0.972-1.63-1.939 0 0 0-0.001 0-0.001v0-1.96s-1.127-0.307-2.67-0.713l0.789-0.777 18.364 4.469c0.019 0.005 0.033 0.022 0.033 0.042v0zM18.064 15.445c0 0.428-0.347 0.775-0.774 0.775s-0.774-0.347-0.774-0.775c0-0.428 0.347-0.775 0.774-0.775s0.774 0.347 0.774 0.775zM17.936 11.314c0 0.357-0.289 0.646-0.645 0.646s-0.645-0.289-0.645-0.646c0-0.357 0.289-0.646 0.645-0.646s0.645 0.289 0.645 0.646zM21.936 12.347c0 0.357-0.289 0.646-0.645 0.646s-0.645-0.289-0.645-0.646c0-0.357 0.289-0.646 0.645-0.646s0.645 0.289 0.645 0.646zM22.064 16.478c0 0.428-0.347 0.775-0.774 0.775s-0.774-0.347-0.774-0.775c0-0.428 0.347-0.775 0.774-0.775s0.774 0.347 0.774 0.775zM25.936 13.379c0 0.357-0.289 0.646-0.645 0.646s-0.645-0.289-0.645-0.646c0-0.357 0.289-0.646 0.645-0.646s0.645 0.289 0.645 0.646zM26.064 17.511c0 0.428-0.347 0.775-0.774 0.775s-0.774-0.347-0.774-0.775c0-0.428 0.347-0.775 0.774-0.775s0.774 0.347 0.774 0.775z"></path>
</svg>
