<!-- Generated by IcoMoon.io -->
<svg version="1.1" xmlns="http://www.w3.org/2000/svg" width="32" height="32" viewBox="0 0 32 32">
<title>service-rentacar</title>
<path d="M31.256 11.353h-2.64c-0.319 0.001-0.591 0.203-0.696 0.486l-0.002 0.005-2.259-6.253c-0.075-0.259-0.287-0.434-0.526-0.434h-17.75c-0.239 0-0.45 0.175-0.526 0.434l-2.729 6.64v-0.133c0-0.411-0.333-0.745-0.744-0.745h-2.64c-0.411 0-0.744 0.334-0.744 0.745v0 1.608c0 0 0 0 0 0 0 0.411 0.333 0.745 0.744 0.745h2.473l-0.355 0.864c-0.178 0.421-0.281 0.911-0.281 1.425 0 0 0 0.001 0 0.001v0 10.103h5.161v-4.131h16.516v4.131h5.161v-10.188c0-0.457-0.082-0.896-0.232-1.301l0.008 0.026-0.337-0.931h2.396c0.411 0 0.744-0.333 0.744-0.744v-1.608c0-0.411-0.333-0.745-0.744-0.745v0zM8.419 7.222h15.635l2.425 6.712h-20.817zM9.032 19.097h-2.581c-0.713 0-1.291-0.578-1.291-1.291s0.578-1.291 1.291-1.291v0h2.58c0.713 0 1.291 0.578 1.291 1.291s-0.578 1.291-1.291 1.291v0zM25.548 19.097h-2.58c-0.713 0-1.291-0.578-1.291-1.291s0.578-1.291 1.291-1.291v0h2.581c0.713 0 1.291 0.578 1.291 1.291s-0.578 1.291-1.291 1.291v0z"></path>
</svg>
