<?xml version="1.0" encoding="utf-8"?>
<!-- Generator: Adobe Illustrator 23.1.1, SVG Export Plug-In . SVG Version: 6.00 Build 0)  -->
<svg version="1.1" id="レイヤー_1" xmlns="http://www.w3.org/2000/svg" xmlns:xlink="http://www.w3.org/1999/xlink" x="0px"
	 y="0px" viewBox="0 0 1024 1024" style="enable-background:new 0 0 1024 1024;" xml:space="preserve">
<style type="text/css">
	.st0{fill-rule:evenodd;clip-rule:evenodd;fill:#1C5DB5;}
	.st1{fill:#1C5DB5;}
</style>
<title>iPhone 8</title>
<desc>Created with Sketch.</desc>
<path class="st0" d="M1000.3,358.4L1000.3,358.4c6.4,0,12,2.3,16.7,7s7,10.3,7,16.7v618.4c0,6.4-2.3,12-7,16.7s-10.2,7.1-16.6,7.1
	H842.5c0.6-2.7,0.9-5.5,0.9-8.5V907.6c0-10.8-3.9-20.2-11.8-28.1c-7.9-7.9-17.2-11.8-27.9-11.8h-79.4c-10.8,0-20.1,4-27.9,11.8
	c-7.9,7.9-11.8,17.3-11.8,28.1v108.3c0,3,0.4,5.8,0.9,8.5H527.6c-6.4,0-11.9-2.4-16.6-7.1c-4.7-4.7-7-10.3-7-16.7V382.2
	c0-6.4,2.3-12,7-16.7c4.7-4.7,10.2-7,16.6-7h112.2V423c0,16.9,6.3,32.1,18.2,44.1s27,18.3,43.8,18.3h124.4
	c16.8,0,31.9-6.3,43.8-18.3s18.2-27.2,18.2-44.1v-64.5h112.1V358.4z M959.5,813.9c3-3,4.5-6.6,4.5-10.7v-30.5
	c0-4.1-1.5-7.7-4.5-10.7s-6.5-4.5-10.6-4.5h-30c-4.1,0-7.6,1.5-10.6,4.5s-4.4,6.6-4.4,10.7v30.5c0,4.1,1.5,7.7,4.4,10.7
	c3,3,6.5,4.5,10.6,4.5h30C953.1,818.4,956.6,816.9,959.5,813.9z M964,886.2c0-4-1.5-7.5-4.5-10.4s-6.5-4.4-10.6-4.4h-30
	c-4.1,0-7.6,1.4-10.6,4.4c-3,2.9-4.4,6.4-4.4,10.4v29.5c0,4,1.5,7.4,4.4,10.4s6.5,4.4,10.6,4.4h30c4.1,0,7.6-1.5,10.6-4.4
	s4.5-6.4,4.5-10.4V886.2z M959.5,694c3-3,4.5-6.5,4.5-10.5v-30c0-4.1-1.5-7.6-4.5-10.5s-6.5-4.5-10.6-4.5h-30
	c-4.1,0-7.6,1.5-10.6,4.5s-4.4,6.5-4.4,10.5v30c0,4.1,1.5,7.6,4.4,10.5c3,3,6.5,4.5,10.6,4.5h30C953.1,698.4,956.6,696.9,959.5,694z
	 M959.5,580.9c3-3,4.5-6.6,4.5-10.7v-30.5c0-4.1-1.5-7.7-4.5-10.7s-6.5-4.5-10.6-4.5h-30c-4.1,0-7.6,1.5-10.6,4.5s-4.4,6.6-4.4,10.7
	v30.5c0,4.1,1.5,7.7,4.4,10.7s6.5,4.5,10.6,4.5h30C953.1,585.4,956.6,583.9,959.5,580.9z M959.5,467.1c3-2.9,4.5-6.4,4.5-10.4v-29.5
	c0-4-1.5-7.5-4.5-10.4s-6.5-4.4-10.6-4.4h-30c-4.1,0-7.6,1.4-10.6,4.4c-3,2.9-4.4,6.4-4.4,10.4v29.5c0,4,1.5,7.4,4.4,10.4
	c3,2.9,6.5,4.4,10.6,4.4h30C953.1,471.4,956.6,470,959.5,467.1z M791,539.7v30.5c0,4.1,1.5,7.7,4.4,10.7c3,3,6.5,4.5,10.6,4.5h30
	c4.1,0,7.6-1.5,10.6-4.5s4.4-6.6,4.4-10.7v-30.5c0-4.1-1.5-7.7-4.4-10.7c-3-3-6.5-4.5-10.6-4.5h-30c-4.1,0-7.6,1.5-10.6,4.5
	C792.5,532,791,535.6,791,539.7z M791,653.4v30c0,4.1,1.5,7.6,4.4,10.5c3,3,6.5,4.5,10.6,4.5h30c4.1,0,7.6-1.5,10.6-4.5
	s4.4-6.5,4.4-10.5v-30c0-4.1-1.5-7.6-4.4-10.5c-3-3-6.5-4.5-10.6-4.5h-30c-4.1,0-7.6,1.5-10.6,4.5C792.5,645.8,791,649.4,791,653.4z
	 M619.6,813.9c2.9-3,4.4-6.6,4.4-10.7v-30.5c0-4.1-1.4-7.7-4.4-10.7s-6.4-4.5-10.4-4.5h-29.5c-4,0-7.4,1.5-10.4,4.5
	c-2.9,3-4.4,6.6-4.4,10.7v30.5c0,4.1,1.5,7.7,4.4,10.7s6.4,4.5,10.4,4.5h29.5C613.3,818.4,616.7,816.9,619.6,813.9z M624,886.2
	c0-4-1.4-7.5-4.4-10.4s-6.4-4.4-10.4-4.4h-29.5c-4,0-7.4,1.4-10.4,4.4c-2.9,2.9-4.4,6.4-4.4,10.4v29.5c0,4,1.5,7.4,4.4,10.4
	c2.9,2.9,6.4,4.4,10.4,4.4h29.5c4,0,7.5-1.5,10.4-4.4s4.4-6.4,4.4-10.4V886.2z M619.6,694c2.9-3,4.4-6.5,4.4-10.5v-30
	c0-4.1-1.4-7.6-4.4-10.5s-6.4-4.5-10.4-4.5h-29.5c-4,0-7.4,1.5-10.4,4.5c-2.9,3-4.4,6.5-4.4,10.5v30c0,4.1,1.5,7.6,4.4,10.5
	c2.9,3,6.4,4.5,10.4,4.5h29.5C613.3,698.4,616.7,696.9,619.6,694z M619.6,580.9c2.9-3,4.4-6.6,4.4-10.7v-30.5
	c0-4.1-1.4-7.7-4.4-10.7c-2.9-3-6.4-4.5-10.4-4.5h-29.5c-4,0-7.4,1.5-10.4,4.5c-2.9,3-4.4,6.6-4.4,10.7v30.5c0,4.1,1.5,7.7,4.4,10.7
	s6.4,4.5,10.4,4.5h29.5C613.3,585.4,616.7,583.9,619.6,580.9z M619.6,467.1c2.9-2.9,4.4-6.4,4.4-10.4v-29.5c0-4-1.4-7.5-4.4-10.4
	c-2.9-2.9-6.4-4.4-10.4-4.4h-29.5c-4,0-7.4,1.4-10.4,4.4c-2.9,2.9-4.4,6.4-4.4,10.4v29.5c0,4,1.5,7.4,4.4,10.4
	c2.9,2.9,6.4,4.4,10.4,4.4h29.5C613.3,471.4,616.7,470,619.6,467.1z M738,803.2v-30.5c0-4.1-1.5-7.7-4.4-10.7s-6.5-4.5-10.6-4.5h-30
	c-4.1,0-7.6,1.5-10.6,4.5s-4.4,6.6-4.4,10.7v30.5c0,4.1,1.5,7.7,4.4,10.7c3,3,6.5,4.5,10.6,4.5h30c4.1,0,7.6-1.5,10.6-4.5
	C736.5,810.9,738,807.3,738,803.2z M738,683.4v-30c0-4.1-1.5-7.6-4.4-10.5s-6.5-4.5-10.6-4.5h-30c-4.1,0-7.6,1.5-10.6,4.5
	s-4.4,6.5-4.4,10.5v30c0,4.1,1.5,7.6,4.4,10.5c3,3,6.5,4.5,10.6,4.5h30c4.1,0,7.6-1.5,10.6-4.5C736.5,691,738,687.5,738,683.4z
	 M738,570.2v-30.5c0-4.1-1.5-7.7-4.4-10.7c-3-3-6.5-4.5-10.6-4.5h-30c-4.1,0-7.6,1.5-10.6,4.5s-4.4,6.6-4.4,10.7v30.5
	c0,4.1,1.5,7.7,4.4,10.7s6.5,4.5,10.6,4.5h30c4.1,0,7.6-1.5,10.6-4.5C736.5,577.9,738,574.3,738,570.2z M836,818.4
	c4.1,0,7.6-1.5,10.6-4.5s4.4-6.6,4.4-10.7v-30.5c0-4.1-1.5-7.7-4.4-10.7c-3-3-6.5-4.5-10.6-4.5h-30c-4.1,0-7.6,1.5-10.6,4.5
	s-4.4,6.6-4.4,10.7v30.5c0,4.1,1.5,7.7,4.4,10.7c3,3,6.5,4.5,10.6,4.5H836z M678.5,456.6L678.5,456.6c-0.8-0.7-1.7-1.3-2.5-2.1
	c-7.3-7.3-11-16.2-11-26.5V303c0-10.3,3.7-19.2,11-26.5s16.1-11,26.4-11h124.4c10.3,0,19.1,3.7,26.4,11s11,16.2,11,26.5v125
	c0,10.3-3.7,19.2-11,26.5c-0.8,0.8-1.7,1.4-2.6,2.1c-6.8,5.8-14.7,8.9-23.8,8.9H702.3C693.1,465.4,685.3,462.4,678.5,456.6
	L678.5,456.6z M698,356.6L698,356.6v59.6c0,2.2,0.9,4.1,2.5,5.8c1.6,1.7,3.6,2.5,5.8,2.5h16.6c2.2,0,4.2-0.8,5.8-2.5
	c1.6-1.6,2.5-3.5,2.5-5.8V375h66.5v41.2c0,2.2,0.9,4.1,2.5,5.8c1.6,1.7,3.6,2.5,5.8,2.5h16.6c2.2,0,4.2-0.8,5.8-2.5
	c1.6-1.6,2.5-3.5,2.5-5.8V300.7c0-2.2-0.9-4.2-2.5-5.8s-3.6-2.5-5.8-2.5H806c-2.2,0-4.2,0.8-5.8,2.5s-2.5,3.6-2.5,5.8v41.2h-66.5
	v-41.2c0-2.2-0.9-4.2-2.5-5.8s-3.6-2.5-5.8-2.5h-16.6c-2.2,0-4.2,0.8-5.8,2.5s-2.5,3.6-2.5,5.8L698,356.6L698,356.6z"/>
<path class="st1" d="M154.5,497.2c-25-1.6-47.4-9.6-68.3-24.4C65.7,458.3,48.9,439,35.3,422c-8.5-10.6-15-23.7-19.3-39
	c29.6,26.1,73.2,44,129.9,53.3c24.7,4,61.4,4.7,81.1,4.7c6.7,0,11.3,0,12.7-0.1c1.3,0,7.3,0.1,15.9,0.1c24.5,0,69.4-0.6,94.1-4.7
	C406.4,427,450,409.1,479.6,383c-4.3,15.3-10.7,28.4-19.3,39c-13.6,17-30.3,36.3-50.9,50.8c-21,14.8-43.4,22.8-68.5,24.4h-0.1
	L154.5,497.2L154.5,497.2z"/>
<path class="st1" d="M467,164.6c-1.2-0.9-2.4-1.8-3.6-2.7c-9.7-7-18-13.1-24.8-23.3c-7.9-11.8-13.1-28.2-16.4-51.6
	c-3.4-23.5-10.1-43.7-20-60.1c4.5,1.3,11,3.7,18.1,8.1c11.9,7.4,27.4,21.9,34.1,49.7C459.9,107.5,464.1,137.7,467,164.6z"/>
<path class="st1" d="M30.1,163.4c3-26.6,7.1-56.2,12.5-78.8C49.4,56.9,65,42.2,76.8,34.9c6.2-3.8,11.9-6.1,16.3-7.5
	C83.3,43.8,76.7,63.8,73.4,87c-3.4,23.4-8.5,39.8-16.4,51.6c-6.8,10.2-15.2,16.3-24.8,23.3C31.5,162.4,30.8,162.9,30.1,163.4z"/>
<path class="st1" d="M491.6,249.8c-6.7-42.7-17.7-57.5-23.6-62.6c-4.1-3.5-8.4-6.6-12.9-9.9c-11-8-22.4-16.3-32.2-30.9
	c-11-16.2-18-37.1-22-65.8c-2.8-19.7-8.4-36.2-16.4-49.1c-6.2-9.9-13.9-17.6-23-23.1C346.5-0.4,333,0,332.8,0h-0.5H162.8h-0.1
	c-0.9,0-14.7-0.1-29.5,9.1c-8.8,5.5-16.4,13.3-22.5,23.2c-7.9,12.8-13.2,29-16,48.4c-4.1,28.6-11.1,49.6-22,65.8
	c-9.9,14.6-21.3,22.9-32.2,30.9c-4.5,3.3-8.7,6.4-12.9,9.9c-6,5.1-16.9,19.9-23.6,62.6c-4.3,27.9-4.2,52.1-3.6,55.6
	c0.1,0.8,0.3,1.7,0.4,2.8c1.2,7.8,4.3,28.6,23.3,50c20.8,23.3,53.7,40.4,98,51.1c-1.3-9-2-18-2.4-26.9c-0.1-3-0.2-6-0.2-9
	c0-24.2,3.4-39.3,3.5-40l0.2-1l0.4-1l0,0c6.8-34.7,29-60.8,64-75.6c29-12.2,57.6-12.9,63-12.9c5.3,0,33.4,0.6,61.3,12.8
	c34,14.8,55,41.1,60.5,76c1.7,10.9,2.8,21.9,3.2,32.6c0.1,3,0.2,5.9,0.2,8.9c0,17.3-1.7,29.9-2.8,36c44.4-10.6,77.4-27.8,98.2-51.1
	c19-21.4,22.1-42.1,23.3-50c0.1-1.1,0.3-2,0.4-2.9C495.9,301.9,496,277.8,491.6,249.8z M372.5,128.8l-38.7,28.4
	c-3.9,2.9-8.6,4.4-13.5,4.4h-145c-4.9,0-9.6-1.6-13.5-4.4l-38.7-28.4c-7.9-5.8-11.3-16-8.3-25.3l6.9-21.9
	c1.9-6.2,6.4-11.2,12.3-13.9s12.6-2.8,18.5-0.2l31.1,13.3c0.1,0,0.3,0.1,0.5,0.1h127.4c0.1,0,0.3,0,0.5-0.1l31-13.4
	c5.9-2.5,12.7-2.5,18.5,0.2c5.9,2.7,10.3,7.8,12.3,13.9l6.9,21.9C383.7,112.8,380.4,123,372.5,128.8z"/>
<g id="ガイド">
</g>
</svg>
