<?xml version="1.0" encoding="utf-8"?>
<!-- Generator: Adobe Illustrator 23.0.4, SVG Export Plug-In . SVG Version: 6.00 Build 0)  -->
<svg version="1.1" id="レイヤー_1" xmlns="http://www.w3.org/2000/svg" xmlns:xlink="http://www.w3.org/1999/xlink" x="0px"
	 y="0px" viewBox="0 0 1024 1024" style="enable-background:new 0 0 1024 1024;" xml:space="preserve">
<style type="text/css">
	.st0{fill-rule:evenodd;clip-rule:evenodd;fill:#1C5DB5;}
	.st1{fill:#1C5DB5;}
</style>
<title>iPhone 8</title>
<desc>Created with Sketch.</desc>
<path id="Shape" class="st0" d="M1000.3,358.4L1000.3,358.4c6.4,0,12,2.3,16.7,7c4.7,4.7,7,10.3,7,16.7v618.4c0,6.4-2.3,12-7,16.7
	s-10.2,7.1-16.6,7.1H842.5c0.6-2.7,0.9-5.5,0.9-8.5V907.6c0-10.8-3.9-20.2-11.8-28.1c-7.9-7.9-17.2-11.8-27.9-11.8h-79.4
	c-10.8,0-20.1,4-27.9,11.8c-7.9,7.9-11.8,17.3-11.8,28.1v108.3c0,3,0.4,5.8,0.9,8.5H527.6c-6.4,0-11.9-2.4-16.6-7.1
	c-4.7-4.7-7-10.3-7-16.7V382.2c0-6.4,2.3-12,7-16.7c4.7-4.7,10.2-7,16.6-7h112.2v64.5c0,16.9,6.3,32.1,18.2,44.1s27,18.3,43.8,18.3
	h124.4c16.8,0,31.9-6.3,43.8-18.3s18.2-27.2,18.2-44.1v-64.5H1000.3L1000.3,358.4z M959.5,813.9c3-3,4.5-6.6,4.5-10.7v-30.5
	c0-4.1-1.5-7.7-4.5-10.7s-6.5-4.5-10.6-4.5h-30c-4.1,0-7.6,1.5-10.6,4.5s-4.4,6.6-4.4,10.7v30.5c0,4.1,1.5,7.7,4.4,10.7
	c3,3,6.5,4.5,10.6,4.5h30C953.1,818.4,956.6,816.9,959.5,813.9z M964,886.2c0-4-1.5-7.5-4.5-10.4s-6.5-4.4-10.6-4.4h-30
	c-4.1,0-7.6,1.4-10.6,4.4c-3,2.9-4.4,6.4-4.4,10.4v29.5c0,4,1.5,7.4,4.4,10.4s6.5,4.4,10.6,4.4h30c4.1,0,7.6-1.5,10.6-4.4
	s4.5-6.4,4.5-10.4V886.2z M959.5,694c3-3,4.5-6.5,4.5-10.5v-30c0-4.1-1.5-7.6-4.5-10.5s-6.5-4.5-10.6-4.5h-30
	c-4.1,0-7.6,1.5-10.6,4.5c-3,3-4.4,6.5-4.4,10.5v30c0,4.1,1.5,7.6,4.4,10.5c3,3,6.5,4.5,10.6,4.5h30
	C953.1,698.4,956.6,696.9,959.5,694z M959.5,580.9c3-3,4.5-6.6,4.5-10.7v-30.5c0-4.1-1.5-7.7-4.5-10.7c-3-3-6.5-4.5-10.6-4.5h-30
	c-4.1,0-7.6,1.5-10.6,4.5c-3,3-4.4,6.6-4.4,10.7v30.5c0,4.1,1.5,7.7,4.4,10.7s6.5,4.5,10.6,4.5h30
	C953.1,585.4,956.6,583.9,959.5,580.9z M959.5,467.1c3-2.9,4.5-6.4,4.5-10.4v-29.5c0-4-1.5-7.5-4.5-10.4c-3-2.9-6.5-4.4-10.6-4.4
	h-30c-4.1,0-7.6,1.4-10.6,4.4c-3,2.9-4.4,6.4-4.4,10.4v29.5c0,4,1.5,7.4,4.4,10.4c3,2.9,6.5,4.4,10.6,4.4h30
	C953.1,471.4,956.6,470,959.5,467.1z M791,539.7v30.5c0,4.1,1.5,7.7,4.4,10.7c3,3,6.5,4.5,10.6,4.5h30c4.1,0,7.6-1.5,10.6-4.5
	c3-3,4.4-6.6,4.4-10.7v-30.5c0-4.1-1.5-7.7-4.4-10.7c-3-3-6.5-4.5-10.6-4.5h-30c-4.1,0-7.6,1.5-10.6,4.5
	C792.5,532,791,535.6,791,539.7z M791,653.4v30c0,4.1,1.5,7.6,4.4,10.5c3,3,6.5,4.5,10.6,4.5h30c4.1,0,7.6-1.5,10.6-4.5
	c3-3,4.4-6.5,4.4-10.5v-30c0-4.1-1.5-7.6-4.4-10.5c-3-3-6.5-4.5-10.6-4.5h-30c-4.1,0-7.6,1.5-10.6,4.5
	C792.5,645.8,791,649.4,791,653.4z M619.6,813.9c2.9-3,4.4-6.6,4.4-10.7v-30.5c0-4.1-1.4-7.7-4.4-10.7s-6.4-4.5-10.4-4.5h-29.5
	c-4,0-7.4,1.5-10.4,4.5c-2.9,3-4.4,6.6-4.4,10.7v30.5c0,4.1,1.5,7.7,4.4,10.7c2.9,3,6.4,4.5,10.4,4.5h29.5
	C613.3,818.4,616.7,816.9,619.6,813.9z M624,886.2c0-4-1.4-7.5-4.4-10.4s-6.4-4.4-10.4-4.4h-29.5c-4,0-7.4,1.4-10.4,4.4
	c-2.9,2.9-4.4,6.4-4.4,10.4v29.5c0,4,1.5,7.4,4.4,10.4c2.9,2.9,6.4,4.4,10.4,4.4h29.5c4,0,7.5-1.5,10.4-4.4
	c2.9-2.9,4.4-6.4,4.4-10.4V886.2z M619.6,694c2.9-3,4.4-6.5,4.4-10.5v-30c0-4.1-1.4-7.6-4.4-10.5s-6.4-4.5-10.4-4.5h-29.5
	c-4,0-7.4,1.5-10.4,4.5c-2.9,3-4.4,6.5-4.4,10.5v30c0,4.1,1.5,7.6,4.4,10.5c2.9,3,6.4,4.5,10.4,4.5h29.5
	C613.3,698.4,616.7,696.9,619.6,694z M619.6,580.9c2.9-3,4.4-6.6,4.4-10.7v-30.5c0-4.1-1.4-7.7-4.4-10.7c-2.9-3-6.4-4.5-10.4-4.5
	h-29.5c-4,0-7.4,1.5-10.4,4.5c-2.9,3-4.4,6.6-4.4,10.7v30.5c0,4.1,1.5,7.7,4.4,10.7c2.9,3,6.4,4.5,10.4,4.5h29.5
	C613.3,585.4,616.7,583.9,619.6,580.9z M619.6,467.1c2.9-2.9,4.4-6.4,4.4-10.4v-29.5c0-4-1.4-7.5-4.4-10.4
	c-2.9-2.9-6.4-4.4-10.4-4.4h-29.5c-4,0-7.4,1.4-10.4,4.4c-2.9,2.9-4.4,6.4-4.4,10.4v29.5c0,4,1.5,7.4,4.4,10.4
	c2.9,2.9,6.4,4.4,10.4,4.4h29.5C613.3,471.4,616.7,470,619.6,467.1z M738,803.2v-30.5c0-4.1-1.5-7.7-4.4-10.7s-6.5-4.5-10.6-4.5h-30
	c-4.1,0-7.6,1.5-10.6,4.5s-4.4,6.6-4.4,10.7v30.5c0,4.1,1.5,7.7,4.4,10.7c3,3,6.5,4.5,10.6,4.5h30c4.1,0,7.6-1.5,10.6-4.5
	C736.5,810.9,738,807.3,738,803.2z M738,683.4v-30c0-4.1-1.5-7.6-4.4-10.5s-6.5-4.5-10.6-4.5h-30c-4.1,0-7.6,1.5-10.6,4.5
	c-3,3-4.4,6.5-4.4,10.5v30c0,4.1,1.5,7.6,4.4,10.5c3,3,6.5,4.5,10.6,4.5h30c4.1,0,7.6-1.5,10.6-4.5C736.5,691,738,687.5,738,683.4z
	 M738,570.2v-30.5c0-4.1-1.5-7.7-4.4-10.7c-3-3-6.5-4.5-10.6-4.5h-30c-4.1,0-7.6,1.5-10.6,4.5c-3,3-4.4,6.6-4.4,10.7v30.5
	c0,4.1,1.5,7.7,4.4,10.7s6.5,4.5,10.6,4.5h30c4.1,0,7.6-1.5,10.6-4.5C736.5,577.9,738,574.3,738,570.2z M836,818.4
	c4.1,0,7.6-1.5,10.6-4.5c3-3,4.4-6.6,4.4-10.7v-30.5c0-4.1-1.5-7.7-4.4-10.7c-3-3-6.5-4.5-10.6-4.5h-30c-4.1,0-7.6,1.5-10.6,4.5
	s-4.4,6.6-4.4,10.7v30.5c0,4.1,1.5,7.7,4.4,10.7c3,3,6.5,4.5,10.6,4.5H836z M678.5,456.6L678.5,456.6c-0.8-0.7-1.7-1.3-2.5-2.1
	c-7.3-7.3-11-16.2-11-26.5v-125c0-10.3,3.7-19.2,11-26.5s16.1-11,26.4-11h124.4c10.3,0,19.1,3.7,26.4,11s11,16.2,11,26.5v125
	c0,10.3-3.7,19.2-11,26.5c-0.8,0.8-1.7,1.4-2.6,2.1c-6.8,5.8-14.7,8.9-23.8,8.9H702.3C693.1,465.4,685.3,462.4,678.5,456.6
	L678.5,456.6z M698,356.6L698,356.6v59.6c0,2.2,0.9,4.1,2.5,5.8c1.6,1.7,3.6,2.5,5.8,2.5h16.6c2.2,0,4.2-0.8,5.8-2.5
	c1.6-1.6,2.5-3.5,2.5-5.8v-41.2h66.5v41.2c0,2.2,0.9,4.1,2.5,5.8c1.6,1.7,3.6,2.5,5.8,2.5h16.6c2.2,0,4.2-0.8,5.8-2.5
	c1.6-1.6,2.5-3.5,2.5-5.8V300.7c0-2.2-0.9-4.2-2.5-5.8s-3.6-2.5-5.8-2.5h-16.6c-2.2,0-4.2,0.8-5.8,2.5c-1.6,1.7-2.5,3.6-2.5,5.8
	v41.2h-66.5v-41.2c0-2.2-0.9-4.2-2.5-5.8s-3.6-2.5-5.8-2.5h-16.6c-2.2,0-4.2,0.8-5.8,2.5c-1.6,1.7-2.5,3.6-2.5,5.8V356.6L698,356.6z
	"/>
<g>
	<path class="st1" d="M350.5,191.9c2.4,0,2.1-1.9,1.5-3.6c-0.6-0.5-1.1-1-1.7-1.3c-0.9-0.3-2.3-0.7-2.7-0.3
		c-0.6,0.7-1.2,2.5-0.8,2.9C347.7,190.8,349.2,192,350.5,191.9z"/>
	<path class="st1" d="M353.9,190c3.1,0.7,2.1,2.6,1.7,4.7c-0.7,3.1-1.3,6.4-1.4,9.6c-0.1,2.2,1.7,3.1,3.2,1.5
		c1.3-1.4,1.7-3.7,2.6-5.5c0.4-0.9,0.9-2,1.7-2.5c0.4-0.2,1.7,0.5,2.2,1.1c1.1,1.3,2.1,2.8,3,4.3c1.5,2.6,3.6,4.1,6.5,3.4
		c1-0.2,2.6-1.7,2.5-2.4c-0.2-1.3-1.2-2.7-2.2-3.7c-0.7-0.6-2-0.5-3.1-0.8c2.9-6.8,2.6-7.6-3.8-10.9c-2.7-1.4-5.4-2.8-8.1-4.1
		c-3.6-1.7-6.2-0.2-6.6,3.6c0,0,0,0,0,0C352.7,189,353.2,189.9,353.9,190z"/>
	<path class="st1" d="M302.1,110.2c-2.8-0.4-5,0.9-5.8,3.6c-0.2,0.6,1.7,1.8,2.1,2.1c3.8,0.2,6.2-0.5,6.8-3.5
		C305.3,111.9,303.3,110.4,302.1,110.2z"/>
	<path class="st1" d="M357.5,47.3c-4.2,3-6.9,0.1-10.3-1c-1.1-0.4-2.4-0.3-3.6-0.4c0.5,1.3,0.5,3.1,1.5,3.8c3.1,2.3,6.5,4.3,9.8,6.2
		c0.6,0.3,2.1,0.2,2.4-0.2c0.4-0.7,0.2-1.8,0.1-2.7c-0.1-0.5-0.6-1-1.6-2.4c1.8,0.5,2.7,0.5,3.1,0.9c3,2.8,5.1-0.3,7.4-1.1
		c0.2-0.1-0.3-3.1-0.6-3.1C362.9,46.9,359.3,46,357.5,47.3z"/>
	<path class="st1" d="M404.3,461.2c-1.1,0.1-2.1,1.3-3.1,2c0.7,0.8,1.5,1.6,2.7,2.9c1.2-1.2,2-1.9,2.7-2.6
		C405.8,462.7,405,461.2,404.3,461.2z"/>
	<path class="st1" d="M383.4,199.2c0.5,0.1,1.4-1,2.6-1.9c-1.1-1-1.9-2.1-2.5-2c-0.8,0.2-1.5,1.2-2.2,1.9
		C381.9,197.9,382.5,199,383.4,199.2z"/>
	<path class="st1" d="M473.9,121.2c-0.6-0.1-1.5,0.5-1.9,1c-2,3.3-4.1,6.6-5.8,10.2c-1.7,3.5-2.9,7.2-4.5,11.4
		c-3.8-1.9-8.6-2-9.9-7.3c-0.1-0.5-0.9-0.8-1.3-1.3c-3.4-4.1-7.7-7.7-9.9-12.3c-1.7-3.6-0.7-8.4-0.6-12.7c0-0.5,1.9-0.8,2.8-1.3
		c0.8-0.5,1.4-1.2,2.1-1.8c-0.7-0.7-1.3-1.9-2.2-2.1c-2.2-0.4-4.4-0.4-7.4-0.7c1.4-2.6,2.5-4.5,3.4-6.5c0.4-0.9,0.2-2,0.3-3.1
		c-0.9-0.1-2.1-0.5-2.7-0.1c-2.5,1.6-3.1,0-3.9-1.8c-2-4.7-3.6-9.7-6.3-14.1c-1.4-2.2-4.7-3.2-7.2-4.6c-4.2-2.4-8.4-0.1-12.6,0.3
		c-3.8,0.4-7.1-0.4-9.5-3.4c-0.6-0.7-0.9-2.2-0.5-2.9c2-4.3,2-4.5-2.7-4.7c-0.8,0-1.5-0.1-3-0.2c2.2-3.1,4.9-4.2,8-4.8
		c2.4-0.5,4.9-1,7.2-2c2.2-1,1.1-4.5-2.9-6.8c2.1-0.7,4-1.3,5.8-1.9c-1.2-0.9-2.5-1.7-3.8-2.6c-0.7,0.5-1.3,1.1-2,1.6
		c-5.9,3.9-12.8,6.3-19.2,9.5c-1.1,0.6-1.8,2-2.6,3.1c-1.4,1.8-2.3,4.6-4.2,5.4c-3.3,1.4-3.4,2.9-1,6c-1.3,1-2.2,2-3.3,2.5
		c-3.2,1.3-5.5,2.8-2.4,6.4c-0.7,0.6-1.5,1.8-2.2,1.8c-7.2,0.2-14.4,0.4-21.6,0c-1.5-0.1-3.3-2.4-4.1-4.2c-0.5-1,0.7-2.7,0.9-3.5
		c4.7,1.7,8.6,3.4,12.6,4.6c1.1,0.3,2.6-1.1,4-1.7c-1-0.8-1.9-2-2.9-2.2c-3-0.4-4.7-1.1-2.9-4.5c0.4-0.8-0.1-2.1-0.2-3.4
		c-0.1,0.1,0.1-0.1,0.3-0.3c1.2-0.9,2.5-1.9,3.8-2.8c-1.6-1.2-3.1-3.3-4.8-3.5c-3.1-0.3-7-1.8-8.7,3c-0.2,0.6-2.5,0.4-4.2,0.6
		c0-3.8,0.2-7.4-4.3-8.5c-0.6-0.2-1.1-2.2-0.9-3.2c0.2-1.4,1.4-2.7,1.8-4.1c1-4.5,5.2-3.8,8.1-5.1c1.5-0.7,3-1.3,4.6-1.7
		c3-0.8,6-1.5,9-2.2c3-0.7,6.4-0.9,9.1-2.3c5.8-3,11.9-3.3,18-3.2C348.1,12.1,305.1,0.2,259.4,0.2c-85,0-160.4,40.9-207.8,104.1
		c0.6,0.3,1.1,0.8,1.6,1.4c2.9,3.3,6,5.4,11.1,3.5c5-1.9,11.7,1.5,14.9,5.8c0.6,0.8,2.1,1,3.3,1.2c3.4,0.6,6.9,1.2,10.3,1.6
		c4.7,0.4,9.8,1.9,13.3-2.9c1.9-2.6,4.7-2.5,7.3-2c5,1,10,2.2,14.8,3.8c2.5,0.9,4.7,2.9,7.1,4.3c2.4,1.4,4.9,2.7,7.1,4.2
		c1.4,1,3.1,2.2,3.5,3.6c0.2,0.9-1.7,2.4-2.7,3.5c-1.5,1.7-2.4,4.4-5.6,2c-1.7-1.3-4.2-1.5-6-2.7c-1.8-1.3-3-1.6-4.3,0.5
		c-0.4,0.7-1.2,1.3-1.9,1.5c-3.6,1.2-4.3,2.6-2.6,5.8c1.6,3.1,0.6,5.2-3,5.1c-6-0.2-10.2,2.5-13.8,6.8c-1.3,1.6-2.5,1.8-4.8,1.3
		c-6-1.3-12.1-1.2-15.8,4.9c-0.8,1.3-1.2,3.9-0.5,5.1c1.3,2.2,0.9,3.4-0.6,5c-0.8,0.8-1.3,1.9-1.9,2.8c-3.6,4.7-7.2,9.3-10.8,14
		c-3.1-1.9-6.2-9.9-5-12.6c1.7-3.8,3.2-7.9,5.7-11.2c2.1-2.9,5.5-4.7,8.1-7.2c1-0.9,1.3-2.5,1.9-3.7c-1.3-0.4-2.5-0.9-3.8-1.1
		c-5-0.7-8.8,1.3-12.3,4.7c-1.4,1.3-3.7,1.9-5.7,2.3c-8.2,1.5-16.4,2.6-24.8,2.4c-2.2-0.1-4.6,1.9-6.6,3.4c-2.3,1.8-4.4,4-6.1,6.3
		c-1.1,1.5-2.3,4-1.8,5.2c0.7,1.6,3.1,2.8,4.9,3.4c1.7,0.5,3.4,0.2,4.3,2.4c0.1,0.3,2.9-0.4,5.3-0.8c3.1,2.7,3.3,16.9-1.8,20.3
		c0-2.8,0-5,0-7.2c0-1.4,0.2-2.9-0.2-4.2c-0.2-0.8-1.3-1.3-2-1.9c-0.6,0.7-1.4,1.3-1.8,2.1c-2.6,4.6-5.1,9.4-7.8,13.9
		c-1.6,2.6-3.5,5-5.7,7.1c-1.2,1.1-3.2,1.9-4.9,2c-5.2,0.3-5.9,0.8-7,5.9c-0.1,0.4-0.1,0.9-0.3,1c-0.3,0.2-0.6,0.4-0.8,0.7
		c-0.4,2.5-0.8,5-1.1,7.5c0.6,1.3,1.3,2.7,1.7,4c0.3,1.1-1,2.7-1.5,4c-0.3-0.2-0.7-0.3-1.1-0.4c-0.9,9-1.4,18.1-1.4,27.3
		c0,24.5,3.4,48.2,9.7,70.6c0.1-0.1,0.2-0.1,0.3-0.2c2.3-1.7,4.1-2.9,6.7-0.8c0.6,0.5,1.7,0.3,2.6,0.3c8.9,0,17.3,2.5,25.6,5.4
		c0.5,0.2,1,0.4,1.4,0.6c6.9,4.9,11.1,4.1,15.3-3.1c1.9,5.4-0.3,7.9-5.3,7.5c-1.5-0.1-3.1,1.3-4.7,2c1,1.7,1.9,3.6,3.2,5.1
		c1,1.1,2.6,1.6,3.9,2.3c-0.2,0.5-0.4,1-0.7,1.6c-2.6-0.9-5.1-2-7.7-2.5c-1.9-0.4-4-0.2-6-0.2c-2.9-0.1-5.9,0-8.8-0.2
		c-1.3-0.1-2.9-0.5-3.9-1.2c-1.3-0.9-2.9-2.3-3.2-3.7c-0.9-4.4-3.1-6.9-7.5-7c-2.9-0.1-5.4-0.2-7.7-2.5c-0.5-0.5-1.6-0.7-2.7-0.6
		c2.3,7.9,5,15.6,8,23.2c1.6,0,3.4,0.3,5.2,0.3c-2.1,6.3-1.3,7.7,4.4,9.4c1.3,0.4,2.3,1.6,3.5,2.1c1.3,0.5,2.9,1.2,4.1,0.9
		c0.7-0.2,1.1-2.2,1.4-3.5c0.6-3.2,1.1-6.5,1.6-9.8c0.7-0.2,1.3-0.3,2-0.5c3,4.8,6,9.7,8.9,14.5c0.7,1.2,1,2.9,1.9,3.9
		c3.1,3.4,6.2,6.8,9.8,9.7c7.2,5.8,8.1,15,4.3,23.1c-1.7,3.6-2.4,7.6-6,10.1c-0.9,0.6-0.6,3.1-0.7,4.7c0,1-0.2,1.8-0.6,2.4
		C106,481.8,178.4,519,259.4,519c57.4,0,110.4-18.6,153.3-50.2c-2.3-0.6-4.2,0-5.7,2.6c-1.9-1.2-4.3-1.9-5.4-3.5
		c-2.2-3.2-4-6.4-7-9.1c-1.7-1.5-1.5-5.4-1.9-8.2c-0.5-3.1-1.3-6.2-1.2-9.3c0.1-1.9,1.1-4.2,2.4-5.6c2.6-2.8,2-5.4,1.4-8.7
		c-0.8-3.9-0.5-8-0.3-12c0.1-2,0.7-3.9,1.1-5.9c1.1-6.3,2.1-12.7,3.5-19c1.5-7.4,2.6-14.9,1.9-22.5c-0.5-5.8-4.7-8.7-9.2-11.4
		c-4-2.4-7.8-5.1-8.8-10.2c-0.2-1.1-1.3-2.1-2-3.1c-2.6-3.7-5.1-7.5-7.7-11.3c-0.2-0.3-0.5-0.7-0.5-1c0.9-5.8,1.8-11.5,3-17.2
		c0.3-1.6,1.8-3,3.1-4.2c2.3-2.1,3.2-4.2,1.3-7c-0.3-0.4-0.4-0.9-0.6-1.4c-1.1-4.6-1.2-4.6-5.7-3.2c-0.7,0.2-1.6,0.1-2.3-0.3
		c-5.4-3.2-11.2-5.7-14.3-12c-0.8-1.6-3.8-2.1-5.8-3c-3.3-1.4-6.6-2.8-10-4.1c-1.6-0.6-3.7-1.5-4.9-0.9c-3.8,2-5.7-0.2-8-2.5
		c-0.9-0.9-2.5-1.2-3.9-1.6c-4-1.3-8.1-2.3-12.1-3.7c-1-0.3-2.1-2-2-3c0.4-5.1-1.9-8.8-5.4-12c-1.9-1.7-3.5-3.7-5.5-5.3
		c-0.8-0.6-2.2-0.5-3.3-0.7c0,1-0.3,2.3,0.2,3c1.1,1.6,2.6,2.9,3.8,4.5c0.4,0.5,0.3,1.3,0.5,2c-0.3,0.2-0.7,0.5-1,0.7
		c-3.7-4.2-8.2-8-10.8-12.8c-4.7-8.6-11.2-15.6-18.3-22.1c-4-3.6-6.2-7.4-5.5-12.9c0.2-1.5-0.9-3.2-0.8-4.7
		c0.3-5.1,0.8-10.1,1.4-15.2c0-0.4,1.6-0.5,1.9-1.1c0.6-1.2,0.8-2.7,1.2-4c-1.2-0.3-2.3-0.6-3.5-0.9c-2.5-0.6-5.1-1.1-7.6-1.8
		c-0.4-0.1-0.8-1.5-0.6-1.9c2.3-3.5-0.6-4.9-2.7-5.8c-3.7-1.7-6.6-3.8-7.7-7.9c-0.1-0.2-0.2-0.6-0.4-0.6c-4.6-0.4-4.9-4-5.5-7.4
		c-0.1-0.7-1.2-1.7-1.9-1.8c-3.9-0.6-6.3-3.5-9.4-5.4c-2.4-1.5-5.7-1.7-8.5-2.5c-3.6-1-7.2-2.1-10.8-2.7c-1.1-0.2-3.2,0.5-3.4,1.2
		c-1,3.7-4.4,3.9-7,5.1c-0.8,0.4-2.3-0.4-3.4-1c-1-0.5-2.6-2.1-2.7-1.9c-1.3,1.2-3.1,2.7-3.2,4.2c-0.1,2.2,1.2,4.4,2.1,7.1
		c-0.4,0-1.1,0.4-1.5,0.1c-4.3-2.6-7.5-0.8-10.3,2.6c-2.8,3.4-6.3,5.3-11.2,4.3c0.9-0.7,1.8-1.4,2.6-2.1c2.4-2.1,5-3.9,7.1-6.3
		c0.7-0.8,0.6-3.1-0.1-4.1c-0.5-0.7-2.7-1-3.7-0.5c-2.2,1.1-3.6,1.8-5.1-1.2c-0.7-1.4-3.4-2.1-5.3-2.5c-2-0.4-3.6-0.6-3.4-3
		c0.2-2.8-1.1-6,2.9-7.4c2.6-0.9,4.7-2.4,4.7-5.7c0-2.7-0.8-4.1-3.7-3.9c-2.5,0.1-5.2,0.7-7-3.1c2.6-0.7,5.1-1.3,7.5-2
		c1-0.3,1.8-1,2.7-1.5c-0.7-0.9-1.2-2-2-2.6c-2-1.3-4.2-2.4-6.8-3.9c2.2-1.3,3.7-2,4.9-3c1.1-0.9,1.8-2.3,2.7-3.5
		c1.4-1.7,2.8-4.8,4.2-4.8c5.4-0.1,8.3-3.4,10.8-6.3c6.6,1.3,12.7,2.5,18.8,3.8c0.2,0,0.6,0,0.7,0.2c3.4,3.9,7.5,2.4,11.9,2.3
		c4.9-0.1,9.9,2.2,14.7,4c4.4,1.6,6.7,1.1,9.5-2.6c0.8-1,2.7-1.6,4.1-1.7c3.7-0.2,7.4,0.5,10.2-3c0.3-0.4,2.4,0.1,3.1,0.8
		c1,0.9,1.7,2.3,2.1,3.6c0.7,2.2,1.7,1.8,3.5,1.3c5.7-1.4,11.6-3.1,16.8,1.6c0.5,0.5,1.4,0.8,2.1,0.8c2.7,0.1,5.2,0.1,4.8,3.9
		c0,0.4,0.7,1.2,0.8,1.1c2.8-0.8,5.5-1.7,8.2-2.7c0,0-0.2-1.8-0.7-2.2c-2.4-1.6-5.3-2.5-7.3-4.4c-2.4-2.3-4.3-5.2-5.8-8.2
		c-2.2-4.4-4-5-7.4-1.6c-2.3,2.3-4.7,3.7-7.7,1.7c-1.7-1.2-3.8-2.5-1.7-5.1c0.3-0.3,0.3-1,0.3-1.5c0.8-6.1,0.8-5.9,7.1-6.1
		c4.9-0.2,9.3,0.6,12.8,4.3c0.3,0.4,0.8,0.8,1.3,0.8c6.2,0,12.7,0.9,18.7-0.4c3.2-0.7,4.9,0.1,5.7,2c1.8,4.1,4.6,6.8,8.6,8.5
		c0.5,0.2,0.8,0.9,1.1,1.4c-1.3,1.9-2.1,4-3.7,5.3c-1,0.8-3.4,1.1-4.4,0.5c-1.6-1.1-2.8-1.9-4,0c-0.2,0.3,1.5,1.8,2.4,2.7
		c0.1,0.1,0.3,0,0.4,0c2.9,5,7.8,3.4,12,3.4c2.1,0,4.3-1.5,6.4-2.2c1.6-0.5,3.3-0.9,5-1.2c2.6-0.4,3.8-1.3,2.1-4
		c-1-1.6-2.1-3.3-2.4-5.1c-0.2-1.4,0.2-3.4,1.1-4.4c0.6-0.6,2.7-0.3,3.9,0.1c3.8,1.2,6.8,3.2,7.1,7.9c0,0.7,2,1.8,3.1,1.8
		c2.3,0.1,3.4,0.6,3.9,3.1c0.6,2.9,2.5,3.1,4.3,0.9c1.4-1.8,2.7-3.7,3.3-5.8c0.3-1-0.8-2.8-1.7-3.7c-1-1-2.6-1.4-4-2
		c-4.5-1.9-6.9-6.4-3.5-11.5c0.7-1.1,2.4-1.5,3.7-2.3c0.6,1.3,1.2,2.7,1.7,4c0.3,0.9,0.4,2,0.9,2.6c0.4,0.3,1.8,0,2.3-0.4
		c0.4-0.4,0.3-1.5,0.2-2.3c0-0.2-0.5-0.5-1.4-1.2c2.4-1,4.3-2.2,6.4-2.5c1.1-0.2,3,1,3.7,2.1c3.5,5.5,5.7,6.2,10.9,2.2
		c2.1-1.6,3-0.9,4.8,0.3c4,2.6,7.2,6.9,12.9,6.1c2-0.3,5.5,5.3,6.3,8c0.5,1.7,1.9,3.5,3.5,4.3c3.3,1.7,7,2.6,10.4,4.2
		c1,0.5,2.3,2.6,2,3.2c-0.9,1.7-2.4,3.1-3.9,4.4c-0.3,0.2-1.7-1.2-2.7-1.7c-2.5-1.1-4.9-2.4-7.5-3c-1.9-0.4-2.9,3.2-1.1,5.1
		c1.5,1.6,3.6,2.8,5.6,3.7c2.5,1,2.8,2.7,2.2,4.9c-0.8,2.5-2.2,1.9-4.2,1.2c-0.9-0.3-2.4,1.2-3.7,1.9c-0.1,0.5-0.2,1-0.3,1.5
		c-4.4-2.8-8.8-5.9-13.4-8.4c-1.7-0.9-4.3-1.2-6.2-0.7c-3,0.8-4.1-0.7-5.5-2.7c1.8-0.6,3.5-1,5.1-1.7c4.1-1.9,6.7-7.1,5.6-11.5
		c-0.2-0.9-1.2-1.7-2.1-2.3c-1.9-1.2-4.3-1.9-6-3.4c-2.6-2.4-5.3-2.8-8.3-1.4c-0.6,0.3-1.1,0.6-1.7,0.7c-3.9,0.9-5.5,4.3-3.1,7.5
		c2.7,3.6-0.1,5.9-1.7,8c-1.1,1.5-3.6,1.7-5.6-0.3c-0.6-0.6-2.4-0.2-3.6,0c-0.4,0.1-0.9,1.7-0.7,1.9c0.9,0.7,2,1.3,3,1.7
		c2.8,1.3,5.5,2.5,8.5,3.8c-2.3,1.4-3.9,2.5-5.6,3.3c-1.4,0.6-3,1.3-4.5,1.1c-0.6-0.1-1-2.2-1.3-3.5c-0.2-1,0.1-2.1-0.1-3
		c-0.2-0.7-0.9-1.9-1.4-1.9c-0.8,0-1.7,0.7-2.2,1.4c-2.5,3.3-4.6,6.9-7.4,10c-2,2.3-4.8,3.9-7.3,5.9c-2.8,2.2-1.8,5.3-1.7,8.2
		c0,0.4,0.6,1.2,0.8,1.2c3.7-0.4,4.4,3.1,6.5,4.7c0.6,0.5,1.6,1.1,2.4,0.9c3.6-0.5,5.8,1.5,7.8,3.9c2.3,2.8,4.8,4.1,8.6,3.8
		c3.7-0.3,5.6,1.9,6.7,5.6c0.8,2.8,2.5,5.4,4,7.9c0.3,0.4,2.6,0.3,2.6,0.2c0.4-2.4,3.7-4.1,1.4-7.2c-1.7-2.3-0.7-4.6,1.8-6.1
		c3.9-2.3,4.1-3.9,1-7.2c-0.8-0.8-1.4-2.1-1.4-3.2c-0.1-3.3,0.3-6.7,0.1-9.9c-0.4-5.7,4.2-6.9,7.7-8.7c2.4-1.2,5.5-1.1,7.6,1.5
		c0.4,0.5,0.9,0.9,1.5,1.1c3.8,1.3,4.8,4,4.4,7.8c-0.1,1.1,1,2.3,1.5,3.4c1.1-0.6,2.2-1.3,3.4-2c1.3-0.3,3.1-0.5,4.6-1.1
		c2.8-1.2,4-0.4,5,2.6c0.6,1.8,2.4,3.1,3.7,4.7c0.3,0.4,0.7,0.8,0.8,1.3c0.3,6.5,5.5,8.1,10.2,10c4.6,1.9,2.5,5.6,3,9.4
		c-3.3-2.7-5.1-0.9-6.9,1.2c-1.6,2-3.5,2.9-6.2,2.9c-1.3,0-2.6,1.4-3.9,2.1c-0.8-0.5-2.1-1.9-3.6-2.2c-1.4-0.3-2.9,0.7-4.4,1.1
		c0.8,1,1.7,2.1,2.5,3.1c0.3,0.4,0.8,0.8,0.8,1.2c-0.5,7,4.5,7.1,9.3,7.4c0.2,0,0.5,0.2,0.7,0.3c0.1,0.1,0.1,0.2,0.2,0.5
		c-3.7,2.3-7.4,4.6-10.7,6.6c-1.2-1.5-2-3.7-3.1-3.9c-3.7-0.5-5.7,2.6-7,5.3c-2.6,5.2-5.8,9.7-10.4,13.2c-0.4,0.3-0.8,0.9-1.2,0.9
		c-5.7-0.4-4.6,3.7-5.3,7.2c-0.6,3.2-1.7,6.1-5.4,8.1c-2.9,1.6-4.9,5.2-6.5,8.4c-0.6,1.1,0.9,3.6,1.9,5.1c2.8,3.7,1.1,6-2.2,8.6
		c-1.1-2.6-2.1-5-3.2-7.4c-2.2-4.6-7.8-6.2-12.4-4.6c-3.8,1.3-8.1,1.6-12.2,1.9c-4.8,0.4-12.3,7.3-12.1,12c0.2,4.6,0.9,9.3,1.8,13.8
		c0.8,4,5.9,5.7,9.6,4.7c4.3-1.2,6-4,7.6-7.7c1.7-3.9,4-0.1,6.6-0.1c-0.5,1.9-0.8,3.6-1.5,5.2c-1.9,4.6-0.5,7,4.4,7
		c1.4,0,2.8,0,4.2,0c2.2-0.1,3.2,1,3.3,3.2c0,1.2,0.6,2.4,0.8,3.7c0.1,1.3,0.5,2.8,0,3.9c-1.1,2.3-1,4.3,1.1,5.8
		c2.7,2,4.9,3.7,9,1.9c6.1-2.6,12.1-5.3,18.1-8.3c1.8-0.9,4.7,0.4,7,0.9c0.5,0.1,1,1.1,1.5,1.1c4.8,0.1,9.5,0.1,14.9,0.1
		c2.2,2.4,4.6,5.9,7.9,8.2c2.8,1.9,6.6,3.1,9.9,3c6.9-0.2,12.5,6.5,13.2,13.3c0.2,1.9,0.9,2.9,3,3.1c2,0.2,4,1.2,6,1.7
		c2.8,0.7,5.6,1.2,8.3,2c2.2,0.6,4.3,1.5,6.5,2.4c3.8,1.5,7.6,3.2,11.5,4.5c2.9,0.9,3.6,2.1,2.3,4.9c-3.4,7.2-6.7,14.4-10,21.6
		c-0.2,0.3-0.3,0.8-0.2,1.1c1.3,6.4-3.1,10.6-6.1,15.3c-0.7,1.1-2.7,2-4.1,2c-4.1-0.1-7.2,0.6-8.5,5.2c-0.4,1.5-2.5,2.4-3.6,3.8
		c-0.6,0.8-1.2,2-1.1,2.9c0,1.5,1.3,3.3,0.8,4.3c-2,3.8-3,8.4-7.3,10.9c-1.3,0.7-2.4,2.4-2.8,3.8c-0.8,2.8-4.7,5.2-7.5,4.3
		c-0.9-0.3-1.9-0.1-2.8-0.1c0,1-0.3,2.4,0.2,3.1c1.6,2.1,0.7,2.8-1.2,4c-2.6,1.6-4.8,3.5-8.2,3.3c-1.1-0.1-2.8,1.2-3.3,2.3
		c-1.2,2.5-2.5,4.6-5.3,5.5c-0.3,0.1-0.1,2.1,0,3.2c0.1,1,0.9,2.6,0.5,2.9c-4,3.3-5.4,7.2-5.1,12.6c0.2,3.1-2.5,6.3-4.2,9.4
		c-2.1,3.9-2,5.9,1.2,9.1c2,2,4,3.9,5.9,6c0.1,0.1,0.1,0.1,0.1,0.2c4.3-3.3,8.6-6.6,12.7-10.2c0-0.3,0-0.7,0-1c0.4,0,0.8,0,1.2,0
		c55.1-47.6,90-117.9,90-196.4c0-51.2-14.8-98.9-40.4-139C477.1,121.1,475.7,121.4,473.9,121.2z M9.1,244.2
		c-0.9-1.9-1.9-3.8-2.8-5.7c0.6-0.3,1.3-0.6,1.9-0.9c0.8,2,1.6,4,2.4,6.1C10.1,243.9,9.6,244,9.1,244.2z M38.8,210.7
		c-5,1.6-5.1,5.3-5.3,9.7c-0.1,3.7-0.8,8.1-2.9,11c-2,2.8-6.1,4.2-9.3,6c-0.5,0.3-1.6-0.1-2.1-0.5c-1.9-1.9-3.7-2.5-6.1-0.8
		c-0.4,0.3-1.6-0.7-2.3-1c5.3-3.3,10.4-6.4,15.4-9.6c0.8-0.5,1.4-1.5,1.8-2.4c0.8-2.5,1.6-5,2.1-7.5c0.8-4.1,1.2-8.2,1.8-12.3
		c0.1-0.5,0.3-0.9,0.5-1.7c2.8,2,5.4,3.7,7.6,5.7C40.5,207.6,39.6,210.5,38.8,210.7z M121.8,434.5c-1.5,0.6-2.3,3-3.3,4.6
		c-1.1,1.8-2.1,3.6-3.2,5.4c-1.7,2.8-3.2,5.7-5.1,8.3c-3.1,4.2-8.1,3.7-12.5-1.1c2.6-5.3,5.9-9.8,11.5-12.4c1.6-0.8,2.7-2.6,4-4
		c0.9-0.9,1.6-2.1,2.7-2.8c3.6-2.3,4.2-5.2,2.3-9.1c-1.5-3.2-2.2-6.7-3.2-10.1c0.6-0.3,1.2-0.5,1.7-0.8c2.1,2.3,4,4.9,6.3,6.9
		c1.5,1.3,3.7,1.6,6.1,2.6C126.5,425.2,128.1,431.8,121.8,434.5z M148.7,140.6c-0.3-0.2-0.6-0.4-1-0.6c0.6-1.1,1-2.5,2-3.1
		c1.1-0.7,2.7-0.8,4-1.2c0.2,0.5,0.4,1.1,0.7,1.6C152.5,138.4,150.6,139.5,148.7,140.6z M327.5,60.7c0.5,0.1,1,0,1.3,0.3
		c1.1,0.9,2.1,1.9,3.1,2.8c-0.5,0.3-1.2,1-1.4,0.9c-1.3-0.9-2.5-2-3.7-3C327,61.3,327.2,61,327.5,60.7z M290.9,63.8
		c2.4,0,4.4,0,6.5,0c-3,6.7-6.1,7.9-10.3,3.7C289.6,67.4,291.7,66.9,290.9,63.8z M280.5,73.8c-3.9,1.1-2.4,3.8-1.8,6.5
		c-3.6-0.5-6.6-4.7-10.7-0.6c-0.8-1.3-2.2-3.1-2-3.3c1.4-1.3,2.9-2.8,4.7-3.3c2.8-0.9,5.8-1.3,8.7-1.7c0.6-0.1,1.6,0.3,1.8,0.8
		C281.3,72.4,280.9,73.7,280.5,73.8z M305.6,82.8c-3.9,1.1-8.1,1.6-12.2,1.8c-1.4,0.1-2.8-1.4-4.3-2c-1.8-0.7-3.8-1.1-5.6-1.6
		c-0.6-0.2-1.2-0.4-2.1-0.8c0.5-1.5,0.8-2.5,1.4-4.3c3.2,0.6,6.3,1.4,9.5,1.9c2.8,0.4,5.8,1.1,6.2-3.2c0.1-0.6,0.7-1.4,1.3-1.5
		c0.5-0.1,1.1,0.7,1.7,1.1c1.3,0.8,2.6,1.6,3.9,2.4c1.1,0.7,2.3,1.2,3.5,1.8C307.8,79.9,307,82.4,305.6,82.8z M309.8,63.2
		c-0.8-1.7-2.1-3.7,0.2-5.4c0.5-0.4,1-0.7,1.5-1.1c0.1,0.4,0.2,0.8,0.2,1.1c2.7,0.7,5.4,1.3,8,2.1c1.2,0.4,2.6,0.8,3.5,1.6
		c0.4,0.3-0.2,2.5-0.6,2.7c-1,0.3-2.3-0.3-3.4-0.4c-1.9-0.1-3.9-0.6-5.5-0.1C312.1,64.2,310.7,65.1,309.8,63.2z M313.4,76.6
		c2.9,0,5.7-0.1,8.6,0.1c1,0.1,2.2,0.6,2.8,1.3c0.4,0.4,0.2,2.2-0.2,2.4c-1,0.5-2.5,1-3.5,0.6c-2.7-1-5.2-2.4-7.8-3.6
		C313.4,77,313.4,76.8,313.4,76.6z M329.8,93c-0.4,2.2-1.6,4.2-2.5,6.5c-4.2-2.6-7.3-4.4-10-6.1c0.9-2.2,1.4-5.1,3.1-6.7
		c1.3-1.3,4.1-1.3,6.3-1.3c0.7,0,1.6,1.8,2,2.9C329.3,89.8,330.1,91.5,329.8,93z M330.4,82.5c-0.3-1-1.1-2.1-0.8-3
		c0.1-0.6,1.7-1.2,2.5-1.2c0.9,0.1,1.6,0.9,2.5,1.5C333.7,80.3,332.8,80.9,330.4,82.5z M335.5,94.4c-2.2-4.5,0.1-6.8,2.8-8.2
		c2.1-1.2,4.7-1.1,6.4,2.2C341.5,90.4,338.6,92.4,335.5,94.4z M377.7,88.5c-1.5,0.4-3.1,0.7-4.9,1.1c-0.1-3.8,2.4-5.5,5.3-3.9
		c0.5,0.3,1.1,1.1,1.1,1.7C379.2,87.7,378.3,88.3,377.7,88.5z M387.9,266.4c-5.2-2.2-10.3-4.5-15.5-6.6c-1.6-0.6-3.5-0.5-5.2-0.4
		c-0.9,0-1.8,0.5-3,0.9c1.1-2.4,6.2-4.7,8.2-4c4.5,1.5,9.1,2.8,13.5,4.7c1.4,0.6,2.1,2.7,3.2,4.1C388.6,265.5,388.3,266,387.9,266.4
		z M390.7,269.7c0-0.4,0-0.9,0-1.3c9.1-3.1,11.2-3,12.1,1.3C398.7,269.7,394.7,269.7,390.7,269.7z M438.2,186
		c-3.9-0.1-7.6-1.2-11.6,0c-2.5,0.7-3-1.8-1.4-4.5c1.7-2.9,3.6-4.6,7.1-3.7c2.4,0.6,6.1,4.6,6.8,7.6
		C438.6,185.8,438.4,186,438.2,186z"/>
</g>
</svg>
