<!-- Generated by IcoMoon.io -->
<svg version="1.1" xmlns="http://www.w3.org/2000/svg" width="32" height="32" viewBox="0 0 32 32">
<title>service-international-flights</title>
<path d="M22.742 13.397v0.22l0.105 0.152h0.387v-0.235l-0.462-0.137h-0.031zM22.437 12.746v0.288l0.25-0.061-0.25-0.227zM21.725 12.64l-0.348 0.144-0.068 0.174 0.273 0.076h0.727v-0.25h-0.105v-0.144h-0.478zM22.234 13.533l0.227-0.041 0.182-0.117v-0.243h-0.409zM22.987 13.094l-0.109 0.116 0.147 0.123 0.149-0.123-0.186-0.116zM22.233 13.746l-0.182 0.016-0.061 0.265h0.387l0.174-0.174v-0.235l-0.28 0.038-0.038 0.090zM21.263 13.737l0.213 0.114 0.515-0.719h-0.402l-0.281 0.303-0.045 0.302zM19.611 10.739l0.599-0.038s0.022-0.265 0-0.265-0.288 0.045-0.288 0.045l-0.425 0.121zM21.225 11.791l-0.288-0.068-0.319 0.152 0.197 0.402 0.31-0.098 0.1-0.387zM20.221 9.966v-0.189h-0.434l-0.023 0.091h-0.266v0.265h0.599l0.124-0.166zM6.059 14.344c0.008-0.002 0.016-0.005 0.024-0.007 0.064-0.016 0.121-0.039 0.173-0.068l-0.003 0.002c0.005-0.003 0.011-0.005 0.016-0.008 0.055-0.034 0.103-0.074 0.144-0.12l0.001-0.001c0.008-0.009 0.016-0.018 0.024-0.027 0.039-0.048 0.071-0.103 0.094-0.163l0.001-0.004c0.004-0.011 0.007-0.022 0.010-0.033 0.021-0.062 0.033-0.134 0.033-0.209 0-0.005 0-0.009 0-0.014v0.001l-0.089-3.298 1.944-1.944 2.726 6.555c0.346 0.737 1.457 0.436 1.383-0.375l-0.795-9.493 2.314-2.313s0.863-0.864 1.095-2.197c0.003-0.015 0.004-0.032 0.004-0.050 0-0.033-0.005-0.065-0.015-0.095l0.001 0.002c-0.007-0.016-0.014-0.029-0.023-0.041l0.001 0.001c-0.013-0.030-0.029-0.055-0.049-0.078v0c-0.012-0.011-0.026-0.021-0.041-0.031l-0.001-0.001c-0.020-0.017-0.044-0.032-0.069-0.043l-0.002-0.001c-0.016-0.005-0.035-0.010-0.054-0.012h-0.001c-0.016-0.006-0.035-0.010-0.055-0.013h-0.001c-0.019 0-0.037 0.002-0.055 0.005h0.002c-0.188 0.033-0.349 0.073-0.505 0.122l0.028-0.008c-0.427 0.133-0.798 0.31-1.137 0.532l0.017-0.011c-0.225 0.142-0.421 0.293-0.6 0.462l-2.313 2.311-9.497-0.794c-0.026-0.002-0.051-0.003-0.076-0.003-0.041 0.004-0.079 0.011-0.115 0.020l0.005-0.001c-0.044 0.004-0.085 0.012-0.124 0.022l0.005-0.001c-0.046 0.018-0.086 0.038-0.124 0.062l0.002-0.002c-0.036 0.018-0.067 0.036-0.096 0.057l0.002-0.001c-0.033 0.029-0.063 0.061-0.089 0.096l-0.001 0.002c-0.023 0.025-0.045 0.052-0.065 0.080l-0.002 0.002c-0.019 0.034-0.038 0.074-0.053 0.116l-0.002 0.006c-0.013 0.026-0.025 0.058-0.036 0.090l-0.002 0.006c-0.009 0.040-0.014 0.087-0.015 0.134v0.001c-0.005 0.030-0.007 0.064-0.008 0.099v0c0.006 0.052 0.017 0.098 0.033 0.143l-0.001-0.005c0.006 0.036 0.015 0.068 0.025 0.099l-0.001-0.005c0.026 0.052 0.056 0.096 0.090 0.137l-0.001-0.001c0.016 0.027 0.032 0.050 0.050 0.072l-0.001-0.001c0.063 0.065 0.138 0.118 0.221 0.157l0.005 0.002 6.557 2.726-1.943 1.944-3.322-0.089c-0.045 0.004-0.087 0.011-0.127 0.023l0.004-0.001c-0.040 0.004-0.077 0.011-0.113 0.020l0.005-0.001c-0.040 0.018-0.075 0.038-0.107 0.062l0.002-0.001c-0.032 0.016-0.060 0.033-0.086 0.052l0.002-0.001c-0.028 0.027-0.053 0.057-0.075 0.089l-0.001 0.002c-0.020 0.022-0.039 0.046-0.057 0.071l-0.001 0.002c-0.016 0.031-0.031 0.068-0.042 0.106l-0.001 0.005c-0.026 0.049-0.042 0.107-0.042 0.168 0 0.014 0.001 0.027 0.002 0.040v-0.002c-0.003 0.024-0.005 0.051-0.005 0.079 0 0.005 0 0.009 0 0.014v-0.001c0.008 0.047 0.019 0.088 0.035 0.128l-0.002-0.005c0.007 0.032 0.015 0.060 0.024 0.086l-0.001-0.004c0.025 0.045 0.053 0.084 0.085 0.119v-0.001c0.015 0.024 0.029 0.044 0.045 0.064l-0.001-0.001c0.058 0.055 0.126 0.101 0.201 0.133l0.004 0.002 2.712 1.162 1.163 2.712c0.032 0.074 0.074 0.137 0.125 0.192v0c0.016 0.015 0.032 0.030 0.050 0.044l0.001 0.001c0.033 0.030 0.071 0.057 0.111 0.079l0.003 0.002c0.018 0.010 0.040 0.019 0.063 0.028l0.004 0.001c0.036 0.014 0.078 0.026 0.121 0.033l0.004 0.001c0.023 0.004 0.046 0.008 0.069 0.009 0.012 0 0.024 0.005 0.037 0.005 0.050-0.001 0.098-0.008 0.144-0.019l-0.005 0.001zM9.338 11.954l-0.232-0.559c-0.13 0.173-0.258 0.348-0.379 0.527zM19.281 6.305c-0.006 0-0.013 0-0.020 0-2.5 0-4.832 0.725-6.795 1.976l0.051-0.030 0.531 6.334c0.004 0.038 0.007 0.082 0.007 0.127 0 0.314-0.119 0.6-0.315 0.816l0.001-0.001c-0.232 0.251-0.563 0.408-0.931 0.408-0.002 0-0.003 0-0.005 0v0c-0.484 0-0.898-0.266-1.117-0.733l-0.206-0.496-0.178 0.094-1-0.818v-0.379l0.243-0.379-0.182-0.227-1.091 0.727-0.864-0.076-0.287-0.212-0.363 0.515 0.166 0.332 1.257 0.15 0.505 0.578-0.125 0.166-0.393-0.394-0.183 0.197 0.309 0.405-0.065 0.763h-0.808l-0.040 0.615 0.68 0.413 0.237 0.313-0.358 0.097-1.272-0.97h-0.409l0.016 0.788 0.35 0.365 0.576 0.604 0.070 0.702-0.465 0.389-0.231 0.082c0.040 0.99 0.188 1.927 0.431 2.825l-0.021-0.089 0.063-0.166h0.182l0.060 0.313 0.125 0.052v0.997l-0.040 0.025c0.038 0.102 0.078 0.202 0.119 0.302h0.053l-0.008-0.12 0.535-0.207 0.008 0.984-0.223 0.020v-0.334l-0.213-0.077 0.009 0.112c0.128 0.286 0.263 0.568 0.411 0.844l0.281-0.031 0.024-0.139 0.277-0.043 0.023 0.215-0.171-0.019v0.125h-0.241v0.106h-0.070q0.172 0.305 0.36 0.6l0.298-0.023v0.223h0.202l0.495-0.702h0.69l0.586 0.352-0.275 0.27-0.325-0.069 0.021 0.443 0.172 0.103 0.618 0.046 0.131-1.116 0.323 0.017 0.359 0.615 0.040 0.888 0.544 0.466 0.147 0.598-0.354 0.806-0.513 0.482c0.371 0.278 0.793 0.556 1.232 0.808l0.062 0.033 0.518-0.072 0.353-0.241 0.051-0.773 0.402-0.024 0.007 0.494 0.219-0.043 0.15 0.266-0.406 0.229-0.403 0.178-0.377 0.248-0.014 0.008c1.68 0.875 3.669 1.389 5.778 1.389 2.097 0 4.076-0.508 5.819-1.407l-0.071 0.033-0.284-0.005-0.719-0.629-0.56-0.984 0.079-0.952-0.424-0.565 0.172-0.96-0.252-0.071v-2.080s-0.707-0.535-0.747-0.535-0.375-0.090-0.375-0.090l-0.071-0.394-0.92-1.152 0.091-0.413 0.031-0.678 0.636-0.445-0.091-0.758-0.928-0.070-0.728-0.83-0.515-0.141-0.333-0.061 0.040-0.303-0.424-0.063v0.171l-1.060-0.26-0.427-0.653 0.174-0.316-0.672-0.979-0.115-0.719h-0.273l0.091 0.697 0.465 0.719-0.050 0.282-0.394-0.063-0.484-0.826v-0.961l-0.505-0.243v-1.070l0.939-1.141-0.063-0.682 0.263-0.186-0.313-0.293 0.020-0.515-0.372-0.335h-1.041l-0.171 0.182-1.243-0.010-0.454-0.384 0.355-0.251h0.909v-0.169l-0.424-0.063 0.273-0.212 0.596-0.092 0.887-0.606h1.536l0.839 0.252 0.281 0.162 0.252 0.021 0.375-0.363 1.212-0.010 0.273 0.152 0.515 0.11 0.040 0.202 0.819 0.031-0.111-0.264-0.727-0.021 0.171-0.161-0.059-0.191h-0.656l0.719-0.535h0.688l0.323 0.445 0.537 0.031 0.323-0.313 0.243 0.121-0.448 0.433s-0.615 0.010-0.586 0.010 0.050 0.424 0.050 0.424l0.747-0.020 0.081-0.202 0.515-0.031 0.063-0.303-0.303-0.051 0.102-0.273 0.232-0.071 0.808 0.041-0.445 0.404 0.072 0.313 0.463 0.074-0.031-0.566 0.445-0.232 0.788-0.090 1.141 0.505v0.434l0.364 0.091-0.182 0.344h-0.514l-0.152 0.394-1.177-0.278 0.925-0.492-0.352-0.302-0.798 0.101-0.070 0.072h-0.003l-0.013 0.018-0.229 0.239-0.38 0.031 0.031 0.189 0.133 0.055-0.005 0.063-0.309 0.044-0.023 0.179-0.295 0.016-0.053-0.356-0.531 0.161-1.086 0.633 0.122 0.447 0.303 0.197 0.606 0.083v0.689l0.281-0.045 0.257-0.537 0.644-0.205v-0.826l0.358-0.271 0.867 0.205-0.061 0.545h0.232l0.636-0.313 0.031 0.717 0.464 0.281-0.020 0.424-0.444 0.152 0.031 0.141 0.538 0.241-0.011 0.292-0.156 0.014c0-0.005-0.002-0.008-0.002-0.008l-0.676-0.207-0.028-0.217 0.197-0.136v-0.197l-0.212-0.053-0.053 0.182-0.372 0.058-0.037-0.012v0.018l-0.129 0.020-0.105-0.213-0.122-0.053h-0.266l-0.121 0.098v0.219l0.226 0.076 0.225 0.031-0.050 0.022-0.205 0.227-0.091-0.113-0.197-0.052-0.539 0.507 0.070 0.058-0.795 0.44-0.747 0.778-0.051 0.346-0.75 0.492-0.373 0.375 0.041 0.747-0.515-0.24 0.004-0.438h-1.433l-0.742 0.375-0.323 0.594-0.128 0.471 0.21 0.457 0.585 0.071 0.93-0.621 0.082 0.308-0.283 0.536 0.707 0.121 0.071 1.094 0.969 0.163 0.614-0.712 0.747 0.152 0.263 0.365 0.719-0.042 0.021-0.212 0.394 0.192 0.444 0.697 0.767 0.011 0.284 0.496 0.040 0.605 0.849 0.322 1.070 0.011 0.31 0.516 0.474 0.15-0.091 0.425-0.52 0.662-0.151 1.461-0.471 0.372-0.697-0.021-0.233 0.402 0.172 0.759-0.758 0.969-0.242 0.445-0.723 0.348-0.475 0.073-0.020 0.201 0.333 0.096-0.040 0.219-0.298 0.288 0.181 0.226 0.359 0.010-0.021 0.278-0.096 0.272-0.031 0.223 0.497 0.418c3.878-2.179 6.497-6.326 6.497-11.088 0-7.022-5.694-12.715-12.719-12.715zM10.048 13.662l-0.105-0.252-0.154 0.010 0.259 0.242z"></path>
</svg>
