<svg viewBox="0 0 34 33" version="1.1" xmlns="http://www.w3.org/2000/svg" xmlns:xlink="http://www.w3.org/1999/xlink">
    <title>service-international_rentacar</title>
        <g id="service-international_rentacar" >
            <path d="M27.9006019,13.0502299 C28.10974,13.0502299 28.2952516,13.2035475 28.3608807,13.4304577 L28.3608807,13.4304577 L30.3376292,18.9087166 C30.4312601,18.6563995 30.669275,18.479427 30.9484175,18.478551 L30.9484175,18.478551 L33.2568116,18.478551 C33.6164592,18.478551 33.9078524,18.7711687 33.9078524,19.1312462 L33.9078524,19.1312462 L33.9078524,20.5400164 C33.9078524,20.9000938 33.6164592,21.1918354 33.2568116,21.1918354 L33.2568116,21.1918354 L31.1601807,21.1918354 L31.4550741,22.0074854 L31.4480737,21.9847067 C31.5793318,22.3395276 31.6510863,22.7241359 31.6510863,23.1245141 L31.6510863,23.1245141 L31.6510863,32.0502299 L27.134929,32.0502299 L27.134929,28.4310572 L12.6825258,28.4310572 L12.6825258,32.0502299 L8.16636857,32.0502299 L8.16636857,23.1981065 C8.16636857,22.7477907 8.25649923,22.3185012 8.41225897,21.9496628 L8.41225897,21.9496628 L8.72290336,21.1927116 L6.55889316,21.1927116 C6.19924561,21.1927116 5.9078524,20.9000938 5.9078524,20.5400164 L5.9078524,20.5400164 L5.9078524,19.1312462 C5.9078524,18.7711687 6.19924561,18.478551 6.55889316,18.478551 L6.55889316,18.478551 L8.86903751,18.478551 C9.22868494,18.478551 9.52007815,18.7711687 9.52007815,19.1312462 L9.52007815,19.1312462 L9.52007815,19.2477676 L11.9081024,13.4304577 C11.9746066,13.2035475 12.1592431,13.0502299 12.3683812,13.0502299 L12.3683812,13.0502299 Z M13.907465,23.0502299 L11.9082399,23.0502299 C11.3557408,23.0502299 10.9078524,23.4979448 10.9078524,24.0502299 C10.9078524,24.602515 11.3557408,25.0502299 11.9082399,25.0502299 L11.9082399,25.0502299 L13.907465,25.0502299 C14.459964,25.0502299 14.9078524,24.602515 14.9078524,24.0502299 C14.9078524,23.4979448 14.459964,23.0502299 13.907465,23.0502299 L13.907465,23.0502299 Z M27.9076587,23.0502299 L25.9080461,23.0502299 C25.3556541,23.0502299 24.9078524,23.4979448 24.9078524,24.0502299 C24.9078524,24.602515 25.3556541,25.0502299 25.9080461,25.0502299 L25.9080461,25.0502299 L27.9076587,25.0502299 C28.4600508,25.0502299 28.9078524,24.602515 28.9078524,24.0502299 C28.9078524,23.4979448 28.4600508,23.0502299 27.9076587,23.0502299 L27.9076587,23.0502299 Z M26.8110085,15.0502299 L13.2917694,15.0502299 L10.9078524,21.0502299 L28.9078524,21.0502299 L26.8110085,15.0502299 Z M8.5977315,0 C13.2399782,0.00202599765 17,3.80703756 17,8.50035509 C17,9.55959578 16.6062468,10.8700403 15.8187404,12.4316886 L14.0911668,12.4316886 L14.4021908,12.1830548 L14.5019034,11.2065658 L14.8452843,10.7641046 L14.905376,10.4800681 L14.592371,10.3797917 L14.3876632,10.0349126 L13.6810907,10.0275814 L13.1204552,9.81234522 L13.0940619,9.40800204 L12.9065024,9.07649035 L12.4000155,9.06911738 L12.106821,8.60326325 L11.8466439,8.47495702 L11.8327971,8.61663065 L11.3579863,8.64470221 L11.1843148,8.40074703 L10.6910348,8.29917561 L10.2855811,8.77503443 L9.64570384,8.66609006 L9.59883977,7.93489289 L9.1319737,7.85402007 L9.31883156,7.49577356 L9.26468302,7.28991549 L8.65057998,7.70497348 L8.26425574,7.65751919 L8.12558266,7.35207393 L8.2101072,7.03729238 L8.42339962,6.6402595 L8.91337786,6.38962062 L9.85965661,6.38962062 L9.85701522,6.68238773 L10.1970945,6.84277572 L10.1700202,6.34350307 L10.41633,6.09286418 L10.911591,5.76402597 L10.9452687,5.53276982 L11.4385487,5.01277769 L11.9635255,4.71869473 L11.9173011,4.67992925 L12.2732287,4.34106547 L12.4033173,4.37582074 L12.4634089,4.45134658 L12.5988009,4.29962651 L12.6317977,4.28492236 L12.4832193,4.26420288 L12.3340014,4.21342763 L12.3340014,4.06703362 L12.4138828,4.00153333 L12.5895354,4.00153333 L12.6700979,4.03695696 L12.7394344,4.17934073 L12.8246194,4.16595244 L12.8246194,4.15392178 L12.8490729,4.1619631 L13.0947017,4.12317674 L13.1297002,4.00153333 L13.2696939,4.03695696 L13.2696939,4.16862592 L13.1396053,4.25954518 L13.158095,4.40456066 L13.6044903,4.54291332 C13.6044903,4.54291332 13.6058111,4.54493932 13.6058111,4.54828117 L13.708846,4.5389031 L13.7160891,4.34373896 L13.3608219,4.1826617 L13.3403511,4.08842148 L13.6335457,3.98682919 L13.6467526,3.70344015 L13.3403511,3.51562808 L13.3198804,3.03640653 L12.899899,3.24562734 L12.7467189,3.24562734 L12.7869795,2.88134462 L12.2144783,2.74434958 L11.9780738,2.92545705 L11.9780738,3.47753097 L11.552789,3.61454689 L11.3831002,3.97346178 L11.1975217,4.00355932 L11.1975217,3.54303127 L10.7973508,3.48757741 L10.5972654,3.35588756 L10.5167029,3.05712601 L11.2338408,2.63404758 L11.5844857,2.52643995 L11.6195048,2.76440069 L11.8142868,2.75368588 L11.8294748,2.63404758 L12.0335224,2.60463928 L12.0368241,2.56253195 L11.9489978,2.52579247 L11.928527,2.39944958 L12.1794593,2.3787301 L12.330679,2.21898958 L12.3392635,2.20695893 L12.387469,2.15883626 L12.9144473,2.09133085 L13.1468691,2.29317869 L12.5360678,2.62201692 L13.3132975,2.80784476 L13.4136497,2.54448596 L13.7530687,2.54448596 L13.873252,2.31456655 L13.6328853,2.25374485 L13.6328853,1.963693 L12.8794282,1.62614508 L12.359074,1.68629842 L12.0652191,1.84136033 L12.0856898,2.21965796 L11.7799487,2.17019856 L11.7324036,1.96099863 L12.0262791,1.69097701 L11.4926973,1.66357382 L11.3394966,1.71102812 L11.2721617,1.89349322 L11.4722265,1.92758011 L11.4306246,2.13009633 L11.0905454,2.15083669 L11.0370572,2.28582663 L10.5437979,2.29919403 C10.5437979,2.29919403 10.5299099,2.01582588 10.5107598,2.01582588 C10.4916097,2.01582588 10.8977237,2.00912129 10.8977237,2.00912129 L11.1935597,1.71971693 L11.0331157,1.63884412 L10.8198233,1.84804404 L10.4651958,1.82732456 L10.2519033,1.52989975 L9.79760453,1.52989975 L9.32281429,1.88747789 L9.75598197,1.88747789 L9.79496313,2.01513663 L9.68202299,2.12274426 L10.1621166,2.13678003 L10.2353946,2.3132298 L9.6945696,2.29253122 L9.66815568,2.15749951 L9.32809707,2.08397878 L9.14780142,1.98238648 L8.3474596,1.98907018 L8.09982908,2.23170951 L7.93344201,2.21767374 L7.74786357,2.10937685 L7.19383157,1.9409684 L6.17953698,1.9409684 L5.5938289,2.34597995 L5.20024083,2.40749092 L5.01996581,2.54916455 L5.29995339,2.59127188 L5.29995339,2.70422647 L4.69969701,2.70422647 L4.46527345,2.87198742 L4.76507147,3.12864165 L5.58588408,3.13532534 L5.69882424,3.01368194 L6.38622591,3.01368194 L6.63187538,3.23758601 L6.61868906,3.58179674 L6.82535736,3.77762926 L6.65168582,3.90194615 L6.69328775,4.35779562 L6.07322094,5.12038531 L6.07322094,5.83556247 L6.4066967,5.9979556 L6.4066967,6.6402595 L6.72630515,7.19235431 L6.98648228,7.23444076 L7.01952032,7.0459812 L6.71245848,6.56540203 L6.65236681,6.09954788 L6.83262118,6.09954788 L6.90858185,6.58010617 L7.35231509,7.23444076 L7.23741453,7.44564579 L7.51938315,7.88209163 L8.21935207,8.05586793 L8.21935207,7.94159747 L8.49933965,7.98368392 L8.47292572,8.18622103 L8.69282162,8.22699162 L9.03290086,8.32121095 L9.51363424,8.87595835 L10.1264372,8.92274428 L10.1865289,9.42936901 L9.76654754,9.72679381 L9.74607675,10.1799698 L9.68598507,10.4559859 L10.2935053,11.2259695 L10.34039,11.4892864 C10.34039,11.4892864 10.5616065,11.5494398 10.5880205,11.5494398 C10.614455,11.5494398 11.0813211,11.9070179 11.0813211,11.9070179 L11.0813211,13.2972283 L11.059509,13.2972283 L9.51363424,17 L8.59839185,17 L8.59839185,17 C7.07034648,17 5.89228557,16.6564577 4.78290086,16.0716336 L4.79214573,16.0662867 L5.04109695,15.9005308 L5.30721721,15.7815609 L5.57531852,15.6285041 L5.47626631,15.4507175 L5.33167073,15.4794574 L5.32702765,15.1492825 L5.06156774,15.1653234 L5.02788999,15.6819737 L4.79478713,15.843051 L4.45272684,15.8911736 L4.41178526,15.8691174 C4.12189248,15.7006881 3.84324624,15.5148811 3.59825711,15.3290741 L3.93701566,15.0069197 L4.17075823,14.4682131 L4.0737077,14.0685276 L3.71445774,13.757067 L3.68804381,13.1635542 L3.45097886,12.7525064 L3.23768645,12.741165 L3.15118085,13.4870454 L2.74308576,13.4563004 L2.62950591,13.3874583 L2.61563859,13.0913702 L2.83025171,13.1374878 L3.01186806,12.9570487 L2.6249041,12.7217614 L2.16924332,12.7217614 L1.84237104,13.1909574 L1.70898073,13.1909574 L1.70898073,13.0419108 L1.51219701,13.0572833 C1.42944715,12.9258232 1.35018475,12.79217 1.27447172,12.6562611 L1.32069609,12.6562611 L1.32069609,12.5854138 L1.47983996,12.5854138 L1.47983996,12.5018676 L1.59275948,12.5145666 L1.57759211,12.370867 L1.39465507,12.3996068 L1.37880671,12.4925104 L1.19326955,12.5132298 C1.0955174,12.3287596 1.00637042,12.1402792 0.921845866,11.9491253 L0.915902734,11.8742678 L1.05657751,11.9257323 L1.05657751,12.148968 L1.20381448,12.1356005 L1.1985317,11.4779242 L0.845245494,11.6162768 L0.850528278,11.6964812 L0.815529831,11.6964812 C0.788455562,11.6296442 0.76204164,11.5628072 0.736948415,11.4946334 L0.763382973,11.4779242 L0.763382973,10.8115589 L0.680839467,10.7768037 L0.641197949,10.5676037 L0.521014605,10.5676037 L0.479412678,10.6785532 L0.493279987,10.7380381 C0.332815413,10.1378416 0.235083903,9.51157856 0.208669981,8.84989191 L0.361210379,8.79508554 L0.668272218,8.53508947 L0.622047855,8.06589348 L0.241687383,7.66219778 L0.0105655687,7.4182426 L0,6.89156676 L0.270082349,6.89156676 L1.11004506,7.53988601 L1.34644966,7.47505408 L1.18994718,7.26585416 L0.740910503,6.9898172 L0.767324424,6.57876943 L1.30088565,6.57876943 L1.34380826,6.06880285 L1.13976072,5.79811285 L1.26060441,5.66644389 L1.52012119,5.92978181 L1.60266469,5.81883234 L1.26918894,5.43251427 L0.439131448,5.33225871 L0.329513673,5.11035975 L0.569220012,4.76614902 L0.7587399,4.90784354 L1.32928061,4.95863968 L2.04972032,4.47273443 L2.16990366,4.6244545 L2.00943909,4.87776687 L2.68146703,4.98293077 L2.86718993,3.95948866 L3.11482044,3.98037523 L3.85771199,3.16579886 L3.65135323,2.74806738 L3.21799982,2.68540766 L2.72273879,2.35122249 C3.34181508,1.82905815 3.38308683,1.74551185 4.0974596,1.32069983 C5.42277812,0.532586742 6.93365444,0 8.58452454,0 L8.5977315,0 Z M9.7343865,4.28123927 L9.663,4.374 L9.74688706,4.37499387 L9.74688706,4.4663689 L9.81251536,4.4663689 L9.81251536,4.62500613 L9.473,4.625 L9.40274812,4.71876073 L9.2656135,4.64940616 L9.273,4.601 L9.18748464,4.57680025 L9.22998674,4.4663689 L9.338,4.42 L9.47553108,4.28123927 L9.7343865,4.28123927 Z"></path>
        </g>
</svg>
