<?xml version="1.0" encoding="UTF-8"?>
<svg width="1024px" height="1024px" viewBox="0 0 1024 1024" version="1.1" xmlns="http://www.w3.org/2000/svg" xmlns:xlink="http://www.w3.org/1999/xlink">
    <!-- Generator: Sketch 55.1 (78136) - https://sketchapp.com -->
    <title>iPhone 8</title>
    <desc>Created with Sketch.</desc>
    <g id="iPhone-8" stroke="none" stroke-width="1" fill="none" fill-rule="evenodd">
        <g id="dp">
            <path fill="#1C5DB5" d="M467.354288,535.360582 L467.389724,535.377906 C470.144256,565.588043 428.75462,576.818018 415.86549,549.344306 L314.281696,305.050413 L241.814988,377.477099 L245.134128,500.418594 C245.875914,527.061535 209.271667,535.077883 198.782712,510.588647 L155.469314,409.523595 L54.3973676,366.212476 C29.9066032,355.724289 37.9229365,319.140445 64.5681889,319.864122 L187.517323,323.183268 L259.965919,250.739258 L15.656744,149.17968 C-11.8184903,136.273202 -0.588536561,94.885849 29.6239054,97.6403861 L383.49856,127.232367 L469.702491,40.981023 C469.702491,40.981023 501.856807,8.82900792 551.527363,0.141742903 L551.456492,0.159067035 C552.091971,0.0527598583 552.745562,0 553.416477,0 C559.80907,0 565,5.19094009 565,11.5827575 C565,12.2536739 564.94724,12.9245904 564.840933,13.489987 C556.153685,63.1574877 523.999369,95.3095028 523.999369,95.3095028 L437.760002,181.543522 L467.355076,535.361369 L467.354288,535.360582 Z M1000.31544,358.429147 L1000.33936,358.429147 C1006.74667,358.429147 1012.30032,360.769619 1016.9754,365.474464 C1021.65049,370.17931 1024,375.767569 1024,382.192393 L1024,1000.642 C1024,1007.06682 1021.65049,1012.65508 1016.9754,1017.35993 C1012.30032,1022.06477 1006.74763,1024.42915 1000.36329,1024.42915 L842.455355,1024.42915 C843.024787,1021.70625 843.380802,1018.88869 843.380802,1015.92677 L843.380802,907.617804 C843.380802,896.82276 839.441669,887.460873 831.586372,879.531186 C823.707149,871.674161 814.428749,867.685415 803.678438,867.685415 L724.297636,867.685415 C713.547325,867.685415 704.245,871.650259 696.389702,879.531186 C688.534405,887.459916 684.619198,896.82276 684.619198,907.617804 L684.619198,1015.92677 C684.619198,1018.88869 684.975213,1021.70625 685.544645,1024.42915 L527.636712,1024.42915 C521.2294,1024.42915 515.72361,1022.06477 511.024596,1017.35993 C506.325581,1012.65508 504,1007.06682 504,1000.642 L504,382.192393 C504,375.767569 506.349507,370.17931 511.024596,365.474464 C515.699684,360.769619 521.2294,358.429147 527.636712,358.429147 L639.790985,358.429147 L639.790985,422.913544 C639.790985,439.822688 646.079625,455.059657 657.968801,467.024937 C669.857977,478.990217 684.999139,485.319434 701.776821,485.319434 L826.152359,485.319434 C842.930041,485.319434 858.094172,478.990217 869.984305,467.024937 C881.874438,455.059657 888.162121,439.798786 888.162121,422.913544 L888.162121,358.429147 L1000.31639,358.429147 L1000.31544,358.429147 Z M959.53163,813.911601 C962.510862,810.908013 964,807.324528 964,803.185471 L964,772.69812 C964,768.559064 962.510862,765.000876 959.53163,761.97199 C956.552397,758.943104 953.052541,757.429147 948.981338,757.429147 L918.993779,757.429147 C914.922576,757.429147 911.397837,758.943104 908.443487,761.97199 C905.489138,765.000876 904,768.584361 904,772.69812 L904,803.185471 C904,807.324528 905.489138,810.908013 908.443487,813.911601 C911.397837,816.91519 914.922576,818.429147 918.993779,818.429147 L948.981338,818.429147 C953.052541,818.429147 956.552397,816.940488 959.53163,813.911601 Z M964,886.179382 C964,882.174214 962.510862,878.706394 959.53163,875.800389 C956.552397,872.894383 953.052541,871.429147 948.981338,871.429147 L918.993779,871.429147 C914.922576,871.429147 911.397837,872.869916 908.443487,875.800389 C905.489138,878.730862 904,882.198682 904,886.179382 L904,915.678912 C904,919.68408 905.489138,923.127432 908.443487,926.057905 C911.397837,928.988378 914.922576,930.429147 918.993779,930.429147 L948.981338,930.429147 C953.052541,930.429147 956.552397,928.96391 959.53163,926.057905 C962.510862,923.1519 964,919.68408 964,915.678912 L964,886.179382 Z M959.53163,693.96262 C962.510862,691.010137 964,687.486298 964,683.416945 L964,653.441349 C964,649.371995 962.510862,645.87304 959.53163,642.895674 C956.552397,639.918308 953.052541,638.429147 948.981338,638.429147 L918.993779,638.429147 C914.922576,638.429147 911.397837,639.943192 908.443487,642.895674 C905.489138,645.848157 904,649.371995 904,653.441349 L904,683.416945 C904,687.486298 905.489138,690.985254 908.443487,693.96262 C911.397837,696.939985 914.922576,698.429147 918.993779,698.429147 L948.981338,698.429147 C953.052541,698.429147 956.552397,696.939985 959.53163,693.96262 Z M959.53163,580.886304 C962.510862,577.882715 964,574.29923 964,570.160174 L964,539.672823 C964,535.533766 962.510862,531.950281 959.53163,528.946692 C956.552397,525.943104 953.052541,524.429147 948.981338,524.429147 L918.993779,524.429147 C914.922576,524.429147 911.397837,525.917806 908.443487,528.946692 C905.489138,531.975579 904,535.559064 904,539.672823 L904,570.160174 C904,574.29923 905.489138,577.857418 908.443487,580.886304 C911.397837,583.91519 914.922576,585.429147 918.993779,585.429147 L948.981338,585.429147 C953.052541,585.429147 956.552397,583.91519 959.53163,580.886304 Z M959.53163,467.059718 C962.510862,464.154607 964,460.688614 964,456.685264 L964,427.17303 C964,423.16968 962.510862,419.703687 959.53163,416.798576 C956.552397,413.893466 953.052541,412.429147 948.981338,412.429147 L918.993779,412.429147 C914.922576,412.429147 911.397837,413.868998 908.443487,416.798576 C905.489138,419.728155 904,423.194148 904,427.17303 L904,456.685264 C904,460.688614 905.489138,464.130139 908.443487,467.059718 C911.397837,469.989296 914.922576,471.429147 918.993779,471.429147 L948.981338,471.429147 C953.052541,471.429147 956.552397,469.989296 959.53163,467.059718 Z M791,539.672823 L791,570.160174 C791,574.29923 792.465189,577.857418 795.445331,580.886304 C798.425473,583.91519 801.927187,585.429147 806.000239,585.429147 L835.999761,585.429147 C840.072813,585.429147 843.574527,583.91519 846.554669,580.886304 C849.509929,577.882715 851,574.29923 851,570.160174 L851,539.672823 C851,535.533766 849.534811,531.950281 846.554669,528.946692 C843.574527,525.943104 840.04793,524.429147 835.999761,524.429147 L806.000239,524.429147 C801.927187,524.429147 798.40059,525.917806 795.445331,528.946692 C792.490071,531.975579 791,535.559064 791,539.672823 Z M791,653.441349 L791,683.416945 C791,687.486298 792.465189,690.985254 795.445331,693.96262 C798.425473,696.939985 801.927187,698.429147 806.000239,698.429147 L835.999761,698.429147 C840.072813,698.429147 843.59941,696.915102 846.554669,693.96262 C849.509929,691.010137 851,687.486298 851,683.416945 L851,653.441349 C851,649.371995 849.534811,645.87304 846.554669,642.895674 C843.574527,639.918308 840.04793,638.429147 835.999761,638.429147 L806.000239,638.429147 C801.927187,638.429147 798.40059,639.943192 795.445331,642.895674 C792.490071,645.848157 791,649.371995 791,653.441349 Z M619.630571,813.911601 C622.535681,810.908013 624,807.324528 624,803.185471 L624,772.69812 C624,768.559064 622.560149,765.000876 619.630571,761.97199 C616.700992,758.943104 613.259467,757.429147 609.256117,757.429147 L579.768351,757.429147 C575.765001,757.429147 572.323476,758.943104 569.393897,761.97199 C566.464319,765.000876 565,768.584361 565,772.69812 L565,803.185471 C565,807.324528 566.488787,810.908013 569.393897,813.911601 C572.299008,816.91519 575.765001,818.429147 579.768351,818.429147 L609.256117,818.429147 C613.259467,818.429147 616.700992,816.940488 619.630571,813.911601 Z M624,886.179382 C624,882.174214 622.560149,878.706394 619.630571,875.800389 C616.700992,872.894383 613.259467,871.429147 609.256117,871.429147 L579.768351,871.429147 C575.765001,871.429147 572.323476,872.869916 569.393897,875.800389 C566.464319,878.730862 565,882.198682 565,886.179382 L565,915.678912 C565,919.68408 566.488787,923.127432 569.393897,926.057905 C572.299008,928.988378 575.765001,930.429147 579.768351,930.429147 L609.256117,930.429147 C613.259467,930.429147 616.72546,928.96391 619.630571,926.057905 C622.535681,923.1519 624,919.68408 624,915.678912 L624,886.179382 Z M619.630571,693.96262 C622.535681,691.010137 624,687.486298 624,683.416945 L624,653.441349 C624,649.371995 622.560149,645.87304 619.630571,642.895674 C616.700992,639.918308 613.259467,638.429147 609.256117,638.429147 L579.768351,638.429147 C575.765001,638.429147 572.323476,639.943192 569.393897,642.895674 C566.464319,645.848157 565,649.371995 565,653.441349 L565,683.416945 C565,687.486298 566.488787,690.985254 569.393897,693.96262 C572.299008,696.939985 575.765001,698.429147 579.768351,698.429147 L609.256117,698.429147 C613.259467,698.429147 616.700992,696.939985 619.630571,693.96262 Z M619.630571,580.886304 C622.535681,577.882715 624,574.29923 624,570.160174 L624,539.672823 C624,535.533766 622.560149,531.950281 619.630571,528.946692 C616.700992,525.943104 613.259467,524.429147 609.256117,524.429147 L579.768351,524.429147 C575.765001,524.429147 572.323476,525.917806 569.393897,528.946692 C566.464319,531.975579 565,535.559064 565,539.672823 L565,570.160174 C565,574.29923 566.488787,577.857418 569.393897,580.886304 C572.299008,583.91519 575.765001,585.429147 579.768351,585.429147 L609.256117,585.429147 C613.259467,585.429147 616.700992,583.91519 619.630571,580.886304 Z M619.630571,467.059718 C622.535681,464.154607 624,460.688614 624,456.685264 L624,427.17303 C624,423.16968 622.560149,419.703687 619.630571,416.798576 C616.700992,413.893466 613.259467,412.429147 609.256117,412.429147 L579.768351,412.429147 C575.765001,412.429147 572.323476,413.868998 569.393897,416.798576 C566.464319,419.728155 565,423.194148 565,427.17303 L565,456.685264 C565,460.688614 566.488787,464.130139 569.393897,467.059718 C572.299008,469.989296 575.765001,471.429147 579.768351,471.429147 L609.256117,471.429147 C613.259467,471.429147 616.700992,469.989296 619.630571,467.059718 Z M738,803.185471 L738,772.69812 C738,768.584361 736.535745,765.000876 733.556513,761.97199 C730.57728,758.943104 727.052541,757.429147 723.006221,757.429147 L692.993779,757.429147 C688.922576,757.429147 685.397837,758.943104 682.443487,761.97199 C679.489138,765.000876 678,768.584361 678,772.69812 L678,803.185471 C678,807.324528 679.464255,810.908013 682.443487,813.911601 C685.42272,816.91519 688.922576,818.429147 692.993779,818.429147 L723.006221,818.429147 C727.077424,818.429147 730.602163,816.91519 733.556513,813.911601 C736.510862,810.908013 738,807.324528 738,803.185471 Z M738,683.416945 L738,653.441349 C738,649.371995 736.535745,645.87304 733.556513,642.895674 C730.57728,639.918308 727.052541,638.429147 723.006221,638.429147 L692.993779,638.429147 C688.922576,638.429147 685.397837,639.943192 682.443487,642.895674 C679.489138,645.848157 678,649.371995 678,653.441349 L678,683.416945 C678,687.486298 679.464255,690.985254 682.443487,693.96262 C685.42272,696.939985 688.922576,698.429147 692.993779,698.429147 L723.006221,698.429147 C727.077424,698.429147 730.602163,696.915102 733.556513,693.96262 C736.510862,691.010137 738,687.486298 738,683.416945 Z M738,570.160174 L738,539.672823 C738,535.533766 736.535745,531.950281 733.556513,528.946692 C730.57728,525.943104 727.052541,524.429147 723.006221,524.429147 L692.993779,524.429147 C688.922576,524.429147 685.397837,525.917806 682.443487,528.946692 C679.489138,531.975579 678,535.559064 678,539.672823 L678,570.160174 C678,574.29923 679.464255,577.857418 682.443487,580.886304 C685.42272,583.91519 688.922576,585.429147 692.993779,585.429147 L723.006221,585.429147 C727.077424,585.429147 730.57728,583.91519 733.556513,580.886304 C736.510862,577.882715 738,574.29923 738,570.160174 Z M835.999761,818.429147 C840.072813,818.429147 843.59941,816.91519 846.554669,813.911601 C849.509929,810.908013 851,807.324528 851,803.185471 L851,772.69812 C851,768.559064 849.534811,765.000876 846.554669,761.97199 C843.574527,758.943104 840.04793,757.429147 835.999761,757.429147 L806.000239,757.429147 C801.927187,757.429147 798.40059,758.943104 795.445331,761.97199 C792.490071,765.000876 791,768.584361 791,772.69812 L791,803.185471 C791,807.324528 792.465189,810.908013 795.445331,813.911601 C798.425473,816.91519 801.927187,818.429147 806.000239,818.429147 L835.999761,818.429147 Z M678.477113,456.557442 L678.500919,456.581368 C677.670562,455.841581 676.768786,455.245349 675.962236,454.434741 C668.654713,447.089505 665,438.264695 665,427.938299 L665,302.943921 C665,292.617525 668.653761,283.792715 675.962236,276.447479 C683.27071,269.102243 692.04945,265.429147 702.323213,265.429147 L826.676787,265.429147 C836.95055,265.429147 845.72929,269.102243 853.037764,276.447479 C860.346239,283.792715 864,292.617525 864,302.943921 L864,427.938299 C864,438.264695 860.346239,447.089505 853.037764,454.434741 C852.207407,455.245349 851.329438,455.841581 850.475275,456.557442 C843.665777,462.35324 835.78786,465.429147 826.652981,465.429147 L702.299407,465.429147 C693.140722,465.429147 685.263757,462.352283 678.477113,456.557442 L678.477113,456.557442 Z M698,356.576404 L698,356.576404 L698,416.189154 C698,418.408088 698.856469,420.320994 700.47488,421.973351 C702.093292,423.625707 704.043979,424.429147 706.304981,424.429147 L722.938813,424.429147 C725.175944,424.429147 727.126631,423.602969 728.768913,421.973351 C730.411195,420.343733 731.243794,418.431774 731.243794,416.189154 L731.243794,374.943714 L797.756206,374.943714 L797.756206,416.189154 C797.756206,418.408088 798.612675,420.320994 800.231087,421.973351 C801.849498,423.625707 803.800185,424.429147 806.061187,424.429147 L822.695019,424.429147 C824.932151,424.429147 826.882838,423.602969 828.52512,421.973351 C830.167401,420.343733 831,418.431774 831,416.189154 L831,300.692826 C831,298.450206 830.143531,296.513614 828.52512,294.884943 C826.906708,293.256273 824.956021,292.429147 822.695019,292.429147 L806.061187,292.429147 C803.824056,292.429147 801.873369,293.231639 800.231087,294.884943 C798.588805,296.538247 797.756206,298.473892 797.756206,300.692826 L797.756206,341.938266 L731.243794,341.938266 L731.243794,300.692826 C731.243794,298.450206 730.387325,296.513614 728.768913,294.884943 C727.150502,293.256273 725.199815,292.429147 722.938813,292.429147 L706.304981,292.429147 C704.067849,292.429147 702.117162,293.231639 700.47488,294.884943 C698.832599,296.538247 698,298.473892 698,300.692826 L698,356.575457 L698,356.576404 Z" id="Shape"></path>
        </g>
    </g>
</svg>
