<!-- Generated by IcoMoon.io -->
<svg version="1.1" xmlns="http://www.w3.org/2000/svg" width="32" height="32" viewBox="0 0 32 32">
<title>service-insurance</title>
<path d="M2.805 11.672l3.632 2.822 0.683 4.548c0.166 1.102 1.732 1.165 1.985 0.079l1.167-5.010 3.699-2.165 1.145 8.23h2.803c0.094 0 0.188 0.006 0.281 0.014l2.078-11.934 4.403-2.577s1.64-0.962 2.517-2.878c0.027-0.058 0.042-0.126 0.042-0.197 0-0.252-0.192-0.459-0.438-0.483h-0.002c-2.102-0.174-3.744 0.787-3.744 0.787l-4.403 2.577-14.007-4.942c-1.194-0.431-2.086 1.125-1.111 1.938l8.813 6.695-3.699 2.164-4.941-1.436c-1.071-0.31-1.783 1.085-0.903 1.769zM31.647 17.090c-0.419-0.652-1.141-1.078-1.963-1.078-0.659 0-1.253 0.274-1.677 0.714l-0.001 0.001-7.117 7.067c-0.286 1.399-1.506 2.437-2.969 2.439h-5.932c-0.209 0-0.379-0.169-0.379-0.378v0c0-0.209 0.17-0.378 0.379-0.378h5.797c1.033 0 1.997-0.635 2.305-1.62 0.064-0.196 0.1-0.421 0.1-0.655 0-0.157-0.017-0.31-0.048-0.457l0.003 0.014c-0.013-0.063-0.038-0.123-0.056-0.185-0.040-0.179-0.109-0.338-0.202-0.478l0.003 0.005c-0.023-0.042-0.043-0.086-0.069-0.125-0.069-0.102-0.139-0.191-0.216-0.274l0.001 0.002c-0.014-0.016-0.027-0.034-0.041-0.050-0.091-0.096-0.19-0.183-0.296-0.261l-0.006-0.004c-0.002-0.002-0.004-0.004-0.006-0.006v0c-0.331-0.244-0.74-0.401-1.184-0.429h-0.006c-0.050-0.003-0.097-0.015-0.148-0.015h-12.872v0.051c-0.059 0.026-0.111 0.061-0.154 0.103v0l-4.235 4.232c-0.095 0.095-0.154 0.227-0.154 0.372v3.181c0 0 0 0 0 0.001 0 0.016-0.002 0.031-0.007 0.045v-0.001l-0.491 1.58c-0.004 0.013-0.007 0.029-0.007 0.044 0 0 0 0 0 0.001v0 0.834c0 0.084 0.068 0.152 0.152 0.152l6.915-0.002v-0.25h13.524c0.043 0 0.083-0.018 0.11-0.048v0l10.628-11.252c0.74-0.783 0.902-1.984 0.318-2.889z"></path>
</svg>
