<!-- Generated by IcoMoon.io -->
<svg version="1.1" xmlns="http://www.w3.org/2000/svg" width="32" height="32" viewBox="0 0 32 32">
<title>service-hotel</title>
<path d="M25.959 4.114h-4.726v2.7c0 0.707-0.265 1.346-0.766 1.847s-1.14 0.766-1.847 0.766h-5.241c-0.707 0-1.345-0.265-1.846-0.766s-0.766-1.139-0.766-1.847v-2.7h-4.726c-0.27 0-0.503 0.098-0.7 0.295s-0.296 0.431-0.296 0.7v25.895c0 0.269 0.098 0.503 0.296 0.7s0.43 0.296 0.7 0.296h6.654c-0.024-0.114-0.039-0.232-0.039-0.356v-4.535c0-0.452 0.165-0.844 0.496-1.176 0.331-0.33 0.723-0.496 1.176-0.496h3.345c0.453 0 0.844 0.167 1.176 0.496 0.331 0.332 0.497 0.724 0.497 1.176v4.535c0 0.124-0.015 0.242-0.039 0.356h6.654c0.269 0 0.503-0.099 0.7-0.296s0.296-0.431 0.296-0.7v-25.895c0-0.269-0.099-0.503-0.296-0.7s-0.431-0.295-0.701-0.295zM24.28 22.924c-0.12 0.12-0.261 0.179-0.425 0.179h-1.208c-0.164 0-0.306-0.060-0.425-0.179s-0.179-0.261-0.179-0.425v-1.208c0-0.163 0.060-0.305 0.179-0.425s0.261-0.18 0.425-0.18h1.208c0.164 0 0.305 0.060 0.425 0.18s0.18 0.261 0.18 0.425v1.208c0 0.164-0.060 0.306-0.18 0.425zM24.46 26.125v1.208c0 0.164-0.060 0.306-0.18 0.425s-0.261 0.179-0.425 0.179h-1.208c-0.164 0-0.306-0.059-0.425-0.179s-0.179-0.261-0.179-0.425v-1.208c0-0.163 0.060-0.305 0.179-0.425s0.261-0.179 0.425-0.179h1.208c0.164 0 0.305 0.060 0.425 0.179s0.18 0.261 0.18 0.425zM24.28 18.090c-0.12 0.12-0.261 0.18-0.425 0.18h-1.208c-0.164 0-0.306-0.060-0.425-0.18s-0.179-0.261-0.179-0.425v-1.208c0-0.164 0.060-0.306 0.179-0.425s0.261-0.18 0.425-0.18h1.208c0.164 0 0.305 0.060 0.425 0.18s0.18 0.261 0.18 0.425v1.208c0 0.164-0.060 0.306-0.18 0.425zM24.28 13.256c-0.12 0.12-0.261 0.18-0.425 0.18h-1.208c-0.164 0-0.306-0.060-0.425-0.18s-0.179-0.261-0.179-0.425v-1.208c0-0.163 0.060-0.305 0.179-0.425s0.261-0.179 0.425-0.179h1.208c0.164 0 0.305 0.060 0.425 0.179s0.18 0.261 0.18 0.425v1.208c0 0.164-0.060 0.306-0.18 0.425zM24.28 8.422c-0.12 0.12-0.261 0.179-0.425 0.179h-1.208c-0.164 0-0.306-0.059-0.425-0.179s-0.179-0.261-0.179-0.425v-1.209c0-0.163 0.060-0.305 0.179-0.425s0.261-0.179 0.425-0.179h1.208c0.164 0 0.305 0.060 0.425 0.179s0.18 0.261 0.18 0.425v1.209c0 0.164-0.060 0.306-0.18 0.425zM17.208 11.623c0-0.163 0.060-0.305 0.179-0.425s0.261-0.179 0.425-0.179h1.208c0.163 0 0.305 0.060 0.425 0.179s0.179 0.261 0.179 0.425v1.208c0 0.164-0.060 0.306-0.179 0.425-0.12 0.12-0.261 0.18-0.425 0.18h-1.208c-0.164 0-0.305-0.060-0.425-0.18s-0.179-0.261-0.179-0.425v-1.208zM17.208 16.457c0-0.164 0.060-0.306 0.179-0.425s0.261-0.18 0.425-0.18h1.208c0.163 0 0.305 0.060 0.425 0.18s0.179 0.261 0.179 0.425v1.208c0 0.164-0.060 0.306-0.179 0.425s-0.261 0.18-0.425 0.18h-1.208c-0.164 0-0.305-0.060-0.425-0.18s-0.179-0.261-0.179-0.425v-1.208zM9.778 22.924c-0.12 0.12-0.261 0.179-0.425 0.179h-1.208c-0.164 0-0.306-0.060-0.425-0.179s-0.18-0.261-0.18-0.425v-1.208c0-0.163 0.060-0.305 0.18-0.425s0.261-0.18 0.425-0.18h1.208c0.164 0 0.305 0.060 0.425 0.18s0.179 0.261 0.179 0.425v1.208c0 0.164-0.060 0.306-0.179 0.425zM9.957 26.125v1.208c0 0.164-0.060 0.306-0.179 0.425s-0.261 0.179-0.425 0.179h-1.208c-0.164 0-0.306-0.059-0.425-0.179s-0.18-0.261-0.18-0.425v-1.208c0-0.163 0.060-0.305 0.18-0.425s0.261-0.179 0.425-0.179h1.208c0.164 0 0.305 0.060 0.425 0.179s0.179 0.261 0.179 0.425zM9.778 18.090c-0.12 0.12-0.261 0.18-0.425 0.18h-1.208c-0.164 0-0.306-0.060-0.425-0.18s-0.18-0.261-0.18-0.425v-1.208c0-0.164 0.060-0.306 0.18-0.425s0.261-0.18 0.425-0.18h1.208c0.164 0 0.305 0.060 0.425 0.18s0.179 0.261 0.179 0.425v1.208c0 0.164-0.060 0.306-0.179 0.425zM9.778 13.256c-0.12 0.12-0.261 0.18-0.425 0.18h-1.208c-0.164 0-0.306-0.060-0.425-0.18s-0.18-0.261-0.18-0.425v-1.208c0-0.163 0.060-0.305 0.18-0.425s0.261-0.179 0.425-0.179h1.208c0.164 0 0.305 0.060 0.425 0.179s0.179 0.261 0.179 0.425v1.208c0 0.164-0.060 0.306-0.179 0.425zM9.778 8.422c-0.12 0.12-0.261 0.179-0.425 0.179h-1.208c-0.164 0-0.306-0.059-0.425-0.179s-0.18-0.261-0.18-0.425v-1.209c0-0.163 0.060-0.305 0.18-0.425s0.261-0.179 0.425-0.179h1.208c0.164 0 0.305 0.060 0.425 0.179s0.179 0.261 0.179 0.425v1.209c0 0.164-0.060 0.306-0.179 0.425zM14.791 22.499c0 0.164-0.060 0.306-0.179 0.425s-0.261 0.179-0.425 0.179h-1.209c-0.164 0-0.305-0.060-0.425-0.179s-0.179-0.261-0.179-0.425v-1.208c0-0.163 0.060-0.305 0.179-0.425s0.261-0.18 0.425-0.18h1.209c0.163 0 0.305 0.060 0.425 0.18s0.179 0.262 0.179 0.425v1.208zM14.791 17.665c0 0.164-0.060 0.306-0.179 0.425s-0.261 0.18-0.425 0.18h-1.209c-0.164 0-0.305-0.060-0.425-0.18s-0.179-0.261-0.179-0.425v-1.208c0-0.164 0.060-0.306 0.179-0.425s0.261-0.18 0.425-0.18h1.209c0.163 0 0.305 0.060 0.425 0.18s0.179 0.261 0.179 0.425v1.208zM14.791 12.831c0 0.164-0.060 0.306-0.179 0.425s-0.261 0.18-0.425 0.18h-1.209c-0.164 0-0.305-0.060-0.425-0.18s-0.179-0.261-0.179-0.425v-1.208c0-0.163 0.060-0.305 0.179-0.425s0.261-0.179 0.425-0.179h1.209c0.163 0 0.305 0.060 0.425 0.179s0.179 0.261 0.179 0.425v1.208zM19.021 23.103h-1.208c-0.164 0-0.305-0.060-0.425-0.179s-0.179-0.261-0.179-0.425v-1.208c0-0.163 0.060-0.305 0.179-0.425s0.261-0.18 0.425-0.18h1.208c0.163 0 0.305 0.060 0.425 0.18s0.179 0.261 0.179 0.425v1.208c0 0.164-0.060 0.306-0.179 0.425s-0.261 0.179-0.425 0.179zM12.376 8.014c0.286 0.243 0.618 0.372 1.004 0.372h5.241c0.385 0 0.717-0.129 1.004-0.372 0.036-0.030 0.073-0.055 0.108-0.089 0.308-0.308 0.462-0.678 0.462-1.111v-5.241c0-0.433-0.154-0.803-0.462-1.111s-0.678-0.462-1.111-0.462h-5.241c-0.433 0-0.803 0.154-1.111 0.462s-0.462 0.678-0.462 1.111v5.241c0 0.433 0.154 0.803 0.462 1.111 0.034 0.034 0.072 0.059 0.107 0.090zM13.204 4.114v-2.367c0-0.094 0.035-0.176 0.104-0.246s0.151-0.104 0.245-0.104h0.699c0.095 0 0.177 0.035 0.245 0.104s0.104 0.151 0.104 0.246v1.747h2.795v-1.747c0-0.094 0.035-0.176 0.104-0.246s0.151-0.104 0.245-0.104h0.699c0.095 0 0.177 0.035 0.245 0.104s0.104 0.151 0.104 0.246v4.892c0 0.095-0.035 0.176-0.104 0.245s-0.151 0.104-0.245 0.104h-0.699c-0.095 0-0.177-0.034-0.245-0.104s-0.104-0.151-0.104-0.245v-1.747h-2.795v1.747c0 0.095-0.035 0.176-0.104 0.245s-0.151 0.104-0.245 0.104h-0.699c-0.095 0-0.177-0.034-0.245-0.104s-0.104-0.151-0.104-0.245v-2.525h-0.001z"></path>
</svg>
