<svg xmlns="http://www.w3.org/2000/svg" xmlns:xlink="http://www.w3.org/1999/xlink" version="1.1" id="レイヤー_1" x="0px" y="0px" viewBox="0 0 1024 1024" style="enable-background:new 0 0 1024 1024;" xml:space="preserve">
<style type="text/css">
	.st0{fill:#1C5DB5;}
</style>
<title>国内ツアー</title>
<path class="st0" d="M829.2,1.5C886.5,1.5,933,47.6,933,104.6s-46.5,103.1-103.8,103.1s-103.8-46.2-103.8-103.1S771.8,1.5,829.2,1.5  z M1008.6,509l-182-181l6.5-32.6c6.9-51.5-48.5-99.2-97.3-80.5l-215.9,93.8c-11.5,4.9-18.9,12.7-22.9,23.1c-1.2,3.2-2,6.5-2.4,9.9  l-26.4,195c-1.9,14.1,2.1,28.4,11.1,39.4l-70.6,72.6l0,0l-62.8-60.2c-22.6-21.6-58.3-21-80.2,1.4L15.9,846.4  c-21.6,22.1-21.2,57.6,0.9,79.2c0.1,0.1,0.3,0.3,0.4,0.4l52.1,50c-6.3,13-3.5,28.6,7,38.6c13.5,12.9,34.8,12.5,47.8-0.8  c10-10.2,12.3-25.6,5.9-38.4l279.3-287l0,0l93.3-95.8c27.4,9.7,57.4-4.6,67.1-32c1.2-3.3,2-6.7,2.5-10.2l18.7-137.5  c2.5-15.5,8.4-25.9,24.5-31.9c0.8-0.3,1.7-0.6,2.5-1l49.4-21.3l-152.4,600c-7.4,28,9.4,56.7,37.4,64c28,7.4,56.7-9.4,64-37.4  l92.3-347.7L814,740.1c8.2,7.6,11.5,16.2,12.8,29l19.4,207.6c3,28.8,28.9,49.7,57.7,46.7c28.3-3,49-27.9,46.8-56.3l-22.9-246  c-0.9-14.3-5-21.6-13.5-29.4L795.6,578.1c-10.2-9.5-15.3-20.4-11.9-35.8l18.3-91.2l132.5,131.4c20.5,20.3,53.6,20.3,74.2,0l0,0  c20.3-20.1,20.5-53,0.3-73.3C1008.9,509.2,1008.7,509.1,1008.6,509z"/>
</svg>