<!-- Generated by IcoMoon.io -->
<svg version="1.1" xmlns="http://www.w3.org/2000/svg" width="32" height="32" viewBox="0 0 32 32">
<title>service-premium</title>
<path d="M27.887 13.813c-0.014-0.046-0.022-0.099-0.022-0.154s0.008-0.108 0.023-0.157l-0.001 0.004 1.106-3.742c0.014-0.046 0.022-0.099 0.022-0.154 0-0.175-0.082-0.33-0.21-0.429l-0.001-0.001-3.094-2.382c-0.082-0.064-0.144-0.148-0.179-0.246l-0.001-0.004-1.304-3.677c-0.075-0.207-0.268-0.354-0.496-0.361h-0.001l-3.902-0.111c-0.109-0.003-0.21-0.037-0.294-0.095l0.002 0.001-3.219-2.208c-0.086-0.060-0.192-0.095-0.307-0.095s-0.221 0.036-0.309 0.096l0.002-0.001-3.222 2.202c-0.082 0.056-0.183 0.091-0.291 0.094h-0.001l-3.902 0.106c-0.229 0.006-0.421 0.153-0.496 0.357l-0.001 0.004-1.311 3.676c-0.037 0.101-0.099 0.185-0.179 0.247l-0.001 0.001-3.095 2.378c-0.13 0.1-0.212 0.256-0.212 0.431 0 0.055 0.008 0.107 0.023 0.157l-0.001-0.004 1.101 3.744c0.014 0.046 0.022 0.099 0.022 0.154s-0.008 0.108-0.023 0.157l0.001-0.004-1.106 3.742c-0.014 0.046-0.022 0.099-0.022 0.154 0 0.175 0.082 0.33 0.21 0.429l0.001 0.001 3.094 2.382c0.081 0.063 0.144 0.147 0.179 0.245l0.001 0.004 1.306 3.678c0.075 0.208 0.268 0.354 0.496 0.361h0.001l0.365 0.010-2.233 5.452 2.428 0.162 1.844 1.586 2.631-6.427 2.377 1.63c0.086 0.059 0.192 0.095 0.307 0.095s0.221-0.036 0.309-0.096l-0.002 0.001 2.393-1.637 2.634 6.433 1.844-1.586 2.428-0.162-2.227-5.442 0.346-0.009c0.229-0.006 0.421-0.153 0.496-0.357l0.001-0.004 1.313-3.676c0.037-0.101 0.099-0.185 0.179-0.247l0.001-0.001 3.094-2.378c0.13-0.1 0.212-0.256 0.212-0.431 0-0.055-0.008-0.107-0.023-0.157l0.001 0.004zM18.745 14.345l1.497 4.944-4.242-2.95-4.242 2.95 1.497-4.944-4.118-3.121 5.166-0.105 1.697-4.879 1.697 4.879 5.166 0.105z"></path>
</svg>
