<svg xmlns="http://www.w3.org/2000/svg" width="16" height="16" viewBox="0 0 16 16">
    <g fill="none" fill-rule="evenodd">
        <g fill="#4D4D4D" fill-rule="nonzero">
            <g>
                <g>
                    <g>
                        <g>
                            <path d="M13.5 11c-.706 0-1.342.293-1.797.763L4.969 8.396C4.988 8.267 5 8.135 5 8c0-.134-.011-.266-.032-.395l6.735-3.367c.455.47 1.091.763 1.797.763 1.38 0 2.5-1.12 2.5-2.5s-1.12-2.5-2.5-2.5-2.5 1.12-2.5 2.5c0 .135.011.267.031.396L4.297 6.263C3.843 5.793 3.206 5.5 2.5 5.5 1.12 5.5 0 6.62 0 8c0 1.381 1.12 2.5 2.5 2.5.705 0 1.342-.293 1.797-.762l6.734 3.367c-.02.128-.031.26-.031.395 0 1.38 1.12 2.5 2.5 2.5s2.5-1.12 2.5-2.5-1.12-2.5-2.5-2.5z" transform="translate(-333.000000, -173.000000) translate(15.000000, 94.000000) translate(218.000000, 70.000000) translate(92.000000, 0.000000) translate(8.000000, 9.000000)"/>
                        </g>
                    </g>
                </g>
            </g>
        </g>
    </g>
</svg>
