<?xml version="1.0" encoding="UTF-8"?>
<svg width="34px" height="41px" viewBox="0 0 34 41" version="1.1" xmlns="http://www.w3.org/2000/svg" xmlns:xlink="http://www.w3.org/1999/xlink">
    <title>spoon-knife</title>
    <g id="Page-1" stroke="none" stroke-width="1" fill="none" fill-rule="evenodd">
        <g id="spoon-knife" fill="#1ba1ff">
            <path d="M0.3,9.1002 C0.3,13.2002 2.7,16.7002 6,17.6002 L4.8,37.8002 C4.7,39.2002 5.8,40.3002 7.1,40.3002 L8.3,40.3002 C9.7,40.3002 10.7,39.2002 10.6,37.8002 L9.5,17.6002 C12.8,16.7002 15.2,13.2002 15.2,9.1002 C15.2,4.3002 11.9,0.3002 7.8,0.3002 C3.6,0.3002 0.3,4.2002 0.3,9.1002 L0.3,9.1002 Z M32.8,0.3002 L30.7,12.8002 L29.1,12.8002 L28.1,0.3002 L27.1,0.3002 L26.1,12.8002 L24.5,12.8002 L22.4,0.3002 L21.4,0.3002 L21.4,16.5002 C21.4,17.2002 22,17.7002 22.6,17.7002 L25.8,17.7002 L24.6,37.7002 C24.5,39.1002 25.6,40.2002 26.9,40.2002 L28.1,40.2002 C29.5,40.2002 30.5,39.1002 30.4,37.7002 L29.2,17.7002 L32.4,17.7002 C33.1,17.7002 33.6,17.1002 33.6,16.5002 L33.6,0.3002 L32.8,0.3002 Z" id="Fill-1"></path>
        </g>
    </g>
</svg>