<?xml version="1.0" encoding="UTF-8"?>
<svg width="13px" height="13px" viewBox="0 0 13 13" version="1.1" xmlns="http://www.w3.org/2000/svg" xmlns:xlink="http://www.w3.org/1999/xlink">
    <title>thumbnail</title>
    <g id="Page-1" stroke="none" stroke-width="1">
        <g id="thumbnail">
            <path d="M0.5,-0.0001 L5.5,-0.0001 C5.8,-0.0001 6,0.1999 6,0.4999 L6,5.4999 C6,5.7999 5.8,5.9999 5.5,5.9999 L0.5,5.9999 C0.2,5.9999 0,5.7999 0,5.4999 L0,0.4999 C0,0.1999 0.2,-0.0001 0.5,-0.0001" id="Fill-1"></path>
            <path d="M7.5,-0.0001 L12.5,-0.0001 C12.8,-0.0001 13,0.1999 13,0.4999 L13,5.4999 C13,5.7999 12.8,5.9999 12.5,5.9999 L7.5,5.9999 C7.2,5.9999 7,5.7999 7,5.4999 L7,0.4999 C7,0.1999 7.2,-0.0001 7.5,-0.0001" id="Fill-6"></path>
            <path d="M0.5,6.9999 L5.5,6.9999 C5.8,6.9999 6,7.1999 6,7.4999 L6,12.4999 C6,12.7999 5.8,12.9999 5.5,12.9999 L0.5,12.9999 C0.2,12.9999 0,12.7999 0,12.4999 L0,7.4999 C0,7.1999 0.2,6.9999 0.5,6.9999" id="Fill-12"></path>
            <path d="M7.5,6.9999 L12.5,6.9999 C12.8,6.9999 13,7.1999 13,7.4999 L13,12.4999 C13,12.7999 12.8,12.9999 12.5,12.9999 L7.5,12.9999 C7.2,12.9999 7,12.7999 7,12.4999 L7,7.4999 C7,7.1999 7.2,6.9999 7.5,6.9999" id="Fill-18"></path>
        </g>
    </g>
</svg>