<svg xmlns="http://www.w3.org/2000/svg" viewBox="0 0 1020.5 963.8" height="24" width="24">
  <path d="M338 889l25.8-38.9h292.8l25.8 38.9H338zm345.3-74.5v-1.2H337.9v1.2h-19.4L204.3 963.8h84.1l25.3-38.1h393.1l25.2 38.1h84.1L702 814.5h-18.7zM742.5 450.4H536.1V265.8h206.4v184.6zm-55.9 224.3c-20.4 0-37-16.9-37-37.8s16.6-37.8 37-37.8 37 16.9 37 37.8c.1 20.9-16.5 37.8-37 37.8zM484.3 450.4H286.8V265.8h197.6v184.6zM333.8 674.7c-20.4 0-37-16.9-37-37.8s16.6-37.8 37-37.8 37 16.9 37 37.8c.1 20.9-16.5 37.8-37 37.8zm53.1-567.4h246.6c16.4 0 29.7 13.6 29.7 30.3 0 16.8-13.3 30.3-29.7 30.3H386.9c-16.4 0-29.7-13.6-29.7-30.3.1-16.8 13.4-30.3 29.7-30.3zM510.2 0C246.2 0 170 97.9 170 172.5v486.8c0 65.7 52.1 119 116.5 119h447.3c64.4 0 116.5-53.3 116.5-119V172.5C850.4 97.9 774.2 0 510.2 0z"/>
</svg>
